{
.appVersion = "1075";
classes = (
{
code = "B C D F G H J K L M N P Q R S T V W X Y Z";
name = capsCon0;
},
{
code = "B.ss01 C.ss01 D.ss01 F.ss01 G.ss01 H.ss01 J.ss01 K.ss01 L.ss01 M.ss01 N.ss01 P.ss01 Q.ss01 R.ss01 S.ss01 T.ss01 V.ss01 W.ss01 X.ss01 Y.ss01 Z.ss01";
name = capsCon1;
},
{
code = "B.ss02 C.ss02 D.ss02 F.ss02 G.ss02 H.ss02 J.ss02 K.ss02 L.ss02 M.ss02 N.ss02 P.ss02 Q.ss02 R.ss02 S.ss02 T.ss02 V.ss02 W.ss02 X.ss02 Y.ss02 Z.ss02";
name = capsCon2;
},
{
code = "a b c d e f g h i j k l m n o p q r s t u v w x y z a.ss01 b.ss01 c.ss01 d.ss01 e.ss01 f.ss01 g.ss01 h.ss01 i.ss01 j.ss01 k.ss01 l.ss01 m.ss01 n.ss01 o.ss01 p.ss01 q.ss01 r.ss01 s.ss01 t.ss01 u.ss01 v.ss01 w.ss01 x.ss01 y.ss01 z.ss01 a.ss02 b.ss02 c.ss02 d.ss02 e.ss02 f.ss02 g.ss02 h.ss02 i.ss02 j.ss02 k.ss02 l.ss02 m.ss02 n.ss02 o.ss02 p.ss02 q.ss02 r.ss02 s.ss02 t.ss02 u.ss02 v.ss02 w.ss02 x.ss02 y.ss02 z.ss02 f_f_i f_f_l f_i f_l f_f f_t space";
name = capsEtc;
},
{
code = "A E I O U";
name = capsVoc0;
},
{
code = "A.ss01 E.ss01 I.ss01 O.ss01 U.ss01";
name = capsVoc1;
},
{
code = "A.ss02 E.ss02 I.ss02 O.ss02 U.ss02";
name = capsVoc2;
},
{
code = "b c d f g h j k l m n p q r s t v w x y z";
name = lowerCon0;
},
{
code = "b.ss01 c.ss01 d.ss01 f.ss01 g.ss01 h.ss01 j.ss01 k.ss01 l.ss01 m.ss01 n.ss01 p.ss01 q.ss01 r.ss01 s.ss01 t.ss01 v.ss01 w.ss01 x.ss01 y.ss01 z.ss01";
name = lowerCon1;
},
{
code = "b.ss02 c.ss02 d.ss02 f.ss02 g.ss02 h.ss02 j.ss02 k.ss02 l.ss02 m.ss02 n.ss02 p.ss02 q.ss02 r.ss02 s.ss02 t.ss02 v.ss02 w.ss02 x.ss02 y.ss02 z.ss02";
name = lowerCon2;
},
{

glyphs = (
{
color = 10;
glyphname = "A-cy.ss01";
lastChange = "2017-12-14 19:20:52 +0000";
layers = (
{
layerId = UUID0;
paths = (
{
closed = 1;
nodes = (
"509 393 OFFCURVE",
"511 424 OFFCURVE",
"511 455 CURVE",
"519 477 OFFCURVE",
"508 525 OFFCURVE",
"506 549 CURVE SMOOTH",
"502 588 OFFCURVE",
"498 627 OFFCURVE",
"458 645 CURVE SMOOTH",
"411 666 OFFCURVE",
"382 604 OFFCURVE",
"362 571 CURVE SMOOTH",
"349 550 OFFCURVE",
"331 532 OFFCURVE",
"316 513 CURVE SMOOTH",
"294 484 OFFCURVE",
"272 435 OFFCURVE",
"256 402 CURVE SMOOTH",
"246 381 OFFCURVE",
"195 308 OFFCURVE",
"195 288 CURVE SMOOTH",
"195 282 OFFCURVE",
"180 277 OFFCURVE",
"176 275 CURVE",
"163 275 OFFCURVE",
"144 263 OFFCURVE",
"159 251 CURVE SMOOTH",
"173 239 OFFCURVE",
"175 226 OFFCURVE",
"162 213 CURVE",
"151 208 OFFCURVE",
"102 116 OFFCURVE",
"101 103 CURVE",
"84 74 OFFCURVE",
"42 31 OFFCURVE",
"83 6 CURVE SMOOTH",
"97 -3 OFFCURVE",
"99 -3 OFFCURVE",
"115 -3 CURVE SMOOTH",
"132 -3 OFFCURVE",
"187 117 OFFCURVE",
"196 139 CURVE SMOOTH",
"208 168 OFFCURVE",
"225 193 OFFCURVE",
"241 219 CURVE",
"311 215 OFFCURVE",
"372 216 OFFCURVE",
"442 216 CURVE",
"448 182 OFFCURVE",
"439 157 OFFCURVE",
"444 133 CURVE",
"436 116 OFFCURVE",
"444 -1 OFFCURVE",
"444 -30 CURVE SMOOTH",
"444 -47 OFFCURVE",
"455 -78 OFFCURVE",
"475 -79 CURVE SMOOTH",
"519 -82 OFFCURVE",
"508 40 OFFCURVE",
"508 62 CURVE",
"507 137 OFFCURVE",
"511 212 OFFCURVE",
"511 287 CURVE SMOOTH",
"511 312 OFFCURVE",
"507 337 OFFCURVE",
"513 362 CURVE"
);
},
{
closed = 1;
nodes = (
"249 283 OFFCURVE",
"313 386 OFFCURVE",
"320 397 CURVE SMOOTH",
"334 420 OFFCURVE",
"345 445 OFFCURVE",
"360 468 CURVE SMOOTH",
"377 494 OFFCURVE",
"396 519 OFFCURVE",
"417 543 CURVE",
"419 545 OFFCURVE",
"436 564 OFFCURVE",
"439 561 CURVE",
"442 545 OFFCURVE",
"443 528 OFFCURVE",
"443 511 CURVE SMOOTH",
"443 469 OFFCURVE",
"442 428 OFFCURVE",
"443 386 CURVE SMOOTH",
"444 362 OFFCURVE",
"447 337 OFFCURVE",
"447 312 CURVE SMOOTH",
"447 300 OFFCURVE",
"446 275 OFFCURVE",
"428 277 CURVE",
"427 277 OFFCURVE",
"295 274 OFFCURVE",
"272 271 CURVE"
);
}
);
width = 502;
}
);
},
{
color = 10;
glyphname = "Be-cy.ss01";
lastChange = "2017-12-14 19:20:52 +0000";
layers = (
{
layerId = UUID0;
paths = (
{
closed = 1;
nodes = (
"468 634 OFFCURVE",
"608 615 OFFCURVE",
"662 632 CURVE SMOOTH",
"674 636 OFFCURVE",
"679 664 OFFCURVE",
"679 676 CURVE SMOOTH",
"679 679 OFFCURVE",
"673 679 OFFCURVE",
"671 680 CURVE",
"654 685 OFFCURVE",
"639 693 OFFCURVE",
"621 696 CURVE SMOOTH",
"562 705 OFFCURVE",
"453 697 OFFCURVE",
"390 695 CURVE SMOOTH",
"374 695 OFFCURVE",
"358 691 OFFCURVE",
"342 690 CURVE SMOOTH",
"331 689 OFFCURVE",
"319 691 OFFCURVE",
"308 689 CURVE SMOOTH",
"233 678 OFFCURVE",
"285 612 OFFCURVE",
"312 618 CURVE",
"277 551 OFFCURVE",
"241 485 OFFCURVE",
"210 416 CURVE SMOOTH",
"199 392 OFFCURVE",
"193 365 OFFCURVE",
"185 340 CURVE SMOOTH",
"173 305 OFFCURVE",
"159 271 OFFCURVE",
"148 236 CURVE SMOOTH",
"133 188 OFFCURVE",
"121 140 OFFCURVE",
"111 91 CURVE SMOOTH",
"107 74 OFFCURVE",
"93 55 OFFCURVE",
"100 38 CURVE SMOOTH",
"107 20 OFFCURVE",
"140 -7 OFFCURVE",
"156 -16 CURVE",
"166 -21 OFFCURVE",
"233 -17 OFFCURVE",
"247 -14 CURVE SMOOTH",
"311 -1 OFFCURVE",
"390 35 OFFCURVE",
"435 83 CURVE SMOOTH",
"489 140 OFFCURVE",
"532 205 OFFCURVE",
"524 288 CURVE SMOOTH",
"521 317 OFFCURVE",
"504 338 OFFCURVE",
"488 361 CURVE SMOOTH",
"484 367 OFFCURVE",
"480 374 OFFCURVE",
"474 379 CURVE",
"448 403 OFFCURVE",
"406 423 OFFCURVE",
"371 430 CURVE SMOOTH",
"349 434 OFFCURVE",
"315 431 OFFCURVE",
"295 439 CURVE",
"301 473 OFFCURVE",
"379 598 OFFCURVE",
"402 631 CURVE"
);
},
{
closed = 1;
nodes = (
"168 64 OFFCURVE",
"191 159 OFFCURVE",
"201 180 CURVE",
"201 202 OFFCURVE",
"252 355 OFFCURVE",
"265 377 CURVE SMOOTH",
"272 389 LINE",
"290 390 OFFCURVE",
"313 387 OFFCURVE",
"330 393 CURVE SMOOTH",
"333 394 OFFCURVE",
"335 395 OFFCURVE",
"338 394 CURVE",
"353 391 OFFCURVE",
"369 386 OFFCURVE",
"384 382 CURVE SMOOTH",
"428 369 OFFCURVE",
"447 342 OFFCURVE",
"461 302 CURVE SMOOTH",
"494 209 OFFCURVE",
"388 113 OFFCURVE",
"314 74 CURVE SMOOTH",
"299 66 OFFCURVE",
"287 59 OFFCURVE",
"270 55 CURVE SMOOTH",
"255 52 OFFCURVE",
"242 41 OFFCURVE",
"226 44 CURVE",
"201 38 OFFCURVE",
"194 37 OFFCURVE",
"169 41 CURVE"
);
}
);
width = 509;
}
);
},
{
color = 10;
glyphname = "Ve-cy.ss01";
lastChange = "2017-12-14 19:20:52 +0000";
layers = (
{
layerId = UUID0;
paths = (
{
closed = 1;
nodes = (
"454 326 OFFCURVE",
"478 351 OFFCURVE",
"482 355 CURVE",
"490 355 OFFCURVE",
"512 388 OFFCURVE",
"518 394 CURVE",
"548 429 OFFCURVE",
"579 475 OFFCURVE",
"569 524 CURVE",
"568 531 OFFCURVE",
"562 551 OFFCURVE",
"562 557 CURVE SMOOTH",
"563 592 OFFCURVE",
"551 617 OFFCURVE",
"517 629 CURVE",
"507 656 OFFCURVE",
"417 665 OFFCURVE",
"393 662 CURVE SMOOTH",
"351 657 OFFCURVE",
"313 639 OFFCURVE",
"276 621 CURVE SMOOTH",
"251 609 OFFCURVE",
"242 593 OFFCURVE",
"250 565 CURVE SMOOTH",
"253 555 OFFCURVE",
"256 550 OFFCURVE",
"255 539 CURVE SMOOTH",
"251 498 OFFCURVE",
"179 331 OFFCURVE",
"162 290 CURVE SMOOTH",
"138 231 OFFCURVE",
"78 110 OFFCURVE",
"95 48 CURVE",
"100 42 OFFCURVE",
"108 28 OFFCURVE",
"115 24 CURVE",
"129 17 OFFCURVE",
"137 10 OFFCURVE",
"140 -7 CURVE",
"208 -41 OFFCURVE",
"272 -46 OFFCURVE",
"343 -18 CURVE SMOOTH",
"402 5 OFFCURVE",
"498 82 OFFCURVE",
"516 145 CURVE SMOOTH",
"528 188 OFFCURVE",
"524 252 OFFCURVE",
"497 289 CURVE SMOOTH",
"489 300 OFFCURVE",
"479 311 OFFCURVE",
"471 323 CURVE"
);
},
{
closed = 1;
nodes = (
"197 218 OFFCURVE",
"211 231 OFFCURVE",
"219 238 CURVE",
"239 239 OFFCURVE",
"309 264 OFFCURVE",
"335 270 CURVE SMOOTH",
"380 281 OFFCURVE",
"421 299 OFFCURVE",
"453 251 CURVE SMOOTH",
"482 207 OFFCURVE",
"472 173 OFFCURVE",
"443 133 CURVE SMOOTH",
"395 66 OFFCURVE",
"318 14 OFFCURVE",
"233 22 CURVE SMOOTH",
"201 25 OFFCURVE",
"148 37 OFFCURVE",
"158 80 CURVE SMOOTH",
"160 89 OFFCURVE",
"170 114 OFFCURVE",
"166 121 CURVE SMOOTH",
"160 131 OFFCURVE",
"183 203 OFFCURVE",
"194 209 CURVE"
);
},
{
closed = 1;
nodes = (
"244 300 OFFCURVE",
"242 315 OFFCURVE",
"242 318 CURVE SMOOTH",
"242 324 OFFCURVE",
"254 355 OFFCURVE",
"256 361 CURVE",
"262 376 OFFCURVE",
"267 391 OFFCURVE",
"274 406 CURVE",
"275 415 OFFCURVE",
"280 416 OFFCURVE",
"283 423 CURVE SMOOTH",
"296 451 OFFCURVE",
"307 488 OFFCURVE",
"313 518 CURVE SMOOTH",
"317 537 OFFCURVE",
"317 566 OFFCURVE",
"338 575 CURVE SMOOTH",
"374 591 OFFCURVE",
"490 607 OFFCURVE",
"509 558 CURVE",
"508 531 OFFCURVE",
"510 510 OFFCURVE",
"499 484 CURVE SMOOTH",
"464 401 OFFCURVE",
"399 344 OFFCURVE",
"311 325 CURVE SMOOTH",
"290 321 OFFCURVE",
"270 307 OFFCURVE",
"249 305 CURVE"
);
}
);
width = 512;
}
);
},
{
color = 10;
glyphname = "Ge-cy.ss01";
lastChange = "2017-12-14 19:20:52 +0000";
layers = (
{
layerId = UUID0;
paths = (
{
closed = 1;
nodes = (
"267 66 OFFCURVE",
"261 71 OFFCURVE",
"257 76 CURVE",
"250 84 OFFCURVE",
"279 186 OFFCURVE",
"283 199 CURVE SMOOTH",
"287 213 OFFCURVE",
"287 223 OFFCURVE",
"289 237 CURVE",
"290 248 OFFCURVE",
"302 253 OFFCURVE",
"302 262 CURVE SMOOTH",
"302 281 OFFCURVE",
"312 308 OFFCURVE",
"317 327 CURVE SMOOTH",
"322 347 LINE",
"323 352 LINE",
"325 355 LINE SMOOTH",
"346 389 OFFCURVE",
"356 432 OFFCURVE",
"370 470 CURVE SMOOTH",
"387 516 OFFCURVE",
"394 526 OFFCURVE",
"398 573 CURVE",
"398 578 OFFCURVE",
"398 596 OFFCURVE",
"404 597 CURVE SMOOTH",
"409 598 OFFCURVE",
"414 600 OFFCURVE",
"419 603 CURVE SMOOTH",
"429 609 OFFCURVE",
"440 608 OFFCURVE",
"450 612 CURVE",
"463 610 OFFCURVE",
"481 612 OFFCURVE",
"493 615 CURVE",
"507 613 OFFCURVE",
"522 616 OFFCURVE",
"536 617 CURVE SMOOTH",
"583 620 OFFCURVE",
"664 613 OFFCURVE",
"709 597 CURVE",
"696 662 OFFCURVE",
"708 660 OFFCURVE",
"640 673 CURVE SMOOTH",
"626 676 OFFCURVE",
"613 680 OFFCURVE",
"598 681 CURVE",
"598 674 OFFCURVE",
"564 679 OFFCURVE",
"560 679 CURVE",
"539 680 OFFCURVE",
"462 680 OFFCURVE",
"443 671 CURVE",
"438 672 OFFCURVE",
"398 669 OFFCURVE",
"398 663 CURVE",
"371 638 OFFCURVE",
"302 650 OFFCURVE",
"277 627 CURVE",
"271 622 OFFCURVE",
"269 619 OFFCURVE",
"261 619 CURVE SMOOTH",
"244 619 OFFCURVE",
"250 599 OFFCURVE",
"258 591 CURVE",
"264 577 OFFCURVE",
"278 582 OFFCURVE",
"290 585 CURVE",
"304 583 OFFCURVE",
"350 599 OFFCURVE",
"336 575 CURVE",
"336 568 OFFCURVE",
"320 504 OFFCURVE",
"317 496 CURVE SMOOTH",
"305 467 OFFCURVE",
"292 439 OFFCURVE",
"282 408 CURVE SMOOTH",
"277 391 OFFCURVE",
"274 369 OFFCURVE",
"268 353 CURVE SMOOTH",
"257 326 OFFCURVE",
"244 298 OFFCURVE",
"235 270 CURVE SMOOTH",
"233 263 OFFCURVE",
"235 223 OFFCURVE",
"228 220 CURVE",
"226 220 OFFCURVE",
"223 210 OFFCURVE",
"223 208 CURVE",
"207 157 OFFCURVE",
"201 102 OFFCURVE",
"192 49 CURVE SMOOTH",
"184 2 LINE",
"199 -16 LINE SMOOTH",
"230 -52 OFFCURVE",
"245 -24 OFFCURVE",
"261 3 CURVE",
"265 9 OFFCURVE",
"290 38 OFFCURVE",
"289 44 CURVE",
"289 48 OFFCURVE",
"283 73 OFFCURVE",
"274 65 CURVE"
);
}
);
width = 514;
}
);
},
{
color = 10;
glyphname = "De-cy.ss01";
lastChange = "2017-12-14 19:20:52 +0000";
layers = (
{
layerId = UUID0;
paths = (
{
closed = 1;
nodes = (
"460 590 OFFCURVE",
"432 523 OFFCURVE",
"410 475 CURVE",
"413 451 OFFCURVE",
"274 192 OFFCURVE",
"256 158 CURVE SMOOTH",
"239 126 OFFCURVE",
"219 102 OFFCURVE",
"198 74 CURVE",
"202 70 OFFCURVE",
"206 70 OFFCURVE",
"211 72 CURVE",
"234 80 OFFCURVE",
"273 79 OFFCURVE",
"297 77 CURVE SMOOTH",
"308 76 OFFCURVE",
"321 82 OFFCURVE",
"334 82 CURVE SMOOTH",
"347 82 OFFCURVE",
"361 80 OFFCURVE",
"374 84 CURVE",
"383 86 OFFCURVE",
"502 101 OFFCURVE",
"512 101 CURVE",
"500 145 OFFCURVE",
"529 167 OFFCURVE",
"531 206 CURVE",
"546 241 OFFCURVE",
"554 278 OFFCURVE",
"567 313 CURVE SMOOTH",
"570 322 OFFCURVE",
"571 332 OFFCURVE",
"575 340 CURVE SMOOTH",
"599 386 OFFCURVE",
"620 455 OFFCURVE",
"636 505 CURVE SMOOTH",
"648 541 OFFCURVE",
"665 578 OFFCURVE",
"674 615 CURVE SMOOTH",
"675 619 OFFCURVE",
"674 624 OFFCURVE",
"674 628 CURVE",
"664 630 OFFCURVE",
"656 635 OFFCURVE",
"646 635 CURVE",
"624 634 OFFCURVE",
"549 649 OFFCURVE",
"539 645 CURVE",
"521 639 OFFCURVE",
"496 640 OFFCURVE",
"477 640 CURVE"
);
},
{
closed = 1;
nodes = (
"600 97 OFFCURVE",
"782 137 OFFCURVE",
"727 35 CURVE SMOOTH",
"713 9 OFFCURVE",
"686 -24 OFFCURVE",
"678 -52 CURVE SMOOTH",
"675 -63 OFFCURVE",
"668 -70 OFFCURVE",
"662 -79 CURVE SMOOTH",
"648 -101 OFFCURVE",
"638 -126 OFFCURVE",
"632 -151 CURVE",
"596 -177 OFFCURVE",
"559 -141 OFFCURVE",
"573 -108 CURVE SMOOTH",
"584 -82 OFFCURVE",
"647 31 OFFCURVE",
"650 44 CURVE",
"644 47 LINE",
"634 48 OFFCURVE",
"624 43 OFFCURVE",
"614 46 CURVE",
"598 50 OFFCURVE",
"560 42 OFFCURVE",
"557 43 CURVE",
"550 46 OFFCURVE",
"368 25 OFFCURVE",
"352 20 CURVE SMOOTH",
"349 19 OFFCURVE",
"270 18 OFFCURVE",
"259 18 CURVE SMOOTH",
"229 17 OFFCURVE",
"46 -4 OFFCURVE",
"26 -12 CURVE",
"14 -29 OFFCURVE",
"0 -87 OFFCURVE",
"-4 -109 CURVE SMOOTH",
"-7 -126 OFFCURVE",
"-1 -142 OFFCURVE",
"-7 -157 CURVE",
"-16 -161 OFFCURVE",
"-24 -166 OFFCURVE",
"-33 -170 CURVE",
"-50 -169 OFFCURVE",
"-70 -145 OFFCURVE",
"-70 -128 CURVE SMOOTH",
"-70 -82 OFFCURVE",
"-47 -37 OFFCURVE",
"-46 9 CURVE SMOOTH",
"-46 18 OFFCURVE",
"-41 25 OFFCURVE",
"-36 32 CURVE",
"-10 64 OFFCURVE",
"19 45 OFFCURVE",
"45 58 CURVE",
"59 53 OFFCURVE",
"73 63 OFFCURVE",
"86 59 CURVE",
"104 70 OFFCURVE",
"118 77 OFFCURVE",
"134 92 CURVE SMOOTH",
"209 161 OFFCURVE",
"330 416 OFFCURVE",
"369 519 CURVE SMOOTH",
"376 538 OFFCURVE",
"384 556 OFFCURVE",
"392 574 CURVE SMOOTH",
"399 591 OFFCURVE",
"403 609 OFFCURVE",
"411 625 CURVE",
"401 628 LINE",
"384 620 OFFCURVE",
"363 617 OFFCURVE",
"345 609 CURVE SMOOTH",
"314 596 OFFCURVE",
"300 637 OFFCURVE",
"306 661 CURVE",
"331 678 OFFCURVE",
"395 686 OFFCURVE",
"426 690 CURVE SMOOTH",
"435 691 OFFCURVE",
"444 713 OFFCURVE",
"454 721 CURVE",
"461 719 OFFCURVE",
"468 716 OFFCURVE",
"475 714 CURVE",
"478 709 OFFCURVE",
"481 705 OFFCURVE",
"484 701 CURVE",
"501 695 OFFCURVE",
"525 699 OFFCURVE",
"543 699 CURVE SMOOTH",
"572 699 OFFCURVE",
"665 684 OFFCURVE",
"684 689 CURVE SMOOTH",
"703 694 OFFCURVE",
"715 693 OFFCURVE",
"727 677 CURVE",
"742 655 LINE",
"748 631 OFFCURVE",
"741 608 OFFCURVE",
"730 587 CURVE SMOOTH",
"726 579 OFFCURVE",
"727 567 OFFCURVE",
"718 561 CURVE",
"716 556 LINE",
"717 536 OFFCURVE",
"705 520 OFFCURVE",
"699 502 CURVE SMOOTH",
"679 442 OFFCURVE",
"656 383 OFFCURVE",
"635 323 CURVE SMOOTH",
"610 252 OFFCURVE",
"588 181 OFFCURVE",
"565 110 CURVE",
"567 106 LINE"
);
}
);
width = 723;
}
);
},
{
color = 10;
glyphname = "Ie-cy.ss01";
lastChange = "2017-12-14 19:20:52 +0000";
layers = (
{
layerId = UUID0;
paths = (
{
closed = 1;
nodes = (
"452 64 OFFCURVE",
"442 61 OFFCURVE",
"432 60 CURVE",
"415 51 OFFCURVE",
"394 39 OFFCURVE",
"377 32 CURVE",
"355 24 OFFCURVE",
"270 14 OFFCURVE",
"247 23 CURVE SMOOTH",
"205 39 OFFCURVE",
"207 61 OFFCURVE",
"215 98 CURVE SMOOTH",
"227 151 OFFCURVE",
"238 198 OFFCURVE",
"260 248 CURVE SMOOTH",
"267 264 OFFCURVE",
"274 281 OFFCURVE",
"280 297 CURVE",
"280 299 OFFCURVE",
"284 314 OFFCURVE",
"287 314 CURVE SMOOTH",
"288 314 OFFCURVE",
"291 308 OFFCURVE",
"291 307 CURVE",
"316 303 OFFCURVE",
"507 349 OFFCURVE",
"524 365 CURVE",
"547 375 OFFCURVE",
"519 388 OFFCURVE",
"510 391 CURVE SMOOTH",
"489 398 OFFCURVE",
"489 398 OFFCURVE",
"466 395 CURVE SMOOTH",
"453 393 OFFCURVE",
"438 394 OFFCURVE",
"425 393 CURVE SMOOTH",
"392 390 OFFCURVE",
"358 386 OFFCURVE",
"325 381 CURVE",
"309 387 OFFCURVE",
"327 412 OFFCURVE",
"332 419 CURVE SMOOTH",
"343 435 OFFCURVE",
"356 450 OFFCURVE",
"359 469 CURVE SMOOTH",
"361 480 OFFCURVE",
"410 559 OFFCURVE",
"419 572 CURVE",
"420 573 OFFCURVE",
"424 579 OFFCURVE",
"426 579 CURVE SMOOTH",
"438 579 OFFCURVE",
"449 582 OFFCURVE",
"461 585 CURVE SMOOTH",
"496 593 OFFCURVE",
"541 597 OFFCURVE",
"577 597 CURVE SMOOTH",
"603 597 OFFCURVE",
"633 595 OFFCURVE",
"658 600 CURVE",
"660 600 OFFCURVE",
"666 601 OFFCURVE",
"666 604 CURVE",
"673 668 OFFCURVE",
"491 660 OFFCURVE",
"469 646 CURVE",
"439 644 OFFCURVE",
"384 632 OFFCURVE",
"358 615 CURVE",
"356 613 OFFCURVE",
"349 608 OFFCURVE",
"351 604 CURVE",
"342 594 OFFCURVE",
"335 581 OFFCURVE",
"330 568 CURVE SMOOTH",
"310 515 OFFCURVE",
"282 470 OFFCURVE",
"258 419 CURVE SMOOTH",
"252 407 OFFCURVE",
"244 397 OFFCURVE",
"239 386 CURVE",
"239 375 OFFCURVE",
"228 363 OFFCURVE",
"224 353 CURVE",
"216 336 OFFCURVE",
"219 317 OFFCURVE",
"206 301 CURVE SMOOTH",
"193 284 OFFCURVE",
"188 245 OFFCURVE",
"184 223 CURVE",
"173 222 OFFCURVE",
"163 169 OFFCURVE",
"161 160 CURVE SMOOTH",
"148 101 OFFCURVE",
"126 34 OFFCURVE",
"182 -9 CURVE SMOOTH",
"220 -38 OFFCURVE",
"266 -38 OFFCURVE",
"311 -38 CURVE SMOOTH",
"361 -38 OFFCURVE",
"374 -28 OFFCURVE",
"418 -10 CURVE SMOOTH",
"430 -5 OFFCURVE",
"514 22 OFFCURVE",
"512 40 CURVE",
"511 54 OFFCURVE",
"480 93 OFFCURVE",
"462 65 CURVE"
);
}
);
width = 548;
}
);
},
{
color = 10;
glyphname = "Zhe-cy.ss01";
lastChange = "2017-12-14 19:23:14 +0000";
layers = (
{
background = {
paths = (
{
closed = 1;
nodes = (
"911 671 OFFCURVE",
"931 665 OFFCURVE",
"943 645 CURVE",
"942 641 OFFCURVE",
"941 638 OFFCURVE",
"940 634 CURVE",
"938 624 OFFCURVE",
"934 618 OFFCURVE",
"926 611 CURVE",
"904 594 OFFCURVE",
"882 576 OFFCURVE",
"862 557 CURVE",
"847 543 OFFCURVE",
"829 531 OFFCURVE",
"813 517 CURVE",
"794 501 OFFCURVE",
"774 484 OFFCURVE",
"756 467 CURVE",
"740 453 OFFCURVE",
"723 441 OFFCURVE",
"707 427 CURVE",
"692 415 OFFCURVE",
"677 403 OFFCURVE",
"663 390 CURVE",
"647 376 OFFCURVE",
"632 360 OFFCURVE",
"614 347 CURVE",
"605 341 OFFCURVE",
"599 331 OFFCURVE",
"590 322 CURVE",
"591 319 OFFCURVE",
"593 314 OFFCURVE",
"593 309 CURVE",
"592 292 OFFCURVE",
"600 277 OFFCURVE",
"600 261 CURVE",
"607 251 OFFCURVE",
"603 240 OFFCURVE",
"607 230 CURVE",
"611 220 OFFCURVE",
"609 209 OFFCURVE",
"611 199 CURVE",
"615 183 OFFCURVE",
"615 165 OFFCURVE",
"619 149 CURVE",
"623 132 OFFCURVE",
"624 115 OFFCURVE",
"631 99 CURVE",
"635 89 OFFCURVE",
"636 77 OFFCURVE",
"640 66 CURVE",
"646 49 OFFCURVE",
"651 30 OFFCURVE",
"666 17 CURVE",
"670 13 OFFCURVE",
"669 4 OFFCURVE",
"674 -1 CURVE",
"679 -6 OFFCURVE",
"683 -14 OFFCURVE",
"689 -18 CURVE",
"697 -26 OFFCURVE",
"707 -32 OFFCURVE",
"716 -38 CURVE",
"736 -51 OFFCURVE",
"737 -64 OFFCURVE",
"720 -82 CURVE",
"718 -84 OFFCURVE",
"716 -86 OFFCURVE",
"712 -89 CURVE",
"706 -89 OFFCURVE",
"698 -90 OFFCURVE",
"692 -90 CURVE",
"683 -84 OFFCURVE",
"675 -79 OFFCURVE",
"667 -74 CURVE",
"636 -54 OFFCURVE",
"614 -28 OFFCURVE",
"598 4 CURVE",
"578 42 OFFCURVE",
"565 81 OFFCURVE",
"556 122 CURVE",
"555 128 OFFCURVE",
"556 134 OFFCURVE",
"554 140 CURVE",
"551 147 OFFCURVE",
"551 155 OFFCURVE",
"548 162 CURVE",
"545 168 OFFCURVE",
"545 175 OFFCURVE",
"544 182 CURVE",
"543 184 OFFCURVE",
"542 187 OFFCURVE",
"542 190 CURVE",
"541 200 OFFCURVE",
"542 209 OFFCURVE",
"541 219 CURVE",
"540 228 OFFCURVE",
"536 237 OFFCURVE",
"536 247 CURVE",
"536 256 OFFCURVE",
"532 265 OFFCURVE",
"531 274 CURVE",
"529 284 OFFCURVE",
"526 293 OFFCURVE",
"522 301 CURVE",
"520 306 OFFCURVE",
"519 310 OFFCURVE",
"518 315 CURVE",
"517 322 OFFCURVE",
"514 328 OFFCURVE",
"511 337 CURVE",
"492 287 OFFCURVE",
"475 239 OFFCURVE",
"460 190 CURVE",
"452 164 OFFCURVE",
"443 138 OFFCURVE",
"435 111 CURVE",
"432 102 OFFCURVE",
"432 93 OFFCURVE",
"430 84 CURVE",
"425 69 OFFCURVE",
"423 54 OFFCURVE",
"417 40 CURVE",
"415 35 OFFCURVE",
"416 29 OFFCURVE",
"415 23 CURVE",
"412 7 OFFCURVE",
"398 -2 OFFCURVE",
"383 4 CURVE",
"377 6 OFFCURVE",
"373 9 OFFCURVE",
"367 11 CURVE",
"357 16 OFFCURVE",
"350 23 OFFCURVE",
"348 33 CURVE",
"352 48 OFFCURVE",
"355 63 OFFCURVE",
"361 77 CURVE",
"366 90 OFFCURVE",
"369 104 OFFCURVE",
"374 118 CURVE",
"379 132 OFFCURVE",
"382 147 OFFCURVE",
"387 161 CURVE",
"392 175 OFFCURVE",
"396 190 OFFCURVE",
"401 204 CURVE",
"405 218 OFFCURVE",
"412 231 OFFCURVE",
"414 245 CURVE",
"415 260 OFFCURVE",
"428 272 OFFCURVE",
"425 290 CURVE",
"417 281 OFFCURVE",
"410 274 OFFCURVE",
"403 267 CURVE",
"396 260 OFFCURVE",
"387 254 OFFCURVE",
"382 244 CURVE",
"361 225 OFFCURVE",
"344 202 OFFCURVE",
"320 185 CURVE",
"310 178 OFFCURVE",
"302 168 OFFCURVE",
"293 159 CURVE",
"267 132 OFFCURVE",
"238 109 OFFCURVE",
"209 86 CURVE",
"206 83 OFFCURVE",
"203 80 OFFCURVE",
"200 78 CURVE",
"183 63 OFFCURVE",
"166 48 OFFCURVE",
"148 33 CURVE",
"132 20 OFFCURVE",
"115 7 OFFCURVE",
"99 -6 CURVE",
"84 -18 OFFCURVE",
"69 -29 OFFCURVE",
"53 -41 CURVE",
"44 -48 OFFCURVE",
"35 -55 OFFCURVE",
"26 -62 CURVE",
"16 -69 OFFCURVE",
"5 -74 OFFCURVE",
"-8 -79 CURVE",
"-19 -68 OFFCURVE",
"-29 -57 OFFCURVE",
"-39 -47 CURVE",
"-41 -33 OFFCURVE",
"-38 -25 OFFCURVE",
"-24 -20 CURVE",
"-11 -15 OFFCURVE",
"-1 -4 OFFCURVE",
"10 5 CURVE",
"34 24 OFFCURVE",
"56 45 OFFCURVE",
"83 60 CURVE",
"85 62 OFFCURVE",
"88 64 OFFCURVE",
"90 66 CURVE",
"123 97 OFFCURVE",
"159 124 OFFCURVE",
"193 156 CURVE",
"210 172 OFFCURVE",
"229 186 OFFCURVE",
"247 202 CURVE",
"258 211 OFFCURVE",
"269 221 OFFCURVE",
"277 233 CURVE",
"280 239 OFFCURVE",
"285 244 OFFCURVE",
"290 248 CURVE",
"311 265 OFFCURVE",
"327 286 OFFCURVE",
"346 305 CURVE",
"354 314 OFFCURVE",
"361 325 OFFCURVE",
"368 335 CURVE",
"372 340 OFFCURVE",
"376 346 OFFCURVE",
"380 353 CURVE",
"377 359 OFFCURVE",
"374 366 OFFCURVE",
"370 372 CURVE",
"359 390 OFFCURVE",
"349 408 OFFCURVE",
"338 426 CURVE",
"319 458 OFFCURVE",
"304 492 OFFCURVE",
"281 521 CURVE",
"275 528 OFFCURVE",
"271 537 OFFCURVE",
"266 545 CURVE",
"254 567 OFFCURVE",
"239 586 OFFCURVE",
"224 606 CURVE",
"216 616 OFFCURVE",
"210 629 OFFCURVE",
"202 643 CURVE",
"202 648 OFFCURVE",
"201 655 OFFCURVE",
"202 663 CURVE",
"202 670 OFFCURVE",
"208 676 OFFCURVE",
"214 676 CURVE",
"237 678 OFFCURVE",
"255 672 OFFCURVE",
"267 650 CURVE",
"279 628 OFFCURVE",
"292 606 OFFCURVE",
"307 585 CURVE",
"321 564 OFFCURVE",
"334 542 OFFCURVE",
"349 521 CURVE",
"357 510 OFFCURVE",
"360 497 OFFCURVE",
"370 487 CURVE",
"378 478 OFFCURVE",
"383 466 OFFCURVE",
"389 456 CURVE",
"396 444 OFFCURVE",
"402 432 OFFCURVE",
"408 420 CURVE",
"410 417 OFFCURVE",
"411 413 OFFCURVE",
"413 410 CURVE",
"427 394 OFFCURVE",
"436 375 OFFCURVE",
"446 356 CURVE",
"455 363 OFFCURVE",
"455 374 OFFCURVE",
"459 383 CURVE",
"471 412 OFFCURVE",
"482 441 OFFCURVE",
"493 470 CURVE",
"504 499 OFFCURVE",
"513 528 OFFCURVE",
"527 555 CURVE",
"529 559 OFFCURVE",
"529 564 OFFCURVE",
"531 568 CURVE",
"537 578 OFFCURVE",
"539 589 OFFCURVE",
"545 599 CURVE",
"551 608 OFFCURVE",
"555 620 OFFCURVE",
"560 630 CURVE",
"567 644 OFFCURVE",
"574 658 OFFCURVE",
"581 673 CURVE",
"586 682 OFFCURVE",
"585 682 OFFCURVE",
"595 691 CURVE",
"600 690 OFFCURVE",
"605 688 OFFCURVE",
"610 688 CURVE",
"622 689 OFFCURVE",
"631 685 OFFCURVE",
"639 678 CURVE",
"645 674 OFFCURVE",
"648 666 OFFCURVE",
"652 659 CURVE",
"640 638 OFFCURVE",
"630 617 OFFCURVE",
"617 596 CURVE",
"603 572 OFFCURVE",
"593 545 OFFCURVE",
"582 518 CURVE",
"570 489 OFFCURVE",
"558 460 OFFCURVE",
"546 431 CURVE",
"537 409 OFFCURVE",
"528 388 OFFCURVE",
"519 366 CURVE",
"518 363 OFFCURVE",
"519 360 OFFCURVE",
"519 357 CURVE",
"521 357 OFFCURVE",
"523 357 OFFCURVE",
"524 357 CURVE",
"535 365 OFFCURVE",
"545 374 OFFCURVE",
"555 382 CURVE",
"577 400 OFFCURVE",
"597 418 OFFCURVE",
"619 435 CURVE",
"622 438 OFFCURVE",
"625 441 OFFCURVE",
"627 443 CURVE",
"649 464 OFFCURVE",
"671 483 OFFCURVE",
"695 500 CURVE",
"702 505 OFFCURVE",
"708 512 OFFCURVE",
"714 518 CURVE",
"735 539 OFFCURVE",
"759 556 OFFCURVE",
"781 577 CURVE",
"795 592 OFFCURVE",
"813 603 OFFCURVE",
"829 617 CURVE",
"840 625 OFFCURVE",
"849 635 OFFCURVE",
"858 645 CURVE",
"868 654 OFFCURVE",
"877 664 OFFCURVE",
"886 674 CURVE"
);
}
);
};
layerId = UUID0;
paths = (
{
closed = 1;
nodes = (
"908 671 OFFCURVE",
"931 666 OFFCURVE",
"943 645 CURVE",
"939 630 OFFCURVE",
"938 621 OFFCURVE",
"926 611 CURVE SMOOTH",
"869 563 OFFCURVE",
"811 517 OFFCURVE",
"756 467 CURVE SMOOTH",
"700 417 OFFCURVE",
"645 378 OFFCURVE",
"590 322 CURVE",
"592 318 OFFCURVE",
"600 267 OFFCURVE",
"600 261 CURVE",
"607 250 OFFCURVE",
"618 131 OFFCURVE",
"631 99 CURVE",
"635 88 OFFCURVE",
"636 77 OFFCURVE",
"640 66 CURVE SMOOTH",
"647 45 OFFCURVE",
"651 34 OFFCURVE",
"666 17 CURVE",
"670 12 OFFCURVE",
"669 5 OFFCURVE",
"674 -1 CURVE SMOOTH",
"687 -17 OFFCURVE",
"699 -27 OFFCURVE",
"716 -38 CURVE SMOOTH",
"741 -55 OFFCURVE",
"734 -73 OFFCURVE",
"712 -89 CURVE",
"705 -89 OFFCURVE",
"699 -90 OFFCURVE",
"692 -90 CURVE",
"667 -74 LINE SMOOTH",
"605 -34 OFFCURVE",
"568 52 OFFCURVE",
"556 122 CURVE SMOOTH",
"555 128 OFFCURVE",
"556 134 OFFCURVE",
"554 140 CURVE SMOOTH",
"545 170 OFFCURVE",
"544 189 OFFCURVE",
"541 219 CURVE SMOOTH",
"540 228 OFFCURVE",
"536 237 OFFCURVE",
"536 247 CURVE SMOOTH",
"536 274 OFFCURVE",
"520 311 OFFCURVE",
"511 337 CURVE",
"493 289 OFFCURVE",
"475 240 OFFCURVE",
"460 190 CURVE SMOOTH",
"443 135 OFFCURVE",
"425 80 OFFCURVE",
"415 23 CURVE SMOOTH",
"412 7 OFFCURVE",
"398 -1 OFFCURVE",
"383 4 CURVE SMOOTH",
"369 9 OFFCURVE",
"351 17 OFFCURVE",
"348 33 CURVE",
"357 68 OFFCURVE",
"427 276 OFFCURVE",
"425 290 CURVE",
"414 278 OFFCURVE",
"389 257 OFFCURVE",
"382 244 CURVE",
"361 225 OFFCURVE",
"343 202 OFFCURVE",
"320 185 CURVE SMOOTH",
"310 178 OFFCURVE",
"302 168 OFFCURVE",
"293 159 CURVE SMOOTH",
"267 132 OFFCURVE",
"237 111 OFFCURVE",
"209 86 CURVE SMOOTH",
"150 34 OFFCURVE",
"88 -14 OFFCURVE",
"26 -62 CURVE SMOOTH",
"16 -70 OFFCURVE",
"3 -75 OFFCURVE",
"-8 -79 CURVE",
"-18 -68 OFFCURVE",
"-29 -58 OFFCURVE",
"-39 -47 CURVE",
"-41 -32 OFFCURVE",
"-38 -26 OFFCURVE",
"-24 -20 CURVE SMOOTH",
"-11 -14 OFFCURVE",
"-1 -4 OFFCURVE",
"10 5 CURVE SMOOTH",
"34 25 OFFCURVE",
"58 42 OFFCURVE",
"83 60 CURVE",
"90 66 LINE",
"141 113 OFFCURVE",
"194 157 OFFCURVE",
"247 202 CURVE SMOOTH",
"263 216 OFFCURVE",
"274 235 OFFCURVE",
"290 248 CURVE SMOOTH",
"322 275 OFFCURVE",
"359 317 OFFCURVE",
"380 353 CURVE",
"362 389 OFFCURVE",
"303 493 OFFCURVE",
"281 521 CURVE",
"275 528 OFFCURVE",
"271 537 OFFCURVE",
"266 545 CURVE SMOOTH",
"246 579 OFFCURVE",
"222 609 OFFCURVE",
"202 643 CURVE",
"202 650 OFFCURVE",
"201 656 OFFCURVE",
"202 663 CURVE",
"205 692 OFFCURVE",
"255 672 OFFCURVE",
"267 650 CURVE SMOOTH",
"292 606 OFFCURVE",
"320 563 OFFCURVE",
"349 521 CURVE SMOOTH",
"357 510 OFFCURVE",
"361 497 OFFCURVE",
"370 487 CURVE SMOOTH",
"389 465 OFFCURVE",
"397 434 OFFCURVE",
"413 410 CURVE SMOOTH",
"425 392 OFFCURVE",
"436 375 OFFCURVE",
"446 356 CURVE",
"462 369 OFFCURVE",
"550 651 OFFCURVE",
"595 691 CURVE",
"628 684 OFFCURVE",
"633 692 OFFCURVE",
"652 659 CURVE",
"617 596 LINE",
"598 565 OFFCURVE",
"518 372 OFFCURVE",
"519 357 CURVE",
"524 357 LINE",
"558 382 OFFCURVE",
"597 413 OFFCURVE",
"627 443 CURVE SMOOTH",
"654 470 OFFCURVE",
"687 491 OFFCURVE",
"714 518 CURVE SMOOTH",
"769 573 OFFCURVE",
"834 616 OFFCURVE",
"886 674 CURVE"
);
}
);
width = 826;
}
);
leftKerningGroup = uni0416;
rightKerningGroup = uni0416;
},
{
color = 10;
glyphname = "Ze-cy.ss01";
lastChange = "2017-12-14 19:20:52 +0000";
layers = (
{
layerId = UUID0;
paths = (
{
closed = 1;
nodes = (
"384 286 OFFCURVE",
"446 203 OFFCURVE",
"418 143 CURVE",
"419 116 OFFCURVE",
"401 92 OFFCURVE",
"387 70 CURVE SMOOTH",
"377 55 OFFCURVE",
"357 45 OFFCURVE",
"345 32 CURVE SMOOTH",
"327 13 OFFCURVE",
"305 5 OFFCURVE",
"282 -6 CURVE",
"272 -1 OFFCURVE",
"265 -11 OFFCURVE",
"256 -13 CURVE SMOOTH",
"247 -15 OFFCURVE",
"236 -13 OFFCURVE",
"228 -19 CURVE",
"192 -17 OFFCURVE",
"136 -23 OFFCURVE",
"108 3 CURVE",
"88 11 OFFCURVE",
"25 70 OFFCURVE",
"21 90 CURVE SMOOTH",
"16 117 OFFCURVE",
"55 157 OFFCURVE",
"84 153 CURVE",
"131 120 OFFCURVE",
"90 113 OFFCURVE",
"84 89 CURVE",
"149 -11 OFFCURVE",
"312 53 OFFCURVE",
"348 148 CURVE SMOOTH",
"357 172 OFFCURVE",
"355 191 OFFCURVE",
"349 215 CURVE SMOOTH",
"347 223 OFFCURVE",
"348 230 OFFCURVE",
"343 237 CURVE",
"322 269 OFFCURVE",
"272 286 OFFCURVE",
"235 278 CURVE",
"229 277 OFFCURVE",
"228 274 OFFCURVE",
"222 277 CURVE SMOOTH",
"214 281 OFFCURVE",
"207 279 OFFCURVE",
"201 287 CURVE SMOOTH",
"191 300 OFFCURVE",
"170 323 OFFCURVE",
"186 339 CURVE",
"205 350 OFFCURVE",
"198 348 OFFCURVE",
"219 346 CURVE",
"232 353 OFFCURVE",
"252 350 OFFCURVE",
"269 359 CURVE SMOOTH",
"360 408 OFFCURVE",
"431 455 OFFCURVE",
"457 562 CURVE SMOOTH",
"462 582 OFFCURVE",
"455 605 OFFCURVE",
"450 625 CURVE",
"407 655 OFFCURVE",
"347 648 OFFCURVE",
"305 620 CURVE SMOOTH",
"285 607 OFFCURVE",
"257 589 OFFCURVE",
"246 567 CURVE SMOOTH",
"237 549 OFFCURVE",
"229 520 OFFCURVE",
"210 511 CURVE",
"186 527 OFFCURVE",
"184 530 OFFCURVE",
"170 555 CURVE",
"192 612 OFFCURVE",
"208 631 OFFCURVE",
"257 667 CURVE SMOOTH",
"269 676 OFFCURVE",
"286 690 OFFCURVE",
"299 695 CURVE",
"313 701 OFFCURVE",
"334 705 OFFCURVE",
"349 707 CURVE SMOOTH",
"367 709 OFFCURVE",
"374 715 OFFCURVE",
"394 710 CURVE SMOOTH",
"406 707 OFFCURVE",
"418 703 OFFCURVE",
"430 701 CURVE",
"438 700 OFFCURVE",
"446 696 OFFCURVE",
"453 691 CURVE",
"503 652 OFFCURVE",
"516 616 OFFCURVE",
"516 554 CURVE SMOOTH",
"516 501 OFFCURVE",
"501 464 OFFCURVE",
"467 424 CURVE SMOOTH",
"423 371 OFFCURVE",
"390 356 OFFCURVE",
"338 319 CURVE"
);
}
);
width = 545;
}
);
leftKerningGroup = uni0417;
rightKerningGroup = uni0417;
},
{
color = 10;
glyphname = "Ii-cy.ss01";
lastChange = "2017-12-14 19:20:52 +0000";
layers = (
{
layerId = UUID0;
paths = (
{
closed = 1;
nodes = (
"547 -39 OFFCURVE",
"502 -18 OFFCURVE",
"502 -1 CURVE SMOOTH",
"502 7 OFFCURVE",
"500 16 OFFCURVE",
"503 24 CURVE SMOOTH",
"511 45 OFFCURVE",
"518 64 OFFCURVE",
"523 86 CURVE SMOOTH",
"537 149 OFFCURVE",
"559 210 OFFCURVE",
"578 271 CURVE SMOOTH",
"590 310 OFFCURVE",
"678 549 OFFCURVE",
"674 565 CURVE",
"669 569 OFFCURVE",
"667 565 OFFCURVE",
"665 562 CURVE",
"632 520 OFFCURVE",
"598 478 OFFCURVE",
"564 437 CURVE SMOOTH",
"526 392 OFFCURVE",
"486 348 OFFCURVE",
"447 303 CURVE SMOOTH",
"419 271 OFFCURVE",
"393 236 OFFCURVE",
"364 205 CURVE SMOOTH",
"344 184 OFFCURVE",
"328 160 OFFCURVE",
"309 139 CURVE SMOOTH",
"265 91 OFFCURVE",
"207 21 OFFCURVE",
"158 -18 CURVE SMOOTH",
"143 -30 OFFCURVE",
"104 -28 OFFCURVE",
"104 -3 CURVE SMOOTH",
"104 41 OFFCURVE",
"129 118 OFFCURVE",
"145 161 CURVE SMOOTH",
"150 175 OFFCURVE",
"157 189 OFFCURVE",
"161 204 CURVE SMOOTH",
"163 212 OFFCURVE",
"165 220 OFFCURVE",
"169 228 CURVE SMOOTH",
"179 248 OFFCURVE",
"183 263 OFFCURVE",
"185 285 CURVE SMOOTH",
"186 296 OFFCURVE",
"204 333 OFFCURVE",
"209 348 CURVE SMOOTH",
"216 368 OFFCURVE",
"222 389 OFFCURVE",
"233 408 CURVE",
"235 412 OFFCURVE",
"235 412 OFFCURVE",
"236 416 CURVE SMOOTH",
"245 457 OFFCURVE",
"260 474 OFFCURVE",
"275 507 CURVE",
"277 513 LINE SMOOTH",
"282 527 OFFCURVE",
"287 536 OFFCURVE",
"293 549 CURVE SMOOTH",
"296 555 OFFCURVE",
"288 556 OFFCURVE",
"293 561 CURVE",
"304 574 OFFCURVE",
"297 570 OFFCURVE",
"301 581 CURVE",
"315 598 OFFCURVE",
"337 654 OFFCURVE",
"346 675 CURVE SMOOTH",
"350 684 OFFCURVE",
"353 686 OFFCURVE",
"362 690 CURVE SMOOTH",
"406 708 OFFCURVE",
"418 654 OFFCURVE",
"400 631 CURVE SMOOTH",
"397 627 OFFCURVE",
"396 624 OFFCURVE",
"394 619 CURVE",
"387 596 OFFCURVE",
"374 576 OFFCURVE",
"364 554 CURVE SMOOTH",
"338 497 OFFCURVE",
"201 166 OFFCURVE",
"203 118 CURVE",
"221 136 OFFCURVE",
"238 156 OFFCURVE",
"254 175 CURVE SMOOTH",
"295 224 OFFCURVE",
"342 270 OFFCURVE",
"382 320 CURVE SMOOTH",
"405 349 OFFCURVE",
"433 375 OFFCURVE",
"456 404 CURVE SMOOTH",
"471 423 OFFCURVE",
"488 439 OFFCURVE",
"503 458 CURVE SMOOTH",
"547 513 OFFCURVE",
"596 565 OFFCURVE",
"642 618 CURVE SMOOTH",
"659 638 OFFCURVE",
"712 688 OFFCURVE",
"735 698 CURVE SMOOTH",
"753 706 OFFCURVE",
"768 690 OFFCURVE",
"781 678 CURVE",
"791 668 OFFCURVE",
"792 657 OFFCURVE",
"787 644 CURVE",
"784 637 OFFCURVE",
"780 630 OFFCURVE",
"776 623 CURVE SMOOTH",
"757 589 OFFCURVE",
"743 553 OFFCURVE",
"731 516 CURVE SMOOTH",
"728 506 OFFCURVE",
"726 493 OFFCURVE",
"721 483 CURVE",
"711 461 OFFCURVE",
"690 436 OFFCURVE",
"690 410 CURVE SMOOTH",
"690 401 OFFCURVE",
"688 396 OFFCURVE",
"684 388 CURVE SMOOTH",
"671 364 OFFCURVE",
"666 337 OFFCURVE",
"658 310 CURVE SMOOTH",
"639 245 OFFCURVE",
"617 182 OFFCURVE",
"596 118 CURVE SMOOTH",
"580 67 OFFCURVE",
"572 12 OFFCURVE",
"562 -40 CURVE"
);
}
);
width = 640;
}
);
leftKerningGroup = uni0418;
rightKerningGroup = uni0418;
},
{
color = 10;
glyphname = "Ka-cy.ss01";
lastChange = "2017-12-14 19:20:52 +0000";
layers = (
{
layerId = UUID0;
paths = (
{
closed = 1;
nodes = (
"415 140 OFFCURVE",
"359 193 OFFCURVE",
"358 201 CURVE",
"349 214 OFFCURVE",
"339 228 OFFCURVE",
"328 239 CURVE",
"318 250 OFFCURVE",
"296 263 OFFCURVE",
"311 278 CURVE",
"330 323 OFFCURVE",
"548 491 OFFCURVE",
"597 519 CURVE SMOOTH",
"609 526 OFFCURVE",
"644 541 OFFCURVE",
"643 559 CURVE",
"639 566 OFFCURVE",
"635 572 OFFCURVE",
"632 579 CURVE",
"616 589 OFFCURVE",
"619 592 OFFCURVE",
"599 588 CURVE SMOOTH",
"552 577 OFFCURVE",
"510 542 OFFCURVE",
"471 515 CURVE SMOOTH",
"395 463 OFFCURVE",
"338 397 OFFCURVE",
"265 345 CURVE",
"257 354 OFFCURVE",
"301 443 OFFCURVE",
"306 455 CURVE SMOOTH",
"321 491 OFFCURVE",
"331 529 OFFCURVE",
"346 565 CURVE SMOOTH",
"365 608 LINE SMOOTH",
"370 620 OFFCURVE",
"378 644 OFFCURVE",
"378 657 CURVE",
"367 676 OFFCURVE",
"339 696 OFFCURVE",
"318 677 CURVE",
"306 665 OFFCURVE",
"270 537 OFFCURVE",
"255 508 CURVE SMOOTH",
"251 500 OFFCURVE",
"249 498 OFFCURVE",
"250 489 CURVE",
"245 488 OFFCURVE",
"241 483 OFFCURVE",
"241 478 CURVE SMOOTH",
"241 461 OFFCURVE",
"171 319 OFFCURVE",
"168 288 CURVE",
"167 281 OFFCURVE",
"169 275 OFFCURVE",
"163 269 CURVE",
"146 196 OFFCURVE",
"117 126 OFFCURVE",
"96 54 CURVE SMOOTH",
"90 34 OFFCURVE",
"84 14 OFFCURVE",
"77 -5 CURVE",
"77 -11 OFFCURVE",
"91 -34 OFFCURVE",
"94 -38 CURVE",
"133 -86 OFFCURVE",
"141 -27 OFFCURVE",
"147 2 CURVE SMOOTH",
"156 41 LINE",
"178 64 OFFCURVE",
"210 234 OFFCURVE",
"230 248 CURVE",
"245 243 OFFCURVE",
"278 206 OFFCURVE",
"289 194 CURVE SMOOTH",
"302 179 OFFCURVE",
"313 161 OFFCURVE",
"326 145 CURVE SMOOTH",
"347 120 OFFCURVE",
"370 97 OFFCURVE",
"392 73 CURVE SMOOTH",
"407 56 OFFCURVE",
"428 37 OFFCURVE",
"440 19 CURVE SMOOTH",
"457 -6 OFFCURVE",
"496 -40 OFFCURVE",
"529 -39 CURVE SMOOTH",
"583 -37 OFFCURVE",
"486 55 OFFCURVE",
"480 62 CURVE SMOOTH",
"472 72 OFFCURVE",
"427 124 OFFCURVE",
"424 132 CURVE"
);
}
);
width = 494;
}
);
},
{
color = 10;
glyphname = "El-cy.ss01";
lastChange = "2017-12-14 19:20:52 +0000";
layers = (
{
layerId = UUID0;
paths = (
{
closed = 1;
nodes = (
"383 73 OFFCURVE",
"409 134 OFFCURVE",
"433 197 CURVE SMOOTH",
"444 225 OFFCURVE",
"451 255 OFFCURVE",
"464 282 CURVE SMOOTH",
"468 290 OFFCURVE",
"470 298 OFFCURVE",
"472 306 CURVE SMOOTH",
"478 331 OFFCURVE",
"487 355 OFFCURVE",
"494 380 CURVE SMOOTH",
"500 404 OFFCURVE",
"504 429 OFFCURVE",
"513 453 CURVE",
"511 466 OFFCURVE",
"518 477 OFFCURVE",
"519 490 CURVE SMOOTH",
"520 509 OFFCURVE",
"519 529 OFFCURVE",
"519 548 CURVE",
"506 568 LINE",
"486 578 OFFCURVE",
"460 590 OFFCURVE",
"437 587 CURVE",
"416 558 OFFCURVE",
"407 526 OFFCURVE",
"390 496 CURVE SMOOTH",
"359 443 OFFCURVE",
"337 382 OFFCURVE",
"311 326 CURVE SMOOTH",
"306 316 OFFCURVE",
"308 306 OFFCURVE",
"302 296 CURVE",
"296 287 OFFCURVE",
"293 277 OFFCURVE",
"289 267 CURVE SMOOTH",
"285 257 OFFCURVE",
"282 251 OFFCURVE",
"276 242 CURVE SMOOTH",
"274 239 OFFCURVE",
"244 173 OFFCURVE",
"243 167 CURVE",
"229 149 OFFCURVE",
"222 127 OFFCURVE",
"210 107 CURVE SMOOTH",
"189 72 OFFCURVE",
"152 15 OFFCURVE",
"124 -14 CURVE SMOOTH",
"113 -26 OFFCURVE",
"98 -33 OFFCURVE",
"83 -40 CURVE",
"61 -34 OFFCURVE",
"30 -26 OFFCURVE",
"30 1 CURVE SMOOTH",
"30 9 OFFCURVE",
"33 14 OFFCURVE",
"41 16 CURVE SMOOTH",
"65 22 OFFCURVE",
"74 33 OFFCURVE",
"89 51 CURVE SMOOTH",
"107 73 OFFCURVE",
"123 96 OFFCURVE",
"139 120 CURVE SMOOTH",
"175 176 OFFCURVE",
"207 238 OFFCURVE",
"234 299 CURVE SMOOTH",
"250 334 OFFCURVE",
"267 369 OFFCURVE",
"282 405 CURVE SMOOTH",
"289 421 OFFCURVE",
"295 439 OFFCURVE",
"302 456 CURVE SMOOTH",
"320 498 OFFCURVE",
"341 541 OFFCURVE",
"360 583 CURVE",
"351 586 LINE",
"316 577 OFFCURVE",
"271 567 OFFCURVE",
"243 544 CURVE",
"239 541 OFFCURVE",
"236 538 OFFCURVE",
"232 536 CURVE",
"214 538 OFFCURVE",
"198 545 OFFCURVE",
"186 558 CURVE",
"186 563 OFFCURVE",
"185 569 OFFCURVE",
"185 574 CURVE SMOOTH",
"185 623 OFFCURVE",
"308 648 OFFCURVE",
"346 654 CURVE",
"355 648 OFFCURVE",
"376 659 OFFCURVE",
"386 653 CURVE",
"398 659 OFFCURVE",
"407 658 OFFCURVE",
"419 653 CURVE",
"423 651 OFFCURVE",
"426 651 OFFCURVE",
"430 651 CURVE SMOOTH",
"464 651 OFFCURVE",
"489 640 OFFCURVE",
"518 623 CURVE SMOOTH",
"539 610 OFFCURVE",
"576 582 OFFCURVE",
"581 556 CURVE SMOOTH",
"585 536 OFFCURVE",
"591 512 OFFCURVE",
"588 491 CURVE SMOOTH",
"578 429 OFFCURVE",
"561 370 OFFCURVE",
"545 309 CURVE SMOOTH",
"540 291 OFFCURVE",
"531 274 OFFCURVE",
"525 256 CURVE SMOOTH",
"497 167 OFFCURVE",
"457 81 OFFCURVE",
"428 -8 CURVE SMOOTH",
"416 -44 OFFCURVE",
"373 -19 OFFCURVE",
"362 4 CURVE SMOOTH",
"359 10 LINE"
);
}
);
width = 605;
}
);
leftKerningGroup = uni041B;
rightKerningGroup = uni041B;
},
{
color = 10;
glyphname = "Em-cy.ss01";
lastChange = "2017-12-14 19:20:52 +0000";
layers = (
{
layerId = UUID0;
paths = (
{
closed = 1;
nodes = (
"680 -27 OFFCURVE",
"694 -34 OFFCURVE",
"707 -16 CURVE",
"715 -6 OFFCURVE",
"714 8 OFFCURVE",
"715 20 CURVE",
"716 25 OFFCURVE",
"717 28 OFFCURVE",
"717 33 CURVE",
"717 33 OFFCURVE",
"721 51 OFFCURVE",
"714 48 CURVE",
"670 59 OFFCURVE",
"712 293 OFFCURVE",
"716 322 CURVE SMOOTH",
"718 336 OFFCURVE",
"714 348 OFFCURVE",
"713 362 CURVE",
"725 371 OFFCURVE",
"728 418 OFFCURVE",
"734 434 CURVE",
"732 453 OFFCURVE",
"762 536 OFFCURVE",
"769 558 CURVE SMOOTH",
"778 584 OFFCURVE",
"782 598 OFFCURVE",
"761 620 CURVE SMOOTH",
"742 639 OFFCURVE",
"719 640 OFFCURVE",
"698 624 CURVE SMOOTH",
"672 604 OFFCURVE",
"554 435 OFFCURVE",
"527 396 CURVE",
"528 385 OFFCURVE",
"520 373 OFFCURVE",
"511 367 CURVE",
"508 359 OFFCURVE",
"499 347 OFFCURVE",
"499 340 CURVE",
"474 297 OFFCURVE",
"446 260 OFFCURVE",
"412 224 CURVE",
"412 240 OFFCURVE",
"413 255 OFFCURVE",
"407 270 CURVE",
"417 297 OFFCURVE",
"422 327 OFFCURVE",
"425 356 CURVE SMOOTH",
"429 395 OFFCURVE",
"436 434 OFFCURVE",
"442 472 CURVE SMOOTH",
"444 487 OFFCURVE",
"444 504 OFFCURVE",
"447 518 CURVE SMOOTH",
"453 548 OFFCURVE",
"465 579 OFFCURVE",
"465 610 CURVE SMOOTH",
"465 624 OFFCURVE",
"425 661 OFFCURVE",
"411 659 CURVE",
"401 658 OFFCURVE",
"272 445 OFFCURVE",
"265 423 CURVE",
"245 404 OFFCURVE",
"227 356 OFFCURVE",
"220 329 CURVE",
"212 324 OFFCURVE",
"211 314 OFFCURVE",
"206 307 CURVE",
"207 292 OFFCURVE",
"161 214 OFFCURVE",
"163 196 CURVE",
"157 188 OFFCURVE",
"140 165 OFFCURVE",
"140 155 CURVE SMOOTH",
"140 134 OFFCURVE",
"107 80 OFFCURVE",
"95 61 CURVE SMOOTH",
"81 39 OFFCURVE",
"88 18 OFFCURVE",
"108 3 CURVE SMOOTH",
"144 -24 OFFCURVE",
"149 14 OFFCURVE",
"161 40 CURVE SMOOTH",
"166 51 OFFCURVE",
"174 62 OFFCURVE",
"179 74 CURVE",
"189 95 OFFCURVE",
"196 118 OFFCURVE",
"206 139 CURVE SMOOTH",
"218 166 OFFCURVE",
"232 192 OFFCURVE",
"241 220 CURVE SMOOTH",
"245 232 OFFCURVE",
"247 247 OFFCURVE",
"251 258 CURVE",
"259 277 OFFCURVE",
"270 297 OFFCURVE",
"279 316 CURVE SMOOTH",
"304 367 OFFCURVE",
"326 421 OFFCURVE",
"359 468 CURVE",
"362 473 OFFCURVE",
"372 486 OFFCURVE",
"371 492 CURVE",
"379 485 OFFCURVE",
"367 387 OFFCURVE",
"365 372 CURVE SMOOTH",
"364 363 OFFCURVE",
"355 338 OFFCURVE",
"356 331 CURVE",
"354 319 OFFCURVE",
"359 307 OFFCURVE",
"354 295 CURVE",
"354 270 OFFCURVE",
"354 246 OFFCURVE",
"355 221 CURVE SMOOTH",
"357 177 OFFCURVE",
"359 149 OFFCURVE",
"407 137 CURVE SMOOTH",
"443 128 OFFCURVE",
"478 189 OFFCURVE",
"494 213 CURVE SMOOTH",
"507 233 OFFCURVE",
"522 253 OFFCURVE",
"534 274 CURVE SMOOTH",
"551 304 OFFCURVE",
"561 340 OFFCURVE",
"581 368 CURVE SMOOTH",
"594 387 OFFCURVE",
"607 405 OFFCURVE",
"619 425 CURVE SMOOTH",
"630 443 OFFCURVE",
"641 462 OFFCURVE",
"653 479 CURVE SMOOTH",
"658 486 OFFCURVE",
"663 493 OFFCURVE",
"668 499 CURVE",
"669 499 OFFCURVE",
"674 505 OFFCURVE",
"675 503 CURVE",
"675 488 OFFCURVE",
"670 471 OFFCURVE",
"669 456 CURVE",
"666 433 OFFCURVE",
"666 410 OFFCURVE",
"663 388 CURVE SMOOTH",
"660 367 OFFCURVE",
"654 345 OFFCURVE",
"650 324 CURVE SMOOTH",
"638 258 OFFCURVE",
"630 194 OFFCURVE",
"630 127 CURVE SMOOTH",
"630 102 OFFCURVE",
"627 26 OFFCURVE",
"641 4 CURVE SMOOTH",
"647 -5 OFFCURVE",
"654 -14 OFFCURVE",
"661 -22 CURVE"
);
}
);
width = 720;
}
);
},
{
color = 10;
glyphname = "En-cy.ss01";
lastChange = "2017-12-14 19:20:52 +0000";
layers = (
{
layerId = UUID0;
paths = (
{
closed = 1;
nodes = (
"153 -34 OFFCURVE",
"167 27 OFFCURVE",
"177 86 CURVE SMOOTH",
"185 134 OFFCURVE",
"211 240 OFFCURVE",
"229 283 CURVE",
"253 285 OFFCURVE",
"278 283 OFFCURVE",
"302 286 CURVE SMOOTH",
"329 289 OFFCURVE",
"505 308 OFFCURVE",
"520 296 CURVE",
"520 286 LINE",
"508 271 OFFCURVE",
"472 64 OFFCURVE",
"455 24 CURVE SMOOTH",
"428 -38 OFFCURVE",
"498 -44 OFFCURVE",
"503 -39 CURVE",
"504 -4 OFFCURVE",
"516 36 OFFCURVE",
"523 70 CURVE",
"522 79 OFFCURVE",
"534 113 OFFCURVE",
"537 124 CURVE",
"536 137 OFFCURVE",
"546 147 OFFCURVE",
"545 160 CURVE",
"569 225 OFFCURVE",
"583 295 OFFCURVE",
"600 362 CURVE",
"608 371 OFFCURVE",
"608 383 OFFCURVE",
"609 394 CURVE SMOOTH",
"611 425 OFFCURVE",
"642 453 OFFCURVE",
"640 483 CURVE",
"654 520 OFFCURVE",
"662 560 OFFCURVE",
"681 594 CURVE SMOOTH",
"693 615 OFFCURVE",
"707 637 OFFCURVE",
"684 656 CURVE",
"679 666 OFFCURVE",
"667 671 OFFCURVE",
"657 671 CURVE SMOOTH",
"630 671 OFFCURVE",
"619 622 OFFCURVE",
"613 602 CURVE SMOOTH",
"599 556 OFFCURVE",
"588 510 OFFCURVE",
"574 464 CURVE SMOOTH",
"543 360 LINE",
"492 354 LINE SMOOTH",
"415 344 OFFCURVE",
"337 347 OFFCURVE",
"259 340 CURVE",
"257 340 OFFCURVE",
"245 339 OFFCURVE",
"244 337 CURVE",
"245 345 OFFCURVE",
"267 400 OFFCURVE",
"271 413 CURVE SMOOTH",
"301 515 OFFCURVE",
"324 561 OFFCURVE",
"370 660 CURVE",
"362 672 OFFCURVE",
"329 721 OFFCURVE",
"312 690 CURVE",
"311 682 OFFCURVE",
"301 666 OFFCURVE",
"297 658 CURVE",
"288 638 OFFCURVE",
"249 533 OFFCURVE",
"240 521 CURVE",
"240 516 LINE",
"229 490 OFFCURVE",
"197 386 OFFCURVE",
"187 373 CURVE",
"186 342 OFFCURVE",
"169 322 OFFCURVE",
"169 289 CURVE",
"153 270 OFFCURVE",
"113 66 OFFCURVE",
"105 28 CURVE SMOOTH",
"103 17 OFFCURVE",
"98 6 OFFCURVE",
"96 -4 CURVE SMOOTH",
"94 -16 OFFCURVE",
"97 -32 OFFCURVE",
"89 -42 CURVE",
"80 -90 OFFCURVE",
"121 -83 OFFCURVE",
"138 -92 CURVE"
);
}
);
width = 564;
}
);
},
{
color = 10;
glyphname = "O-cy.ss01";
lastChange = "2017-12-14 19:20:52 +0000";
layers = (
{
layerId = UUID0;
paths = (
{
closed = 1;
nodes = (
"298 11 OFFCURVE",
"304 13 OFFCURVE",
"307 17 CURVE",
"337 24 OFFCURVE",
"387 60 OFFCURVE",
"412 79 CURVE",
"415 82 OFFCURVE",
"440 102 OFFCURVE",
"439 105 CURVE",
"438 107 OFFCURVE",
"435 109 OFFCURVE",
"439 110 CURVE SMOOTH",
"479 121 OFFCURVE",
"539 242 OFFCURVE",
"542 279 CURVE",
"556 286 OFFCURVE",
"652 696 OFFCURVE",
"444 634 CURVE SMOOTH",
"419 627 OFFCURVE",
"348 602 OFFCURVE",
"332 583 CURVE",
"299 557 OFFCURVE",
"200 430 OFFCURVE",
"198 393 CURVE",
"198 387 OFFCURVE",
"197 388 OFFCURVE",
"193 384 CURVE SMOOTH",
"188 379 OFFCURVE",
"165 323 OFFCURVE",
"161 312 CURVE",
"162 297 OFFCURVE",
"140 224 OFFCURVE",
"137 199 CURVE SMOOTH",
"126 114 OFFCURVE",
"131 42 OFFCURVE",
"219 6 CURVE SMOOTH",
"239 -2 OFFCURVE",
"276 -6 OFFCURVE",
"293 11 CURVE"
);
},
{
closed = 1;
nodes = (
"229 323 OFFCURVE",
"251 348 OFFCURVE",
"276 399 CURVE SMOOTH",
"292 433 OFFCURVE",
"298 449 OFFCURVE",
"330 474 CURVE",
"347 503 OFFCURVE",
"351 526 OFFCURVE",
"388 528 CURVE",
"409 516 OFFCURVE",
"409 553 OFFCURVE",
"427 563 CURVE",
"439 564 OFFCURVE",
"486 587 OFFCURVE",
"507 575 CURVE SMOOTH",
"520 567 OFFCURVE",
"521 512 OFFCURVE",
"521 499 CURVE SMOOTH",
"521 485 OFFCURVE",
"520 411 OFFCURVE",
"514 398 CURVE SMOOTH",
"508 386 OFFCURVE",
"505 372 OFFCURVE",
"504 359 CURVE SMOOTH",
"501 326 OFFCURVE",
"452 218 OFFCURVE",
"429 195 CURVE SMOOTH",
"421 187 OFFCURVE",
"419 181 OFFCURVE",
"415 170 CURVE SMOOTH",
"403 135 OFFCURVE",
"337 94 OFFCURVE",
"304 80 CURVE SMOOTH",
"273 67 OFFCURVE",
"220 44 OFFCURVE",
"203 88 CURVE SMOOTH",
"187 131 OFFCURVE",
"199 223 OFFCURVE",
"221 265 CURVE"
);
}
);
width = 496;
}
);
},
{
color = 10;
glyphname = "Pe-cy.ss01";
lastChange = "2017-12-14 19:20:52 +0000";
layers = (
{
layerId = UUID0;
paths = (
{
closed = 1;
nodes = (
"412 562 OFFCURVE",
"396 526 OFFCURVE",
"382 490 CURVE SMOOTH",
"371 462 OFFCURVE",
"361 433 OFFCURVE",
"345 407 CURVE SMOOTH",
"341 400 OFFCURVE",
"320 345 OFFCURVE",
"314 331 CURVE SMOOTH",
"293 284 OFFCURVE",
"273 236 OFFCURVE",
"255 188 CURVE SMOOTH",
"235 137 OFFCURVE",
"219 85 OFFCURVE",
"201 33 CURVE SMOOTH",
"196 18 OFFCURVE",
"194 -2 OFFCURVE",
"187 -16 CURVE",
"179 -34 OFFCURVE",
"157 -32 OFFCURVE",
"142 -24 CURVE SMOOTH",
"125 -15 OFFCURVE",
"119 -7 OFFCURVE",
"125 13 CURVE SMOOTH",
"150 94 OFFCURVE",
"194 214 OFFCURVE",
"229 287 CURVE SMOOTH",
"252 334 OFFCURVE",
"268 383 OFFCURVE",
"289 431 CURVE SMOOTH",
"309 476 OFFCURVE",
"334 530 OFFCURVE",
"348 577 CURVE",
"349 582 OFFCURVE",
"350 590 OFFCURVE",
"343 590 CURVE SMOOTH",
"337 590 OFFCURVE",
"327 587 OFFCURVE",
"321 585 CURVE SMOOTH",
"305 580 OFFCURVE",
"287 586 OFFCURVE",
"272 588 CURVE",
"258 600 OFFCURVE",
"252 627 OFFCURVE",
"261 643 CURVE SMOOTH",
"264 648 OFFCURVE",
"266 650 OFFCURVE",
"272 650 CURVE SMOOTH",
"347 650 LINE SMOOTH",
"378 649 OFFCURVE",
"373 675 OFFCURVE",
"396 666 CURVE SMOOTH",
"418 657 OFFCURVE",
"477 660 OFFCURVE",
"501 666 CURVE SMOOTH",
"505 667 OFFCURVE",
"508 667 OFFCURVE",
"512 667 CURVE SMOOTH",
"610 667 LINE SMOOTH",
"624 667 OFFCURVE",
"632 668 OFFCURVE",
"646 663 CURVE SMOOTH",
"662 657 OFFCURVE",
"740 664 OFFCURVE",
"761 647 CURVE SMOOTH",
"770 640 OFFCURVE",
"778 630 OFFCURVE",
"780 619 CURVE",
"781 615 OFFCURVE",
"713 422 OFFCURVE",
"706 414 CURVE",
"703 398 OFFCURVE",
"692 385 OFFCURVE",
"687 370 CURVE SMOOTH",
"674 328 OFFCURVE",
"655 289 OFFCURVE",
"637 249 CURVE SMOOTH",
"626 224 OFFCURVE",
"618 195 OFFCURVE",
"607 169 CURVE SMOOTH",
"586 117 OFFCURVE",
"558 65 OFFCURVE",
"542 11 CURVE SMOOTH",
"538 -1 OFFCURVE",
"531 -11 OFFCURVE",
"524 -21 CURVE",
"515 -27 OFFCURVE",
"455 -20 OFFCURVE",
"481 34 CURVE SMOOTH",
"534 145 OFFCURVE",
"577 260 OFFCURVE",
"624 373 CURVE SMOOTH",
"644 421 OFFCURVE",
"679 501 OFFCURVE",
"690 549 CURVE SMOOTH",
"693 563 OFFCURVE",
"702 575 OFFCURVE",
"704 589 CURVE",
"705 594 OFFCURVE",
"705 596 OFFCURVE",
"700 598 CURVE SMOOTH",
"671 609 OFFCURVE",
"642 598 OFFCURVE",
"618 606 CURVE",
"604 610 OFFCURVE",
"493 605 OFFCURVE",
"469 604 CURVE",
"454 604 OFFCURVE",
"441 598 OFFCURVE",
"426 598 CURVE"
);
}
);
width = 631;
}
);
},
{
color = 10;
glyphname = "Er-cy.ss01";
lastChange = "2017-12-14 19:20:52 +0000";
layers = (
{
layerId = UUID0;
paths = (
{
closed = 1;
nodes = (
"181 110 OFFCURVE",
"232 257 OFFCURVE",
"241 293 CURVE SMOOTH",
"244 307 OFFCURVE",
"255 324 OFFCURVE",
"256 338 CURVE",
"266 364 OFFCURVE",
"322 528 OFFCURVE",
"322 545 CURVE",
"324 549 OFFCURVE",
"327 564 OFFCURVE",
"332 565 CURVE",
"353 578 OFFCURVE",
"423 593 OFFCURVE",
"448 590 CURVE SMOOTH",
"489 585 OFFCURVE",
"520 572 OFFCURVE",
"513 525 CURVE SMOOTH",
"507 487 OFFCURVE",
"493 452 OFFCURVE",
"473 419 CURVE SMOOTH",
"450 382 OFFCURVE",
"417 350 OFFCURVE",
"379 327 CURVE SMOOTH",
"366 319 OFFCURVE",
"351 313 OFFCURVE",
"337 308 CURVE SMOOTH",
"309 298 OFFCURVE",
"289 299 OFFCURVE",
"262 294 CURVE",
"254 285 OFFCURVE",
"271 256 OFFCURVE",
"281 252 CURVE SMOOTH",
"328 234 OFFCURVE",
"412 274 OFFCURVE",
"448 303 CURVE SMOOTH",
"503 348 OFFCURVE",
"574 423 OFFCURVE",
"574 499 CURVE SMOOTH",
"574 513 OFFCURVE",
"570 526 OFFCURVE",
"569 540 CURVE",
"529 629 OFFCURVE",
"483 664 OFFCURVE",
"382 661 CURVE SMOOTH",
"374 661 OFFCURVE",
"288 631 OFFCURVE",
"275 626 CURVE",
"274 625 OFFCURVE",
"267 622 OFFCURVE",
"266 620 CURVE SMOOTH",
"258 603 OFFCURVE",
"247 605 OFFCURVE",
"256 585 CURVE SMOOTH",
"271 551 OFFCURVE",
"242 487 OFFCURVE",
"231 454 CURVE SMOOTH",
"229 448 OFFCURVE",
"203 365 OFFCURVE",
"201 363 CURVE",
"192 329 OFFCURVE",
"177 292 OFFCURVE",
"171 258 CURVE SMOOTH",
"163 212 OFFCURVE",
"130 153 OFFCURVE",
"130 111 CURVE",
"121 92 OFFCURVE",
"115 47 OFFCURVE",
"115 26 CURVE",
"123 9 OFFCURVE",
"121 -25 OFFCURVE",
"150 -25 CURVE SMOOTH",
"176 -25 OFFCURVE",
"177 0 OFFCURVE",
"186 21 CURVE",
"189 27 OFFCURVE",
"219 86 OFFCURVE",
"196 86 CURVE"
);
}
);
width = 472;
}
);
},
{
color = 10;
glyphname = "Es-cy.ss01";
lastChange = "2017-12-14 19:20:52 +0000";
layers = (
{
layerId = UUID0;
paths = (
{
closed = 1;
nodes = (
"539 551 OFFCURVE",
"427 444 OFFCURVE",
"507 417 CURVE SMOOTH",
"515 414 OFFCURVE",
"537 404 OFFCURVE",
"538 419 CURVE SMOOTH",
"539 436 OFFCURVE",
"554 497 OFFCURVE",
"563 510 CURVE SMOOTH",
"567 516 OFFCURVE",
"573 521 OFFCURVE",
"572 529 CURVE",
"575 539 LINE",
"581 554 OFFCURVE",
"588 566 OFFCURVE",
"592 581 CURVE",
"593 583 OFFCURVE",
"597 599 OFFCURVE",
"593 598 CURVE",
"588 602 OFFCURVE",
"587 609 OFFCURVE",
"591 614 CURVE",
"589 633 OFFCURVE",
"567 621 OFFCURVE",
"560 613 CURVE",
"555 611 OFFCURVE",
"542 604 OFFCURVE",
"538 612 CURVE",
"516 652 OFFCURVE",
"455 675 OFFCURVE",
"413 655 CURVE SMOOTH",
"318 609 OFFCURVE",
"181 416 OFFCURVE",
"154 317 CURVE SMOOTH",
"133 242 OFFCURVE",
"118 141 OFFCURVE",
"135 65 CURVE SMOOTH",
"155 -25 OFFCURVE",
"245 -41 OFFCURVE",
"324 -36 CURVE SMOOTH",
"341 -35 OFFCURVE",
"431 -5 OFFCURVE",
"432 12 CURVE",
"432 20 OFFCURVE",
"429 17 OFFCURVE",
"436 20 CURVE SMOOTH",
"448 25 OFFCURVE",
"481 74 OFFCURVE",
"480 86 CURVE SMOOTH",
"476 128 OFFCURVE",
"445 114 OFFCURVE",
"427 90 CURVE SMOOTH",
"397 50 OFFCURVE",
"376 29 OFFCURVE",
"324 22 CURVE SMOOTH",
"309 20 OFFCURVE",
"248 17 OFFCURVE",
"234 23 CURVE",
"228 26 OFFCURVE",
"209 50 OFFCURVE",
"206 57 CURVE",
"161 177 OFFCURVE",
"225 340 OFFCURVE",
"294 439 CURVE SMOOTH",
"319 475 OFFCURVE",
"401 580 OFFCURVE",
"439 597 CURVE SMOOTH",
"453 603 OFFCURVE",
"479 605 OFFCURVE",
"489 590 CURVE"
);
}
);
width = 482;
}
);
},
{
color = 10;
glyphname = "Te-cy.ss01";
lastChange = "2017-12-14 19:20:52 +0000";
layers = (
{
layerId = UUID0;
paths = (
{
closed = 1;
nodes = (
"324 113 OFFCURVE",
"334 135 OFFCURVE",
"325 137 CURVE",
"332 144 OFFCURVE",
"343 213 OFFCURVE",
"343 225 CURVE SMOOTH",
"343 233 OFFCURVE",
"346 240 OFFCURVE",
"351 246 CURVE",
"354 250 OFFCURVE",
"376 349 OFFCURVE",
"377 356 CURVE SMOOTH",
"379 374 OFFCURVE",
"401 413 OFFCURVE",
"391 425 CURVE",
"405 447 OFFCURVE",
"427 559 OFFCURVE",
"437 560 CURVE",
"437 568 OFFCURVE",
"472 568 OFFCURVE",
"478 568 CURVE SMOOTH",
"534 569 OFFCURVE",
"590 582 OFFCURVE",
"646 582 CURVE SMOOTH",
"654 582 OFFCURVE",
"677 584 OFFCURVE",
"682 591 CURVE",
"693 608 OFFCURVE",
"676 600 OFFCURVE",
"677 622 CURVE",
"670 635 OFFCURVE",
"594 635 OFFCURVE",
"579 628 CURVE",
"562 628 OFFCURVE",
"462 624 OFFCURVE",
"456 618 CURVE",
"445 629 OFFCURVE",
"445 643 OFFCURVE",
"438 655 CURVE SMOOTH",
"428 672 OFFCURVE",
"409 684 OFFCURVE",
"398 661 CURVE",
"389 658 OFFCURVE",
"387 649 OFFCURVE",
"387 640 CURVE",
"385 634 OFFCURVE",
"383 628 OFFCURVE",
"379 624 CURVE",
"343 624 OFFCURVE",
"307 625 OFFCURVE",
"271 625 CURVE SMOOTH",
"254 625 OFFCURVE",
"166 631 OFFCURVE",
"154 617 CURVE",
"151 613 OFFCURVE",
"152 608 OFFCURVE",
"153 603 CURVE",
"158 562 OFFCURVE",
"200 565 OFFCURVE",
"233 564 CURVE SMOOTH",
"277 562 OFFCURVE",
"322 563 OFFCURVE",
"366 563 CURVE",
"366 516 OFFCURVE",
"344 468 OFFCURVE",
"334 422 CURVE SMOOTH",
"330 405 OFFCURVE",
"328 387 OFFCURVE",
"323 370 CURVE SMOOTH",
"320 360 OFFCURVE",
"315 350 OFFCURVE",
"312 340 CURVE",
"305 313 OFFCURVE",
"305 282 OFFCURVE",
"299 254 CURVE SMOOTH",
"293 223 OFFCURVE",
"283 192 OFFCURVE",
"275 162 CURVE SMOOTH",
"264 116 OFFCURVE",
"254 65 OFFCURVE",
"236 21 CURVE SMOOTH",
"223 -9 OFFCURVE",
"225 -15 OFFCURVE",
"254 -25 CURVE SMOOTH",
"263 -28 OFFCURVE",
"271 -34 OFFCURVE",
"279 -27 CURVE SMOOTH",
"288 -19 OFFCURVE",
"322 94 OFFCURVE",
"322 110 CURVE"
);
}
);
width = 458;
}
);
},
{
color = 10;
glyphname = "U-cy.ss01";
lastChange = "2017-12-14 19:20:52 +0000";
layers = (
{
anchors = (
{
name = topUC;
position = "{441, 769}";
}
);
layerId = UUID0;
paths = (
{
closed = 1;
nodes = (
"152 67 OFFCURVE",
"162 61 OFFCURVE",
"175 56 CURVE",
"182 59 OFFCURVE",
"189 62 OFFCURVE",
"197 63 CURVE SMOOTH",
"236 69 OFFCURVE",
"269 102 OFFCURVE",
"292 132 CURVE SMOOTH",
"300 142 OFFCURVE",
"309 148 OFFCURVE",
"317 160 CURVE",
"315 164 LINE",
"293 171 OFFCURVE",
"288 176 OFFCURVE",
"278 197 CURVE",
"275 204 OFFCURVE",
"254 265 OFFCURVE",
"254 271 CURVE",
"253 284 OFFCURVE",
"251 295 OFFCURVE",
"248 308 CURVE SMOOTH",
"240 340 OFFCURVE",
"226 370 OFFCURVE",
"218 401 CURVE SMOOTH",
"208 441 OFFCURVE",
"187 546 OFFCURVE",
"189 585 CURVE SMOOTH",
"191 619 OFFCURVE",
"173 671 OFFCURVE",
"183 700 CURVE",
"213 703 LINE",
"223 696 OFFCURVE",
"232 688 OFFCURVE",
"242 681 CURVE",
"242 654 OFFCURVE",
"249 610 OFFCURVE",
"245 586 CURVE",
"245 577 LINE",
"246 567 OFFCURVE",
"254 567 OFFCURVE",
"250 553 CURVE",
"246 541 OFFCURVE",
"267 423 OFFCURVE",
"275 412 CURVE",
"278 390 OFFCURVE",
"332 213 OFFCURVE",
"344 195 CURVE",
"361 213 OFFCURVE",
"368 237 OFFCURVE",
"382 257 CURVE SMOOTH",
"429 326 OFFCURVE",
"502 528 OFFCURVE",
"529 610 CURVE SMOOTH",
"537 634 OFFCURVE",
"541 660 OFFCURVE",
"548 685 CURVE",
"557 693 OFFCURVE",
"567 699 OFFCURVE",
"579 696 CURVE",
"588 689 OFFCURVE",
"597 683 OFFCURVE",
"605 676 CURVE",
"610 666 OFFCURVE",
"610 655 OFFCURVE",
"607 645 CURVE SMOOTH",
"599 619 OFFCURVE",
"593 592 OFFCURVE",
"583 567 CURVE SMOOTH",
"564 520 OFFCURVE",
"545 473 OFFCURVE",
"528 426 CURVE SMOOTH",
"516 394 OFFCURVE",
"505 362 OFFCURVE",
"491 330 CURVE SMOOTH",
"485 315 OFFCURVE",
"476 301 OFFCURVE",
"470 286 CURVE SMOOTH",
"455 249 OFFCURVE",
"433 213 OFFCURVE",
"413 178 CURVE SMOOTH",
"387 131 OFFCURVE",
"340 79 OFFCURVE",
"299 46 CURVE SMOOTH",
"293 41 OFFCURVE",
"285 27 OFFCURVE",
"281 27 CURVE SMOOTH",
"271 27 OFFCURVE",
"274 23 OFFCURVE",
"267 20 CURVE SMOOTH",
"258 16 OFFCURVE",
"205 -1 OFFCURVE",
"197 0 CURVE SMOOTH",
"183 2 OFFCURVE",
"168 3 OFFCURVE",
"155 7 CURVE SMOOTH",
"130 14 OFFCURVE",
"117 42 OFFCURVE",
"137 62 CURVE"
);
}
);
width = 512;
}
);
leftKerningGroup = uni0423;
rightKerningGroup = uni0423;
},
{
color = 10;
glyphname = "Ef-cy.ss01";
lastChange = "2017-12-14 19:20:52 +0000";
layers = (
{
layerId = UUID0;
paths = (
{
closed = 1;
nodes = (
"474 508 OFFCURVE",
"441 510 OFFCURVE",
"406 490 CURVE SMOOTH",
"331 447 OFFCURVE",
"325 435 OFFCURVE",
"262 383 CURVE",
"256 376 LINE",
"232 342 OFFCURVE",
"211 295 OFFCURVE",
"214 252 CURVE",
"214 245 OFFCURVE",
"215 239 OFFCURVE",
"215 232 CURVE SMOOTH",
"215 167 OFFCURVE",
"332 111 OFFCURVE",
"387 99 CURVE",
"393 98 OFFCURVE",
"400 96 OFFCURVE",
"404 102 CURVE",
"404 139 OFFCURVE",
"436 206 OFFCURVE",
"434 242 CURVE",
"444 270 OFFCURVE",
"449 300 OFFCURVE",
"458 329 CURVE SMOOTH",
"474 378 OFFCURVE",
"486 428 OFFCURVE",
"506 475 CURVE SMOOTH",
"511 486 OFFCURVE",
"517 496 OFFCURVE",
"513 509 CURVE"
);
},
{
closed = 1;
nodes = (
"565 468 OFFCURVE",
"481 203 OFFCURVE",
"480 161 CURVE SMOOTH",
"480 149 OFFCURVE",
"462 92 OFFCURVE",
"466 87 CURVE",
"489 87 OFFCURVE",
"532 96 OFFCURVE",
"551 108 CURVE SMOOTH",
"562 115 OFFCURVE",
"573 114 OFFCURVE",
"584 118 CURVE SMOOTH",
"676 155 OFFCURVE",
"763 237 OFFCURVE",
"802 329 CURVE SMOOTH",
"811 349 OFFCURVE",
"811 387 OFFCURVE",
"807 408 CURVE",
"806 412 OFFCURVE",
"785 447 OFFCURVE",
"782 453 CURVE",
"765 465 OFFCURVE",
"750 481 OFFCURVE",
"730 488 CURVE SMOOTH",
"674 506 OFFCURVE",
"645 509 OFFCURVE",
"587 512 CURVE"
);
},
{
closed = 1;
nodes = (
"550 592 OFFCURVE",
"576 644 OFFCURVE",
"587 650 CURVE",
"609 650 LINE",
"617 643 OFFCURVE",
"622 632 OFFCURVE",
"632 627 CURVE",
"644 605 OFFCURVE",
"617 587 OFFCURVE",
"612 567 CURVE",
"633 556 OFFCURVE",
"699 553 OFFCURVE",
"711 546 CURVE SMOOTH",
"732 534 OFFCURVE",
"764 523 OFFCURVE",
"779 505 CURVE",
"782 502 OFFCURVE",
"784 499 OFFCURVE",
"787 497 CURVE SMOOTH",
"810 482 OFFCURVE",
"831 458 OFFCURVE",
"840 431 CURVE SMOOTH",
"849 403 OFFCURVE",
"856 375 OFFCURVE",
"860 346 CURVE SMOOTH",
"865 311 OFFCURVE",
"839 265 OFFCURVE",
"822 234 CURVE",
"816 224 LINE",
"753 135 OFFCURVE",
"678 87 OFFCURVE",
"578 49 CURVE SMOOTH",
"541 35 OFFCURVE",
"516 28 OFFCURVE",
"476 28 CURVE SMOOTH",
"456 28 LINE",
"441 15 OFFCURVE",
"445 -21 OFFCURVE",
"437 -39 CURVE SMOOTH",
"423 -71 OFFCURVE",
"422 -73 OFFCURVE",
"385 -68 CURVE",
"371 -50 LINE",
"370 -45 OFFCURVE",
"387 24 OFFCURVE",
"389 36 CURVE",
"372 46 OFFCURVE",
"310 66 OFFCURVE",
"304 73 CURVE",
"254 97 OFFCURVE",
"217 126 OFFCURVE",
"183 170 CURVE SMOOTH",
"168 190 OFFCURVE",
"163 214 OFFCURVE",
"158 238 CURVE SMOOTH",
"154 260 OFFCURVE",
"161 272 OFFCURVE",
"162 292 CURVE SMOOTH",
"164 320 OFFCURVE",
"172 340 OFFCURVE",
"181 366 CURVE SMOOTH",
"190 392 OFFCURVE",
"228 444 OFFCURVE",
"252 457 CURVE SMOOTH",
"278 471 OFFCURVE",
"299 503 OFFCURVE",
"331 519 CURVE",
"337 529 OFFCURVE",
"352 532 OFFCURVE",
"361 539 CURVE",
"371 546 OFFCURVE",
"382 551 OFFCURVE",
"394 554 CURVE SMOOTH",
"405 557 OFFCURVE",
"415 562 OFFCURVE",
"426 566 CURVE SMOOTH",
"453 576 OFFCURVE",
"500 585 OFFCURVE",
"529 581 CURVE SMOOTH",
"535 580 OFFCURVE",
"538 577 OFFCURVE",
"544 578 CURVE"
);
}
);
width = 795;
}
);
},
{
color = 10;
glyphname = "Ha-cy.ss01";
lastChange = "2017-12-14 19:20:52 +0000";
layers = (
{
layerId = UUID0;
paths = (
{
closed = 1;
nodes = (
"515 -67 LINE",
"522 -63 OFFCURVE",
"531 -58 OFFCURVE",
"535 -51 CURVE",
"545 -35 OFFCURVE",
"516 18 OFFCURVE",
"510 33 CURVE SMOOTH",
"499 60 OFFCURVE",
"489 87 OFFCURVE",
"479 114 CURVE",
"479 122 OFFCURVE",
"398 331 OFFCURVE",
"387 361 CURVE",
"441 420 OFFCURVE",
"499 496 OFFCURVE",
"566 542 CURVE SMOOTH",
"575 548 OFFCURVE",
"599 559 OFFCURVE",
"597 573 CURVE",
"594 589 OFFCURVE",
"579 612 OFFCURVE",
"561 612 CURVE SMOOTH",
"548 612 OFFCURVE",
"485 564 OFFCURVE",
"484 552 CURVE",
"478 546 OFFCURVE",
"471 541 OFFCURVE",
"464 536 CURVE SMOOTH",
"444 522 OFFCURVE",
"380 446 OFFCURVE",
"367 431 CURVE",
"360 446 OFFCURVE",
"291 616 OFFCURVE",
"281 617 CURVE",
"268 653 OFFCURVE",
"184 656 OFFCURVE",
"225 585 CURVE SMOOTH",
"240 559 OFFCURVE",
"312 401 OFFCURVE",
"312 381 CURVE SMOOTH",
"312 370 OFFCURVE",
"309 363 OFFCURVE",
"302 355 CURVE",
"292 326 OFFCURVE",
"257 299 OFFCURVE",
"240 275 CURVE SMOOTH",
"224 252 OFFCURVE",
"213 226 OFFCURVE",
"195 204 CURVE SMOOTH",
"166 170 OFFCURVE",
"109 87 OFFCURVE",
"93 50 CURVE SMOOTH",
"85 30 OFFCURVE",
"94 -7 OFFCURVE",
"118 -11 CURVE SMOOTH",
"134 -14 OFFCURVE",
"137 3 OFFCURVE",
"143 13 CURVE SMOOTH",
"156 36 OFFCURVE",
"169 54 OFFCURVE",
"179 78 CURVE",
"182 86 OFFCURVE",
"194 107 OFFCURVE",
"200 114 CURVE SMOOTH",
"204 119 OFFCURVE",
"211 124 OFFCURVE",
"212 131 CURVE",
"212 132 OFFCURVE",
"212 134 OFFCURVE",
"210 134 CURVE",
"231 145 OFFCURVE",
"307 275 OFFCURVE",
"327 285 CURVE",
"342 305 LINE",
"347 285 LINE",
"351 281 OFFCURVE",
"354 275 OFFCURVE",
"357 270 CURVE",
"363 269 OFFCURVE",
"362 259 OFFCURVE",
"362 255 CURVE SMOOTH",
"362 245 OFFCURVE",
"372 229 OFFCURVE",
"377 219 CURVE SMOOTH",
"383 206 OFFCURVE",
"444 63 OFFCURVE",
"444 50 CURVE",
"447 43 OFFCURVE",
"449 35 OFFCURVE",
"449 28 CURVE",
"455 17 OFFCURVE",
"464 2 OFFCURVE",
"464 -11 CURVE",
"467 -17 OFFCURVE",
"475 -31 OFFCURVE",
"469 -37 CURVE",
"470 -41 OFFCURVE",
"474 -54 OFFCURVE",
"479 -54 CURVE",
"485 -49 OFFCURVE",
"505 -61 OFFCURVE",
"500 -67 CURVE"
);
}
);
width = 524;
}
);
},
{
color = 10;
glyphname = "Che-cy.ss01";
lastChange = "2017-12-14 19:20:52 +0000";
layers = (
{
layerId = UUID0;
paths = (
{
closed = 1;
nodes = (
"250 662 OFFCURVE",
"269 654 OFFCURVE",
"277 640 CURVE",
"281 634 OFFCURVE",
"281 627 OFFCURVE",
"279 620 CURVE",
"269 590 OFFCURVE",
"252 561 OFFCURVE",
"239 532 CURVE SMOOTH",
"227 507 OFFCURVE",
"218 478 OFFCURVE",
"208 452 CURVE SMOOTH",
"197 421 OFFCURVE",
"189 386 OFFCURVE",
"175 356 CURVE",
"178 330 OFFCURVE",
"161 293 OFFCURVE",
"183 271 CURVE",
"224 284 OFFCURVE",
"250 307 OFFCURVE",
"282 334 CURVE SMOOTH",
"311 358 OFFCURVE",
"326 389 OFFCURVE",
"350 417 CURVE SMOOTH",
"364 433 OFFCURVE",
"380 449 OFFCURVE",
"388 470 CURVE",
"404 480 OFFCURVE",
"423 517 OFFCURVE",
"431 534 CURVE",
"445 540 OFFCURVE",
"459 575 OFFCURVE",
"470 588 CURVE",
"473 592 OFFCURVE",
"478 594 OFFCURVE",
"482 597 CURVE",
"499 589 OFFCURVE",
"527 584 OFFCURVE",
"533 563 CURVE",
"534 560 OFFCURVE",
"521 548 OFFCURVE",
"519 543 CURVE SMOOTH",
"516 536 OFFCURVE",
"515 528 OFFCURVE",
"512 521 CURVE SMOOTH",
"502 496 OFFCURVE",
"491 472 OFFCURVE",
"480 447 CURVE SMOOTH",
"477 440 OFFCURVE",
"469 431 OFFCURVE",
"467 424 CURVE SMOOTH",
"458 393 OFFCURVE",
"442 365 OFFCURVE",
"430 335 CURVE SMOOTH",
"415 295 OFFCURVE",
"400 256 OFFCURVE",
"384 216 CURVE SMOOTH",
"374 191 OFFCURVE",
"371 160 OFFCURVE",
"359 137 CURVE SMOOTH",
"346 111 OFFCURVE",
"330 45 OFFCURVE",
"324 15 CURVE",
"323 8 OFFCURVE",
"313 -15 OFFCURVE",
"317 -20 CURVE",
"314 -24 OFFCURVE",
"312 -34 OFFCURVE",
"311 -35 CURVE",
"276 -42 OFFCURVE",
"270 -14 OFFCURVE",
"252 14 CURVE",
"262 12 OFFCURVE",
"270 32 OFFCURVE",
"266 40 CURVE",
"274 62 OFFCURVE",
"280 83 OFFCURVE",
"285 105 CURVE SMOOTH",
"290 127 OFFCURVE",
"301 149 OFFCURVE",
"307 171 CURVE SMOOTH",
"313 193 OFFCURVE",
"320 215 OFFCURVE",
"328 236 CURVE SMOOTH",
"340 268 OFFCURVE",
"353 299 OFFCURVE",
"364 331 CURVE",
"360 330 LINE",
"340 313 OFFCURVE",
"324 291 OFFCURVE",
"306 272 CURVE SMOOTH",
"299 265 OFFCURVE",
"285 250 OFFCURVE",
"275 248 CURVE",
"271 247 OFFCURVE",
"268 244 OFFCURVE",
"265 241 CURVE",
"249 227 OFFCURVE",
"234 221 OFFCURVE",
"214 217 CURVE",
"206 215 OFFCURVE",
"199 211 OFFCURVE",
"191 213 CURVE SMOOTH",
"163 221 OFFCURVE",
"147 229 OFFCURVE",
"130 253 CURVE SMOOTH",
"116 272 OFFCURVE",
"100 296 OFFCURVE",
"104 321 CURVE SMOOTH",
"106 334 OFFCURVE",
"103 349 OFFCURVE",
"110 360 CURVE",
"111 382 OFFCURVE",
"175 560 OFFCURVE",
"188 578 CURVE",
"184 586 OFFCURVE",
"189 589 OFFCURVE",
"194 593 CURVE SMOOTH",
"200 598 OFFCURVE",
"195 604 OFFCURVE",
"199 609 CURVE",
"212 624 OFFCURVE",
"217 663 OFFCURVE",
"236 670 CURVE"
);
}
);
width = 524;
}
);
leftKerningGroup = uni0427;
rightKerningGroup = uni0427;
},
{
color = 10;
glyphname = "Tse-cy.ss01";
lastChange = "2017-12-14 19:20:52 +0000";
layers = (
{
layerId = UUID0;
paths = (
{
closed = 1;
nodes = (
"384 5 OFFCURVE",
"325 -3 OFFCURVE",
"320 -3 CURVE",
"316 -6 OFFCURVE",
"237 -8 OFFCURVE",
"224 -10 CURVE SMOOTH",
"208 -12 OFFCURVE",
"189 -8 OFFCURVE",
"173 -8 CURVE SMOOTH",
"158 -8 OFFCURVE",
"125 1 OFFCURVE",
"117 0 CURVE",
"115 2 OFFCURVE",
"80 27 OFFCURVE",
"77 27 CURVE",
"64 47 OFFCURVE",
"53 62 OFFCURVE",
"45 85 CURVE SMOOTH",
"39 103 OFFCURVE",
"39 106 OFFCURVE",
"44 124 CURVE SMOOTH",
"47 136 OFFCURVE",
"48 150 OFFCURVE",
"51 162 CURVE",
"56 187 OFFCURVE",
"64 210 OFFCURVE",
"73 234 CURVE SMOOTH",
"88 272 OFFCURVE",
"96 312 OFFCURVE",
"112 350 CURVE SMOOTH",
"138 412 OFFCURVE",
"163 474 OFFCURVE",
"189 536 CURVE SMOOTH",
"198 558 OFFCURVE",
"240 643 OFFCURVE",
"240 659 CURVE SMOOTH",
"240 669 OFFCURVE",
"251 674 OFFCURVE",
"259 672 CURVE",
"277 669 OFFCURVE",
"291 652 OFFCURVE",
"303 640 CURVE",
"305 628 OFFCURVE",
"302 617 OFFCURVE",
"295 607 CURVE SMOOTH",
"281 587 OFFCURVE",
"276 566 OFFCURVE",
"267 544 CURVE SMOOTH",
"260 527 OFFCURVE",
"248 514 OFFCURVE",
"246 495 CURVE",
"237 484 OFFCURVE",
"234 470 OFFCURVE",
"229 457 CURVE SMOOTH",
"185 343 OFFCURVE",
"136 232 OFFCURVE",
"111 112 CURVE SMOOTH",
"108 96 OFFCURVE",
"109 61 OFFCURVE",
"129 56 CURVE SMOOTH",
"168 46 OFFCURVE",
"205 51 OFFCURVE",
"245 50 CURVE SMOOTH",
"258 50 OFFCURVE",
"269 57 OFFCURVE",
"282 56 CURVE SMOOTH",
"297 55 OFFCURVE",
"304 54 OFFCURVE",
"318 60 CURVE SMOOTH",
"325 63 OFFCURVE",
"370 61 OFFCURVE",
"378 61 CURVE",
"390 96 OFFCURVE",
"395 133 OFFCURVE",
"408 170 CURVE SMOOTH",
"414 186 OFFCURVE",
"415 203 OFFCURVE",
"422 218 CURVE",
"431 240 OFFCURVE",
"435 264 OFFCURVE",
"445 286 CURVE SMOOTH",
"456 310 OFFCURVE",
"464 335 OFFCURVE",
"474 359 CURVE SMOOTH",
"502 427 OFFCURVE",
"530 494 OFFCURVE",
"561 561 CURVE SMOOTH",
"570 580 OFFCURVE",
"577 602 OFFCURVE",
"587 620 CURVE SMOOTH",
"592 629 OFFCURVE",
"596 647 OFFCURVE",
"608 648 CURVE SMOOTH",
"620 649 OFFCURVE",
"651 632 OFFCURVE",
"655 621 CURVE SMOOTH",
"658 612 OFFCURVE",
"651 588 OFFCURVE",
"647 580 CURVE SMOOTH",
"631 550 OFFCURVE",
"618 520 OFFCURVE",
"604 489 CURVE SMOOTH",
"570 416 OFFCURVE",
"530 338 OFFCURVE",
"509 260 CURVE SMOOTH",
"499 224 OFFCURVE",
"477 188 OFFCURVE",
"474 151 CURVE",
"461 126 OFFCURVE",
"461 97 OFFCURVE",
"451 71 CURVE",
"460 66 OFFCURVE",
"467 67 OFFCURVE",
"477 68 CURVE SMOOTH",
"492 69 OFFCURVE",
"508 63 OFFCURVE",
"522 58 CURVE SMOOTH",
"594 32 OFFCURVE",
"546 -70 OFFCURVE",
"521 -113 CURVE SMOOTH",
"518 -118 OFFCURVE",
"515 -125 OFFCURVE",
"514 -131 CURVE SMOOTH",
"512 -146 OFFCURVE",
"488 -185 OFFCURVE",
"481 -208 CURVE",
"470 -211 OFFCURVE",
"458 -210 OFFCURVE",
"447 -209 CURVE",
"421 -189 LINE",
"416 -177 OFFCURVE",
"420 -166 OFFCURVE",
"426 -155 CURVE",
"438 -135 OFFCURVE",
"436 -114 OFFCURVE",
"447 -99 CURVE SMOOTH",
"464 -75 OFFCURVE",
"494 -19 OFFCURVE",
"487 9 CURVE",
"464 9 OFFCURVE",
"440 9 OFFCURVE",
"417 8 CURVE",
"407 7 OFFCURVE",
"397 2 OFFCURVE",
"387 7 CURVE"
);
}
);
width = 650;
}
);
},
{
color = 10;
glyphname = "Sha-cy.ss01";
lastChange = "2017-12-14 19:20:52 +0000";
layers = (
{
layerId = UUID0;
paths = (
{
closed = 1;
nodes = (
"320 97 OFFCURVE",
"321 111 OFFCURVE",
"324 124 CURVE SMOOTH",
"332 157 OFFCURVE",
"341 188 OFFCURVE",
"356 218 CURVE SMOOTH",
"363 232 OFFCURVE",
"366 244 OFFCURVE",
"369 259 CURVE SMOOTH",
"372 276 OFFCURVE",
"394 329 OFFCURVE",
"402 346 CURVE SMOOTH",
"432 409 OFFCURVE",
"447 479 OFFCURVE",
"475 543 CURVE SMOOTH",
"484 564 OFFCURVE",
"486 584 OFFCURVE",
"498 604 CURVE",
"506 602 OFFCURVE",
"514 601 OFFCURVE",
"522 599 CURVE",
"530 583 OFFCURVE",
"541 592 OFFCURVE",
"554 556 CURVE",
"545 546 OFFCURVE",
"460 320 OFFCURVE",
"453 297 CURVE SMOOTH",
"447 278 OFFCURVE",
"441 260 OFFCURVE",
"432 242 CURVE SMOOTH",
"425 229 OFFCURVE",
"424 215 OFFCURVE",
"417 202 CURVE SMOOTH",
"406 182 OFFCURVE",
"392 126 OFFCURVE",
"392 104 CURVE",
"396 100 OFFCURVE",
"401 100 OFFCURVE",
"406 102 CURVE SMOOTH",
"423 109 OFFCURVE",
"441 110 OFFCURVE",
"458 116 CURVE SMOOTH",
"486 126 OFFCURVE",
"573 141 OFFCURVE",
"603 141 CURVE SMOOTH",
"609 141 OFFCURVE",
"614 145 OFFCURVE",
"615 151 CURVE SMOOTH",
"623 200 OFFCURVE",
"639 246 OFFCURVE",
"657 292 CURVE SMOOTH",
"675 339 OFFCURVE",
"695 385 OFFCURVE",
"715 431 CURVE SMOOTH",
"731 469 OFFCURVE",
"744 509 OFFCURVE",
"762 547 CURVE SMOOTH",
"773 570 OFFCURVE",
"782 594 OFFCURVE",
"791 618 CURVE",
"794 627 OFFCURVE",
"794 637 OFFCURVE",
"798 646 CURVE",
"822 654 OFFCURVE",
"864 633 OFFCURVE",
"858 605 CURVE SMOOTH",
"855 590 OFFCURVE",
"828 532 OFFCURVE",
"819 517 CURVE SMOOTH",
"812 505 OFFCURVE",
"808 491 OFFCURVE",
"803 478 CURVE",
"782 430 OFFCURVE",
"743 347 OFFCURVE",
"731 299 CURVE SMOOTH",
"727 282 OFFCURVE",
"718 267 OFFCURVE",
"712 251 CURVE SMOOTH",
"700 217 OFFCURVE",
"688 183 OFFCURVE",
"682 147 CURVE",
"687 139 OFFCURVE",
"697 139 OFFCURVE",
"704 135 CURVE SMOOTH",
"724 124 OFFCURVE",
"724 93 OFFCURVE",
"681 93 CURVE",
"675 86 OFFCURVE",
"669 79 OFFCURVE",
"662 72 CURVE",
"633 72 LINE",
"625 80 OFFCURVE",
"624 90 OFFCURVE",
"609 88 CURVE SMOOTH",
"564 81 OFFCURVE",
"517 75 OFFCURVE",
"473 61 CURVE SMOOTH",
"464 58 OFFCURVE",
"454 61 OFFCURVE",
"445 57 CURVE",
"435 53 OFFCURVE",
"376 34 OFFCURVE",
"368 35 CURVE SMOOTH",
"361 36 OFFCURVE",
"278 9 OFFCURVE",
"257 7 CURVE SMOOTH",
"237 5 OFFCURVE",
"218 -2 OFFCURVE",
"199 -6 CURVE SMOOTH",
"166 -13 OFFCURVE",
"121 -11 OFFCURVE",
"90 3 CURVE SMOOTH",
"64 14 OFFCURVE",
"34 46 OFFCURVE",
"30 75 CURVE SMOOTH",
"28 91 OFFCURVE",
"31 111 OFFCURVE",
"31 127 CURVE",
"33 130 OFFCURVE",
"46 185 OFFCURVE",
"48 193 CURVE SMOOTH",
"52 208 OFFCURVE",
"57 221 OFFCURVE",
"63 235 CURVE SMOOTH",
"69 248 OFFCURVE",
"70 263 OFFCURVE",
"75 276 CURVE SMOOTH",
"87 306 OFFCURVE",
"97 337 OFFCURVE",
"110 366 CURVE SMOOTH",
"117 382 OFFCURVE",
"127 401 OFFCURVE",
"130 418 CURVE SMOOTH",
"131 425 OFFCURVE",
"208 585 OFFCURVE",
"219 610 CURVE SMOOTH",
"224 621 OFFCURVE",
"227 633 OFFCURVE",
"238 639 CURVE",
"258 637 OFFCURVE",
"264 617 OFFCURVE",
"280 613 CURVE",
"285 597 OFFCURVE",
"283 583 OFFCURVE",
"275 568 CURVE SMOOTH",
"240 500 OFFCURVE",
"209 432 OFFCURVE",
"178 362 CURVE SMOOTH",
"172 348 OFFCURVE",
"165 334 OFFCURVE",
"160 320 CURVE SMOOTH",
"150 290 OFFCURVE",
"139 261 OFFCURVE",
"127 232 CURVE SMOOTH",
"118 211 OFFCURVE",
"117 188 OFFCURVE",
"108 167 CURVE SMOOTH",
"98 144 OFFCURVE",
"89 97 OFFCURVE",
"93 72 CURVE SMOOTH",
"99 34 OFFCURVE",
"161 48 OFFCURVE",
"171 44 CURVE",
"178 49 OFFCURVE",
"185 47 OFFCURVE",
"193 48 CURVE",
"198 48 OFFCURVE",
"203 49 OFFCURVE",
"207 51 CURVE",
"249 66 OFFCURVE",
"281 66 OFFCURVE",
"326 85 CURVE"
);
}
);
width = 808;
}
);
},
{
color = 10;
glyphname = "Shcha-cy.ss01";
lastChange = "2017-12-14 19:20:52 +0000";
layers = (
{
layerId = UUID0;
paths = (
{
closed = 1;
nodes = (
"966 653 LINE",
"967 648 OFFCURVE",
"969 642 OFFCURVE",
"971 637 CURVE",
"970 632 LINE",
"943 603 OFFCURVE",
"743 146 OFFCURVE",
"730 93 CURVE",
"735 88 OFFCURVE",
"743 88 OFFCURVE",
"750 90 CURVE",
"771 97 OFFCURVE",
"834 98 OFFCURVE",
"848 104 CURVE",
"862 103 OFFCURVE",
"875 97 OFFCURVE",
"888 92 CURVE",
"898 80 OFFCURVE",
"899 70 OFFCURVE",
"893 56 CURVE SMOOTH",
"888 45 OFFCURVE",
"889 32 OFFCURVE",
"883 21 CURVE SMOOTH",
"841 -57 OFFCURVE",
"818 -144 OFFCURVE",
"767 -217 CURVE",
"756 -257 OFFCURVE",
"727 -234 OFFCURVE",
"704 -223 CURVE",
"699 -212 OFFCURVE",
"700 -202 OFFCURVE",
"706 -191 CURVE SMOOTH",
"742 -128 OFFCURVE",
"779 -63 OFFCURVE",
"800 6 CURVE",
"802 14 OFFCURVE",
"815 34 OFFCURVE",
"809 40 CURVE SMOOTH",
"805 44 OFFCURVE",
"794 42 OFFCURVE",
"789 42 CURVE SMOOTH",
"778 42 OFFCURVE",
"774 39 OFFCURVE",
"764 37 CURVE",
"743 32 OFFCURVE",
"708 31 OFFCURVE",
"686 30 CURVE",
"678 30 OFFCURVE",
"670 32 OFFCURVE",
"664 26 CURVE",
"662 26 OFFCURVE",
"660 25 OFFCURVE",
"658 25 CURVE",
"639 24 OFFCURVE",
"555 17 OFFCURVE",
"542 9 CURVE",
"520 5 OFFCURVE",
"493 2 OFFCURVE",
"471 2 CURVE",
"409 -8 LINE",
"403 -10 OFFCURVE",
"398 -9 OFFCURVE",
"392 -9 CURVE SMOOTH",
"339 -9 OFFCURVE",
"241 -17 OFFCURVE",
"197 13 CURVE SMOOTH",
"177 27 OFFCURVE",
"156 41 OFFCURVE",
"143 62 CURVE SMOOTH",
"132 81 OFFCURVE",
"122 118 OFFCURVE",
"126 139 CURVE SMOOTH",
"132 171 OFFCURVE",
"141 204 OFFCURVE",
"152 235 CURVE SMOOTH",
"165 274 OFFCURVE",
"182 312 OFFCURVE",
"198 350 CURVE SMOOTH",
"207 372 OFFCURVE",
"220 394 OFFCURVE",
"225 418 CURVE",
"241 441 OFFCURVE",
"246 470 OFFCURVE",
"259 494 CURVE SMOOTH",
"282 535 OFFCURVE",
"302 577 OFFCURVE",
"323 619 CURVE SMOOTH",
"330 632 OFFCURVE",
"334 635 OFFCURVE",
"346 644 CURVE",
"372 629 OFFCURVE",
"401 624 OFFCURVE",
"385 585 CURVE SMOOTH",
"378 568 OFFCURVE",
"369 551 OFFCURVE",
"359 535 CURVE SMOOTH",
"335 495 OFFCURVE",
"315 451 OFFCURVE",
"295 409 CURVE SMOOTH",
"269 356 OFFCURVE",
"251 299 OFFCURVE",
"225 246 CURVE",
"224 227 OFFCURVE",
"209 211 OFFCURVE",
"211 191 CURVE",
"191 159 OFFCURVE",
"194 118 OFFCURVE",
"194 83 CURVE",
"197 80 OFFCURVE",
"199 76 OFFCURVE",
"202 72 CURVE SMOOTH",
"232 32 OFFCURVE",
"341 44 OFFCURVE",
"386 42 CURVE",
"393 59 OFFCURVE",
"396 77 OFFCURVE",
"401 95 CURVE SMOOTH",
"419 161 OFFCURVE",
"442 228 OFFCURVE",
"468 292 CURVE SMOOTH",
"477 313 OFFCURVE",
"489 334 OFFCURVE",
"495 356 CURVE SMOOTH",
"506 395 OFFCURVE",
"548 503 OFFCURVE",
"568 536 CURVE",
"569 542 OFFCURVE",
"593 611 OFFCURVE",
"597 618 CURVE",
"603 631 OFFCURVE",
"606 635 OFFCURVE",
"621 633 CURVE SMOOTH",
"636 631 OFFCURVE",
"654 618 OFFCURVE",
"660 604 CURVE",
"663 598 OFFCURVE",
"662 594 OFFCURVE",
"660 587 CURVE",
"640 530 OFFCURVE",
"612 475 OFFCURVE",
"589 419 CURVE SMOOTH",
"561 351 OFFCURVE",
"534 283 OFFCURVE",
"509 214 CURVE SMOOTH",
"501 191 OFFCURVE",
"487 168 OFFCURVE",
"483 144 CURVE SMOOTH",
"481 133 OFFCURVE",
"463 65 OFFCURVE",
"459 56 CURVE",
"495 49 OFFCURVE",
"608 78 OFFCURVE",
"657 78 CURVE",
"661 83 OFFCURVE",
"658 86 OFFCURVE",
"658 92 CURVE SMOOTH",
"658 98 OFFCURVE",
"661 100 OFFCURVE",
"663 105 CURVE",
"673 135 OFFCURVE",
"684 171 OFFCURVE",
"701 198 CURVE SMOOTH",
"703 201 OFFCURVE",
"705 204 OFFCURVE",
"706 208 CURVE",
"712 243 OFFCURVE",
"765 348 OFFCURVE",
"783 387 CURVE SMOOTH",
"810 448 OFFCURVE",
"833 511 OFFCURVE",
"864 571 CURVE SMOOTH",
"878 599 OFFCURVE",
"889 628 OFFCURVE",
"901 656 CURVE",
"902 678 OFFCURVE",
"914 673 OFFCURVE",
"933 677 CURVE"
);
}
);
width = 976;
}
);
},
{
color = 10;
glyphname = "Softsign-cy.ss01";
lastChange = "2017-12-14 19:20:52 +0000";
layers = (
{
layerId = UUID0;
paths = (
{
closed = 1;
nodes = (
"121 42 OFFCURVE",
"131 35 OFFCURVE",
"157 43 CURVE SMOOTH",
"213 61 OFFCURVE",
"278 114 OFFCURVE",
"309 163 CURVE SMOOTH",
"321 182 OFFCURVE",
"332 204 OFFCURVE",
"336 226 CURVE SMOOTH",
"338 237 OFFCURVE",
"335 249 OFFCURVE",
"340 259 CURVE",
"332 278 OFFCURVE",
"339 298 OFFCURVE",
"327 320 CURVE SMOOTH",
"319 335 OFFCURVE",
"301 362 OFFCURVE",
"287 371 CURVE SMOOTH",
"267 383 OFFCURVE",
"223 411 OFFCURVE",
"201 405 CURVE",
"170 320 OFFCURVE",
"136 231 OFFCURVE",
"115 142 CURVE SMOOTH",
"108 114 OFFCURVE",
"102 91 OFFCURVE",
"100 62 CURVE",
"100 58 OFFCURVE",
"98 55 OFFCURVE",
"97 52 CURVE"
);
},
{
closed = 1;
nodes = (
"124 364 OFFCURVE",
"145 432 OFFCURVE",
"139 448 CURVE",
"158 462 OFFCURVE",
"160 481 OFFCURVE",
"169 501 CURVE SMOOTH",
"182 530 OFFCURVE",
"189 563 OFFCURVE",
"203 591 CURVE SMOOTH",
"225 634 OFFCURVE",
"245 678 OFFCURVE",
"262 723 CURVE SMOOTH",
"272 749 OFFCURVE",
"315 736 OFFCURVE",
"324 715 CURVE",
"330 703 OFFCURVE",
"323 683 OFFCURVE",
"317 672 CURVE SMOOTH",
"280 605 OFFCURVE",
"243 529 OFFCURVE",
"221 456 CURVE",
"230 445 OFFCURVE",
"244 442 OFFCURVE",
"256 437 CURVE SMOOTH",
"318 412 OFFCURVE",
"372 361 OFFCURVE",
"392 296 CURVE SMOOTH",
"432 168 OFFCURVE",
"318 56 OFFCURVE",
"217 -3 CURVE SMOOTH",
"205 -10 OFFCURVE",
"170 -21 OFFCURVE",
"155 -20 CURVE SMOOTH",
"123 -17 OFFCURVE",
"100 -15 OFFCURVE",
"69 -2 CURVE",
"63 1 OFFCURVE",
"33 26 OFFCURVE",
"31 32 CURVE SMOOTH",
"15 78 OFFCURVE",
"99 292 OFFCURVE",
"113 351 CURVE"
);
}
);
width = 446;
}
);
rightKerningGroup = uni042C;
},
{
color = 10;
glyphname = "Iu-cy.ss01";
lastChange = "2017-12-14 19:20:52 +0000";
layers = (
{
layerId = UUID0;
paths = (
{
closed = 1;
nodes = (
"629 565 OFFCURVE",
"599 525 OFFCURVE",
"569 454 CURVE SMOOTH",
"534 372 OFFCURVE",
"509 290 OFFCURVE",
"495 202 CURVE SMOOTH",
"493 191 OFFCURVE",
"489 180 OFFCURVE",
"489 168 CURVE SMOOTH",
"489 85 LINE SMOOTH",
"489 63 OFFCURVE",
"503 31 OFFCURVE",
"531 41 CURVE SMOOTH",
"566 54 OFFCURVE",
"576 71 OFFCURVE",
"603 92 CURVE SMOOTH",
"663 139 OFFCURVE",
"726 284 OFFCURVE",
"745 357 CURVE SMOOTH",
"753 388 OFFCURVE",
"755 421 OFFCURVE",
"764 451 CURVE",
"759 461 OFFCURVE",
"767 471 OFFCURVE",
"766 481 CURVE SMOOTH",
"761 537 OFFCURVE",
"773 574 OFFCURVE",
"723 614 CURVE",
"715 611 OFFCURVE",
"706 609 OFFCURVE",
"698 606 CURVE",
"684 617 LINE"
);
},
{
closed = 1;
nodes = (
"453 413 OFFCURVE",
"430 418 OFFCURVE",
"409 409 CURVE",
"381 408 OFFCURVE",
"358 403 OFFCURVE",
"331 397 CURVE SMOOTH",
"318 394 OFFCURVE",
"302 379 OFFCURVE",
"293 379 CURVE",
"279 368 OFFCURVE",
"266 362 OFFCURVE",
"264 342 CURVE",
"264 338 OFFCURVE",
"233 231 OFFCURVE",
"229 219 CURVE",
"218 181 OFFCURVE",
"214 122 OFFCURVE",
"202 81 CURVE",
"202 80 OFFCURVE",
"196 -6 OFFCURVE",
"196 -11 CURVE",
"186 -30 OFFCURVE",
"168 -33 OFFCURVE",
"149 -40 CURVE",
"137 -35 OFFCURVE",
"115 -26 OFFCURVE",
"110 -13 CURVE",
"107 -4 OFFCURVE",
"126 73 OFFCURVE",
"131 85 CURVE",
"132 126 OFFCURVE",
"158 280 OFFCURVE",
"173 317 CURVE SMOOTH",
"183 343 OFFCURVE",
"203 367 OFFCURVE",
"212 393 CURVE SMOOTH",
"221 418 OFFCURVE",
"230 449 OFFCURVE",
"237 475 CURVE SMOOTH",
"254 538 OFFCURVE",
"278 599 OFFCURVE",
"300 660 CURVE SMOOTH",
"303 668 OFFCURVE",
"312 704 OFFCURVE",
"313 706 CURVE",
"314 711 OFFCURVE",
"317 715 OFFCURVE",
"319 719 CURVE",
"330 720 OFFCURVE",
"350 721 OFFCURVE",
"360 719 CURVE",
"376 704 OFFCURVE",
"385 691 OFFCURVE",
"377 669 CURVE SMOOTH",
"355 607 OFFCURVE",
"332 544 OFFCURVE",
"308 482 CURVE SMOOTH",
"304 471 OFFCURVE",
"298 464 OFFCURVE",
"300 451 CURVE",
"350 464 OFFCURVE",
"385 467 OFFCURVE",
"436 471 CURVE SMOOTH",
"458 473 OFFCURVE",
"475 466 OFFCURVE",
"497 466 CURVE",
"539 560 OFFCURVE",
"586 643 OFFCURVE",
"680 694 CURVE SMOOTH",
"698 704 OFFCURVE",
"713 693 OFFCURVE",
"729 685 CURVE",
"731 677 OFFCURVE",
"736 665 OFFCURVE",
"733 657 CURVE",
"776 642 LINE",
"780 635 OFFCURVE",
"784 629 OFFCURVE",
"790 624 CURVE",
"823 593 OFFCURVE",
"840 492 OFFCURVE",
"825 451 CURVE",
"823 447 OFFCURVE",
"823 442 OFFCURVE",
"823 437 CURVE",
"822 423 OFFCURVE",
"817 372 OFFCURVE",
"812 361 CURVE",
"812 342 OFFCURVE",
"803 324 OFFCURVE",
"798 306 CURVE SMOOTH",
"767 198 OFFCURVE",
"676 5 OFFCURVE",
"552 -13 CURVE",
"542 -20 OFFCURVE",
"530 -14 OFFCURVE",
"519 -13 CURVE",
"476 -11 OFFCURVE",
"425 16 OFFCURVE",
"420 63 CURVE",
"416 91 LINE SMOOTH",
"414 109 OFFCURVE",
"411 129 OFFCURVE",
"418 147 CURVE",
"411 156 OFFCURVE",
"420 165 OFFCURVE",
"420 174 CURVE SMOOTH",
"420 238 OFFCURVE",
"444 300 OFFCURVE",
"457 362 CURVE SMOOTH",
"461 380 OFFCURVE",
"470 396 OFFCURVE",
"475 414 CURVE"
);
}
);
width = 728;
}
);
},
{
color = 10;
glyphname = "Ia-cy.ss01";
lastChange = "2017-12-14 19:20:52 +0000";
layers = (
{
layerId = UUID0;
paths = (
{
closed = 1;
nodes = (
"435 610 OFFCURVE",
"383 589 OFFCURVE",
"345 569 CURVE SMOOTH",
"290 540 OFFCURVE",
"267 506 OFFCURVE",
"246 449 CURVE SMOOTH",
"241 434 OFFCURVE",
"242 415 OFFCURVE",
"238 405 CURVE",
"223 372 OFFCURVE",
"258 320 OFFCURVE",
"291 311 CURVE SMOOTH",
"309 306 OFFCURVE",
"325 315 OFFCURVE",
"340 324 CURVE",
"354 316 OFFCURVE",
"368 308 OFFCURVE",
"382 299 CURVE",
"385 301 LINE",
"411 379 OFFCURVE",
"430 458 OFFCURVE",
"457 536 CURVE SMOOTH",
"465 559 OFFCURVE",
"467 584 OFFCURVE",
"478 607 CURVE"
);
},
{
closed = 1;
nodes = (
"38 -10 OFFCURVE",
"-1 24 OFFCURVE",
"33 31 CURVE SMOOTH",
"124 49 OFFCURVE",
"228 180 OFFCURVE",
"279 253 CURVE",
"279 258 LINE",
"227 284 OFFCURVE",
"185 316 OFFCURVE",
"176 377 CURVE SMOOTH",
"174 388 OFFCURVE",
"171 396 OFFCURVE",
"171 408 CURVE",
"180 420 OFFCURVE",
"174 436 OFFCURVE",
"178 450 CURVE SMOOTH",
"185 472 OFFCURVE",
"193 493 OFFCURVE",
"200 514 CURVE SMOOTH",
"224 585 OFFCURVE",
"304 626 OFFCURVE",
"370 650 CURVE SMOOTH",
"388 657 OFFCURVE",
"417 668 OFFCURVE",
"436 666 CURVE SMOOTH",
"449 665 OFFCURVE",
"463 673 OFFCURVE",
"475 668 CURVE",
"498 683 OFFCURVE",
"573 647 OFFCURVE",
"559 619 CURVE SMOOTH",
"540 581 OFFCURVE",
"536 544 OFFCURVE",
"520 507 CURVE SMOOTH",
"493 443 OFFCURVE",
"424 209 OFFCURVE",
"418 138 CURVE",
"416 134 OFFCURVE",
"397 23 OFFCURVE",
"395 10 CURVE SMOOTH",
"393 -3 OFFCURVE",
"369 -13 OFFCURVE",
"358 -7 CURVE",
"346 -1 OFFCURVE",
"336 7 OFFCURVE",
"327 17 CURVE",
"332 39 OFFCURVE",
"334 63 OFFCURVE",
"343 84 CURVE",
"343 125 OFFCURVE",
"356 145 OFFCURVE",
"360 179 CURVE SMOOTH",
"362 200 OFFCURVE",
"373 227 OFFCURVE",
"372 245 CURVE",
"369 249 LINE",
"364 248 LINE",
"352 226 OFFCURVE",
"332 200 OFFCURVE",
"316 181 CURVE SMOOTH",
"268 124 OFFCURVE",
"132 -33 OFFCURVE",
"46 -19 CURVE"
);
}
);
width = 548;
}
);
},
{
color = 11;
glyphname = "A-cy.ss02";
lastChange = "2017-12-14 19:20:59 +0000";
layers = (
{
layerId = UUID0;
paths = (
{
closed = 1;
nodes = (
"469 -82 OFFCURVE",
"479 68 OFFCURVE",
"480 87 CURVE SMOOTH",
"483 138 OFFCURVE",
"488 187 OFFCURVE",
"495 237 CURVE SMOOTH",
"507 325 OFFCURVE",
"523 473 OFFCURVE",
"520 560 CURVE SMOOTH",
"518 614 OFFCURVE",
"490 667 OFFCURVE",
"431 672 CURVE SMOOTH",
"417 673 OFFCURVE",
"405 669 OFFCURVE",
"391 668 CURVE",
"382 667 OFFCURVE",
"367 669 OFFCURVE",
"365 657 CURVE",
"364 649 OFFCURVE",
"363 638 OFFCURVE",
"352 638 CURVE",
"352 629 OFFCURVE",
"290 486 OFFCURVE",
"287 483 CURVE",
"284 469 OFFCURVE",
"274 453 OFFCURVE",
"274 439 CURVE",
"271 436 OFFCURVE",
"260 422 OFFCURVE",
"259 418 CURVE",
"258 417 OFFCURVE",
"259 416 OFFCURVE",
"261 416 CURVE",
"258 411 OFFCURVE",
"248 391 OFFCURVE",
"248 384 CURVE SMOOTH",
"248 370 OFFCURVE",
"215 327 OFFCURVE",
"215 297 CURVE",
"209 285 OFFCURVE",
"203 263 OFFCURVE",
"196 254 CURVE",
"196 243 OFFCURVE",
"190 237 OFFCURVE",
"189 229 CURVE",
"170 192 LINE",
"168 157 OFFCURVE",
"124 109 OFFCURVE",
"124 74 CURVE",
"116 59 OFFCURVE",
"106 45 OFFCURVE",
"98 31 CURVE",
"95 25 OFFCURVE",
"65 -37 OFFCURVE",
"84 -37 CURVE",
"137 -82 OFFCURVE",
"176 57 OFFCURVE",
"189 86 CURVE SMOOTH",
"201 113 OFFCURVE",
"213 138 OFFCURVE",
"222 166 CURVE SMOOTH",
"230 193 OFFCURVE",
"286 190 OFFCURVE",
"307 190 CURVE SMOOTH",
"329 190 OFFCURVE",
"351 189 OFFCURVE",
"373 190 CURVE",
"382 191 OFFCURVE",
"392 194 OFFCURVE",
"400 194 CURVE SMOOTH",
"425 194 LINE",
"418 144 OFFCURVE",
"419 94 OFFCURVE",
"411 44 CURVE SMOOTH",
"409 31 OFFCURVE",
"385 -90 OFFCURVE",
"414 -90 CURVE",
"420 -94 OFFCURVE",
"464 -115 OFFCURVE",
"452 -91 CURVE"
);
},
{
closed = 1;
nodes = (
"310 378 OFFCURVE",
"325 409 OFFCURVE",
"338 439 CURVE SMOOTH",
"352 472 OFFCURVE",
"364 505 OFFCURVE",
"378 538 CURVE SMOOTH",
"385 556 OFFCURVE",
"410 606 OFFCURVE",
"433 606 CURVE SMOOTH",
"443 606 OFFCURVE",
"453 596 OFFCURVE",
"453 586 CURVE",
"462 564 OFFCURVE",
"440 346 OFFCURVE",
"440 299 CURVE SMOOTH",
"440 256 OFFCURVE",
"425 264 OFFCURVE",
"389 257 CURVE SMOOTH",
"365 253 OFFCURVE",
"344 251 OFFCURVE",
"320 252 CURVE",
"277 238 OFFCURVE",
"245 242 OFFCURVE",
"274 296 CURVE SMOOTH",
"281 309 OFFCURVE",
"291 337 OFFCURVE",
"300 346 CURVE"
);
}
);
width = 502;
}
);
},
{
color = 11;
glyphname = "Be-cy.ss02";
lastChange = "2017-12-14 19:20:59 +0000";
layers = (
{
layerId = UUID0;
paths = (
{
closed = 1;
nodes = (
"516 693 LINE",
"536 708 OFFCURVE",
"588 687 OFFCURVE",
"596 662 CURVE",
"596 637 OFFCURVE",
"593 634 OFFCURVE",
"568 634 CURVE SMOOTH",
"522 634 OFFCURVE",
"477 633 OFFCURVE",
"431 628 CURVE SMOOTH",
"406 625 OFFCURVE",
"396 614 OFFCURVE",
"358 617 CURVE",
"339 604 OFFCURVE",
"303 530 OFFCURVE",
"293 507 CURVE SMOOTH",
"283 484 OFFCURVE",
"272 460 OFFCURVE",
"261 437 CURVE SMOOTH",
"226 362 OFFCURVE",
"136 137 OFFCURVE",
"136 62 CURVE",
"196 50 OFFCURVE",
"290 82 OFFCURVE",
"342 112 CURVE SMOOTH",
"388 139 OFFCURVE",
"413 176 OFFCURVE",
"442 219 CURVE SMOOTH",
"459 244 OFFCURVE",
"467 276 OFFCURVE",
"464 306 CURVE SMOOTH",
"458 365 OFFCURVE",
"356 381 OFFCURVE",
"310 387 CURVE SMOOTH",
"296 389 OFFCURVE",
"283 398 OFFCURVE",
"273 408 CURVE SMOOTH",
"266 415 OFFCURVE",
"267 424 OFFCURVE",
"273 431 CURVE SMOOTH",
"284 443 OFFCURVE",
"320 440 OFFCURVE",
"334 435 CURVE SMOOTH",
"343 432 OFFCURVE",
"353 436 OFFCURVE",
"361 430 CURVE",
"419 421 OFFCURVE",
"465 383 OFFCURVE",
"505 343 CURVE SMOOTH",
"528 321 OFFCURVE",
"529 287 OFFCURVE",
"527 257 CURVE SMOOTH",
"524 219 OFFCURVE",
"474 126 OFFCURVE",
"441 107 CURVE",
"437 105 OFFCURVE",
"434 100 OFFCURVE",
"431 97 CURVE SMOOTH",
"415 80 OFFCURVE",
"400 71 OFFCURVE",
"380 60 CURVE SMOOTH",
"362 50 OFFCURVE",
"347 39 OFFCURVE",
"326 35 CURVE SMOOTH",
"314 33 OFFCURVE",
"303 26 OFFCURVE",
"292 22 CURVE SMOOTH",
"275 16 OFFCURVE",
"253 11 OFFCURVE",
"235 8 CURVE SMOOTH",
"222 6 OFFCURVE",
"204 9 OFFCURVE",
"192 6 CURVE SMOOTH",
"157 -4 OFFCURVE",
"104 -2 OFFCURVE",
"76 25 CURVE SMOOTH",
"67 34 OFFCURVE",
"63 57 OFFCURVE",
"60 70 CURVE",
"70 86 OFFCURVE",
"70 99 OFFCURVE",
"75 116 CURVE",
"80 131 OFFCURVE",
"81 147 OFFCURVE",
"86 162 CURVE SMOOTH",
"111 240 OFFCURVE",
"136 319 OFFCURVE",
"166 396 CURVE SMOOTH",
"183 439 OFFCURVE",
"207 480 OFFCURVE",
"224 523 CURVE SMOOTH",
"243 570 OFFCURVE",
"276 611 OFFCURVE",
"292 660 CURVE",
"295 671 OFFCURVE",
"304 675 OFFCURVE",
"315 675 CURVE SMOOTH",
"324 675 OFFCURVE",
"331 676 OFFCURVE",
"339 681 CURVE SMOOTH",
"357 692 OFFCURVE",
"389 683 OFFCURVE",
"412 691 CURVE SMOOTH",
"418 693 OFFCURVE",
"508 695 OFFCURVE",
"513 693 CURVE"
);
}
);
width = 509;
}
);
},
{
color = 11;
glyphname = "Ve-cy.ss02";
lastChange = "2017-12-14 19:20:59 +0000";
layers = (
{
layerId = UUID0;
paths = (
{
closed = 1;
nodes = (
"402 -21 OFFCURVE",
"418 -4 OFFCURVE",
"423 2 CURVE",
"436 8 OFFCURVE",
"446 14 OFFCURVE",
"460 13 CURVE",
"470 13 OFFCURVE",
"511 68 OFFCURVE",
"517 78 CURVE SMOOTH",
"538 113 OFFCURVE",
"552 152 OFFCURVE",
"533 191 CURVE SMOOTH",
"511 237 OFFCURVE",
"486 273 OFFCURVE",
"434 288 CURVE",
"496 360 OFFCURVE",
"564 435 OFFCURVE",
"575 534 CURVE",
"606 592 OFFCURVE",
"536 673 OFFCURVE",
"474 652 CURVE",
"454 653 OFFCURVE",
"432 650 OFFCURVE",
"413 644 CURVE SMOOTH",
"396 638 OFFCURVE",
"284 596 OFFCURVE",
"284 577 CURVE SMOOTH",
"284 570 OFFCURVE",
"286 559 OFFCURVE",
"290 554 CURVE",
"304 534 OFFCURVE",
"301 539 OFFCURVE",
"287 519 CURVE SMOOTH",
"275 502 OFFCURVE",
"271 474 OFFCURVE",
"261 455 CURVE",
"255 445 OFFCURVE",
"234 413 OFFCURVE",
"233 403 CURVE",
"217 386 OFFCURVE",
"198 332 OFFCURVE",
"188 308 CURVE",
"186 298 OFFCURVE",
"177 293 OFFCURVE",
"176 280 CURVE",
"170 275 OFFCURVE",
"106 98 OFFCURVE",
"98 75 CURVE SMOOTH",
"96 69 OFFCURVE",
"77 15 OFFCURVE",
"95 15 CURVE",
"101 9 OFFCURVE",
"114 -8 OFFCURVE",
"122 -8 CURVE SMOOTH",
"152 -8 OFFCURVE",
"182 185 OFFCURVE",
"214 184 CURVE",
"228 171 OFFCURVE",
"284 185 OFFCURVE",
"296 199 CURVE",
"334 204 OFFCURVE",
"358 240 OFFCURVE",
"401 237 CURVE SMOOTH",
"477 232 OFFCURVE",
"501 167 OFFCURVE",
"463 106 CURVE SMOOTH",
"420 36 OFFCURVE",
"290 9 OFFCURVE",
"215 7 CURVE SMOOTH",
"201 7 OFFCURVE",
"147 2 OFFCURVE",
"135 -8 CURVE SMOOTH",
"126 -16 OFFCURVE",
"134 -25 OFFCURVE",
"140 -31 CURVE SMOOTH",
"173 -66 OFFCURVE",
"236 -59 OFFCURVE",
"278 -52 CURVE SMOOTH",
"289 -50 OFFCURVE",
"348 -39 OFFCURVE",
"355 -36 CURVE SMOOTH",
"368 -30 OFFCURVE",
"380 -23 OFFCURVE",
"393 -18 CURVE"
);
},
{
closed = 1;
nodes = (
"486 450 OFFCURVE",
"467 430 OFFCURVE",
"460 422 CURVE SMOOTH",
"452 413 OFFCURVE",
"443 400 OFFCURVE",
"439 388 CURVE SMOOTH",
"434 374 OFFCURVE",
"383 336 OFFCURVE",
"370 326 CURVE SMOOTH",
"339 302 OFFCURVE",
"306 285 OFFCURVE",
"270 271 CURVE SMOOTH",
"262 268 OFFCURVE",
"246 261 OFFCURVE",
"237 260 CURVE",
"237 260 OFFCURVE",
"235 260 OFFCURVE",
"235 261 CURVE SMOOTH",
"235 262 OFFCURVE",
"236 264 OFFCURVE",
"236 264 CURVE",
"252 313 OFFCURVE",
"318 434 OFFCURVE",
"346 483 CURVE SMOOTH",
"350 490 OFFCURVE",
"376 531 OFFCURVE",
"360 535 CURVE SMOOTH",
"339 540 OFFCURVE",
"372 561 OFFCURVE",
"378 565 CURVE",
"398 577 OFFCURVE",
"460 594 OFFCURVE",
"484 597 CURVE SMOOTH",
"514 601 OFFCURVE",
"528 575 OFFCURVE",
"525 548 CURVE SMOOTH",
"521 516 OFFCURVE",
"499 490 OFFCURVE",
"487 461 CURVE"
);
}
);
width = 512;
}
);
},
{
color = 11;
glyphname = "Ge-cy.ss02";
lastChange = "2017-12-14 19:20:59 +0000";
layers = (
{
layerId = UUID0;
paths = (
{
closed = 1;
nodes = (
"171 29 OFFCURVE",
"163 9 OFFCURVE",
"164 -12 CURVE",
"157 -16 OFFCURVE",
"146 -20 OFFCURVE",
"138 -20 CURVE",
"129 -13 OFFCURVE",
"119 -17 OFFCURVE",
"109 -14 CURVE",
"100 3 OFFCURVE",
"100 24 OFFCURVE",
"103 43 CURVE SMOOTH",
"109 78 OFFCURVE",
"122 113 OFFCURVE",
"132 147 CURVE SMOOTH",
"140 174 OFFCURVE",
"144 205 OFFCURVE",
"151 233 CURVE SMOOTH",
"163 278 OFFCURVE",
"180 323 OFFCURVE",
"193 368 CURVE SMOOTH",
"196 379 OFFCURVE",
"204 391 OFFCURVE",
"200 403 CURVE",
"213 415 OFFCURVE",
"210 433 OFFCURVE",
"219 447 CURVE",
"227 486 OFFCURVE",
"267 579 OFFCURVE",
"283 621 CURVE",
"268 637 OFFCURVE",
"264 657 OFFCURVE",
"269 678 CURVE",
"280 690 OFFCURVE",
"297 686 OFFCURVE",
"311 688 CURVE",
"316 694 OFFCURVE",
"321 699 OFFCURVE",
"325 705 CURVE",
"335 703 OFFCURVE",
"360 695 OFFCURVE",
"368 695 CURVE",
"382 703 OFFCURVE",
"455 701 OFFCURVE",
"469 710 CURVE",
"485 711 OFFCURVE",
"585 721 OFFCURVE",
"592 717 CURVE",
"627 730 OFFCURVE",
"734 722 OFFCURVE",
"705 663 CURVE SMOOTH",
"701 655 OFFCURVE",
"697 654 OFFCURVE",
"689 653 CURVE",
"684 652 OFFCURVE",
"680 651 OFFCURVE",
"675 653 CURVE",
"651 661 OFFCURVE",
"636 658 OFFCURVE",
"612 658 CURVE SMOOTH",
"595 658 OFFCURVE",
"583 660 OFFCURVE",
"567 654 CURVE SMOOTH",
"559 651 OFFCURVE",
"530 653 OFFCURVE",
"521 653 CURVE SMOOTH",
"511 653 OFFCURVE",
"500 649 OFFCURVE",
"490 648 CURVE SMOOTH",
"459 644 OFFCURVE",
"413 634 OFFCURVE",
"384 634 CURVE SMOOTH",
"375 634 OFFCURVE",
"367 630 OFFCURVE",
"359 627 CURVE",
"324 547 OFFCURVE",
"295 466 OFFCURVE",
"269 382 CURVE SMOOTH",
"260 354 OFFCURVE",
"249 327 OFFCURVE",
"242 298 CURVE SMOOTH",
"236 271 OFFCURVE",
"220 245 OFFCURVE",
"216 218 CURVE SMOOTH",
"211 184 OFFCURVE",
"184 82 OFFCURVE",
"171 50 CURVE"
);
}
);
width = 494;
}
);
},
{
color = 11;
glyphname = "De-cy.ss02";
lastChange = "2017-12-14 19:20:59 +0000";
layers = (
{
layerId = UUID0;
paths = (
{
closed = 1;
nodes = (
"615 677 OFFCURVE",
"615 674 OFFCURVE",
"610 660 CURVE SMOOTH",
"582 581 OFFCURVE",
"469 344 OFFCURVE",
"433 296 CURVE SMOOTH",
"416 273 OFFCURVE",
"401 249 OFFCURVE",
"386 225 CURVE SMOOTH",
"357 178 OFFCURVE",
"316 126 OFFCURVE",
"280 84 CURVE",
"277 81 OFFCURVE",
"265 64 OFFCURVE",
"266 61 CURVE",
"277 61 OFFCURVE",
"290 59 OFFCURVE",
"300 61 CURVE",
"312 64 OFFCURVE",
"412 71 OFFCURVE",
"417 67 CURVE",
"427 73 OFFCURVE",
"522 72 OFFCURVE",
"543 72 CURVE",
"553 92 OFFCURVE",
"559 115 OFFCURVE",
"567 136 CURVE SMOOTH",
"578 166 OFFCURVE",
"591 196 OFFCURVE",
"602 226 CURVE SMOOTH",
"631 304 OFFCURVE",
"663 380 OFFCURVE",
"689 459 CURVE SMOOTH",
"695 478 OFFCURVE",
"705 495 OFFCURVE",
"712 514 CURVE SMOOTH",
"730 565 LINE SMOOTH",
"736 583 OFFCURVE",
"739 606 OFFCURVE",
"747 622 CURVE SMOOTH",
"753 635 OFFCURVE",
"755 648 OFFCURVE",
"752 662 CURVE",
"723 678 OFFCURVE",
"688 693 OFFCURVE",
"654 693 CURVE SMOOTH",
"640 693 OFFCURVE",
"621 704 OFFCURVE",
"611 692 CURVE"
);
},
{
closed = 1;
nodes = (
"652 56 OFFCURVE",
"701 72 OFFCURVE",
"723 21 CURVE SMOOTH",
"734 -5 OFFCURVE",
"675 -97 OFFCURVE",
"660 -122 CURVE SMOOTH",
"653 -134 OFFCURVE",
"643 -140 OFFCURVE",
"629 -135 CURVE",
"604 -111 LINE",
"591 -70 OFFCURVE",
"656 -35 OFFCURVE",
"654 6 CURVE",
"630 10 OFFCURVE",
"605 4 OFFCURVE",
"582 12 CURVE SMOOTH",
"579 13 OFFCURVE",
"575 13 OFFCURVE",
"571 13 CURVE SMOOTH",
"381 13 LINE SMOOTH",
"370 13 OFFCURVE",
"359 9 OFFCURVE",
"348 8 CURVE SMOOTH",
"336 7 OFFCURVE",
"324 10 OFFCURVE",
"313 7 CURVE SMOOTH",
"288 0 OFFCURVE",
"250 6 OFFCURVE",
"231 -2 CURVE",
"227 -4 OFFCURVE",
"136 -11 OFFCURVE",
"121 -14 CURVE SMOOTH",
"100 -18 OFFCURVE",
"80 -25 OFFCURVE",
"59 -28 CURVE",
"41 -69 OFFCURVE",
"29 -114 OFFCURVE",
"17 -157 CURVE SMOOTH",
"13 -172 OFFCURVE",
"15 -186 OFFCURVE",
"8 -202 CURVE",
"5 -205 LINE",
"-11 -212 OFFCURVE",
"-16 -214 OFFCURVE",
"-28 -200 CURVE SMOOTH",
"-39 -187 OFFCURVE",
"-46 -178 OFFCURVE",
"-44 -160 CURVE SMOOTH",
"-40 -117 OFFCURVE",
"-10 -27 OFFCURVE",
"3 18 CURVE SMOOTH",
"8 36 OFFCURVE",
"11 37 OFFCURVE",
"29 37 CURVE SMOOTH",
"50 37 OFFCURVE",
"71 36 OFFCURVE",
"91 42 CURVE",
"95 43 OFFCURVE",
"99 43 OFFCURVE",
"103 43 CURVE",
"124 42 OFFCURVE",
"143 45 OFFCURVE",
"164 50 CURVE",
"189 75 OFFCURVE",
"213 99 OFFCURVE",
"237 124 CURVE SMOOTH",
"261 149 OFFCURVE",
"301 206 OFFCURVE",
"320 236 CURVE SMOOTH",
"364 305 OFFCURVE",
"406 375 OFFCURVE",
"445 447 CURVE SMOOTH",
"468 490 OFFCURVE",
"482 539 OFFCURVE",
"507 581 CURVE SMOOTH",
"526 613 OFFCURVE",
"534 651 OFFCURVE",
"549 685 CURVE",
"531 695 OFFCURVE",
"436 658 OFFCURVE",
"413 650 CURVE",
"402 632 LINE",
"355 617 OFFCURVE",
"334 693 OFFCURVE",
"365 697 CURVE SMOOTH",
"379 699 OFFCURVE",
"391 708 OFFCURVE",
"405 712 CURVE SMOOTH",
"436 720 OFFCURVE",
"462 730 OFFCURVE",
"495 734 CURVE SMOOTH",
"511 736 OFFCURVE",
"530 739 OFFCURVE",
"545 744 CURVE",
"559 748 OFFCURVE",
"581 741 OFFCURVE",
"593 749 CURVE",
"599 750 LINE",
"616 740 OFFCURVE",
"638 750 OFFCURVE",
"655 740 CURVE",
"711 740 OFFCURVE",
"758 706 OFFCURVE",
"808 685 CURVE",
"816 675 OFFCURVE",
"826 652 OFFCURVE",
"825 639 CURVE SMOOTH",
"823 601 OFFCURVE",
"732 380 OFFCURVE",
"709 324 CURVE",
"705 316 OFFCURVE",
"686 271 OFFCURVE",
"685 266 CURVE SMOOTH",
"681 242 OFFCURVE",
"673 224 OFFCURVE",
"663 202 CURVE SMOOTH",
"644 160 OFFCURVE",
"625 115 OFFCURVE",
"611 70 CURVE"
);
}
);
width = 827;
}
);
},
{
color = 11;
glyphname = "Ie-cy.ss02";
lastChange = "2017-12-14 19:20:59 +0000";
layers = (
{
layerId = UUID0;
paths = (
{
closed = 1;
nodes = (
"580 647 OFFCURVE",
"569 644 OFFCURVE",
"558 642 CURVE",
"541 640 OFFCURVE",
"522 641 OFFCURVE",
"504 639 CURVE SMOOTH",
"469 636 OFFCURVE",
"440 628 OFFCURVE",
"407 619 CURVE SMOOTH",
"377 611 OFFCURVE",
"347 610 OFFCURVE",
"348 571 CURVE SMOOTH",
"348 546 OFFCURVE",
"338 535 OFFCURVE",
"319 519 CURVE",
"307 498 OFFCURVE",
"293 474 OFFCURVE",
"276 457 CURVE",
"273 447 OFFCURVE",
"259 430 OFFCURVE",
"258 422 CURVE",
"241 401 OFFCURVE",
"192 305 OFFCURVE",
"186 279 CURVE SMOOTH",
"175 231 OFFCURVE",
"134 109 OFFCURVE",
"156 65 CURVE",
"162 60 OFFCURVE",
"160 48 OFFCURVE",
"160 41 CURVE",
"169 41 OFFCURVE",
"171 36 OFFCURVE",
"173 29 CURVE",
"182 4 OFFCURVE",
"245 -23 OFFCURVE",
"269 -27 CURVE SMOOTH",
"314 -35 OFFCURVE",
"537 23 OFFCURVE",
"478 75 CURVE SMOOTH",
"459 92 OFFCURVE",
"455 92 OFFCURVE",
"435 82 CURVE SMOOTH",
"420 74 OFFCURVE",
"407 68 OFFCURVE",
"393 59 CURVE SMOOTH",
"361 38 OFFCURVE",
"255 16 OFFCURVE",
"226 49 CURVE SMOOTH",
"202 77 OFFCURVE",
"241 236 OFFCURVE",
"255 270 CURVE SMOOTH",
"273 314 OFFCURVE",
"309 319 OFFCURVE",
"353 328 CURVE SMOOTH",
"416 341 OFFCURVE",
"467 336 OFFCURVE",
"529 362 CURVE SMOOTH",
"576 382 OFFCURVE",
"594 418 OFFCURVE",
"524 414 CURVE SMOOTH",
"502 413 OFFCURVE",
"479 404 OFFCURVE",
"458 400 CURVE SMOOTH",
"421 393 OFFCURVE",
"377 378 OFFCURVE",
"339 378 CURVE SMOOTH",
"334 378 OFFCURVE",
"326 378 OFFCURVE",
"323 382 CURVE",
"314 395 OFFCURVE",
"357 457 OFFCURVE",
"363 467 CURVE SMOOTH",
"425 564 OFFCURVE",
"457 574 OFFCURVE",
"570 588 CURVE",
"582 590 OFFCURVE",
"659 602 OFFCURVE",
"659 619 CURVE SMOOTH",
"659 627 OFFCURVE",
"599 652 OFFCURVE",
"592 647 CURVE"
);
}
);
width = 548;
}
);
},
{
color = 11;
glyphname = "Zhe-cy.ss02";
lastChange = "2017-12-14 19:20:59 +0000";
layers = (
{
layerId = UUID0;
paths = (
{
closed = 1;
nodes = (
"211 682 OFFCURVE",
"217 690 OFFCURVE",
"223 698 CURVE",
"243 701 OFFCURVE",
"262 707 OFFCURVE",
"277 690 CURVE",
"295 671 OFFCURVE",
"361 583 OFFCURVE",
"367 562 CURVE SMOOTH",
"371 549 OFFCURVE",
"380 539 OFFCURVE",
"386 527 CURVE SMOOTH",
"404 493 OFFCURVE",
"462 398 OFFCURVE",
"469 366 CURVE",
"486 400 OFFCURVE",
"542 538 OFFCURVE",
"549 575 CURVE",
"570 603 OFFCURVE",
"569 645 OFFCURVE",
"589 673 CURVE",
"596 676 LINE",
"611 671 OFFCURVE",
"627 669 OFFCURVE",
"638 656 CURVE",
"645 633 OFFCURVE",
"627 592 OFFCURVE",
"614 573 CURVE SMOOTH",
"606 562 OFFCURVE",
"614 546 OFFCURVE",
"597 536 CURVE",
"598 525 LINE",
"591 515 OFFCURVE",
"575 501 OFFCURVE",
"581 489 CURVE",
"572 472 OFFCURVE",
"571 445 OFFCURVE",
"554 436 CURVE",
"554 422 LINE",
"558 418 LINE",
"578 418 OFFCURVE",
"594 413 OFFCURVE",
"603 393 CURVE",
"673 426 OFFCURVE",
"767 536 OFFCURVE",
"824 592 CURVE SMOOTH",
"855 623 OFFCURVE",
"880 659 OFFCURVE",
"901 697 CURVE",
"920 703 LINE",
"929 693 OFFCURVE",
"936 690 OFFCURVE",
"948 685 CURVE",
"959 660 OFFCURVE",
"949 637 OFFCURVE",
"934 617 CURVE SMOOTH",
"871 532 OFFCURVE",
"716 376 OFFCURVE",
"620 322 CURVE",
"620 318 LINE",
"623 285 OFFCURVE",
"655 217 OFFCURVE",
"672 187 CURVE SMOOTH",
"702 134 OFFCURVE",
"737 83 OFFCURVE",
"787 47 CURVE SMOOTH",
"798 39 OFFCURVE",
"806 28 OFFCURVE",
"818 22 CURVE SMOOTH",
"835 13 OFFCURVE",
"854 2 OFFCURVE",
"862 -17 CURVE",
"860 -31 OFFCURVE",
"848 -41 OFFCURVE",
"837 -49 CURVE",
"825 -49 OFFCURVE",
"814 -50 OFFCURVE",
"802 -50 CURVE",
"785 -37 OFFCURVE",
"765 -26 OFFCURVE",
"749 -12 CURVE SMOOTH",
"610 107 OFFCURVE",
"591 194 OFFCURVE",
"534 354 CURVE",
"527 344 OFFCURVE",
"523 335 OFFCURVE",
"514 326 CURVE",
"501 314 OFFCURVE",
"519 309 OFFCURVE",
"511 294 CURVE SMOOTH",
"497 266 OFFCURVE",
"446 88 OFFCURVE",
"449 62 CURVE",
"443 48 OFFCURVE",
"445 31 OFFCURVE",
"443 16 CURVE",
"437 9 OFFCURVE",
"430 3 OFFCURVE",
"423 -3 CURVE",
"404 -7 OFFCURVE",
"393 11 OFFCURVE",
"380 22 CURVE",
"387 117 OFFCURVE",
"413 168 OFFCURVE",
"437 256 CURVE SMOOTH",
"440 267 OFFCURVE",
"424 271 OFFCURVE",
"421 286 CURVE SMOOTH",
"417 304 OFFCURVE",
"414 313 OFFCURVE",
"407 330 CURVE",
"389 314 OFFCURVE",
"377 296 OFFCURVE",
"360 279 CURVE SMOOTH",
"317 236 OFFCURVE",
"275 191 OFFCURVE",
"230 149 CURVE SMOOTH",
"207 128 OFFCURVE",
"179 110 OFFCURVE",
"158 88 CURVE SMOOTH",
"137 66 OFFCURVE",
"110 50 OFFCURVE",
"88 29 CURVE SMOOTH",
"63 4 OFFCURVE",
"23 -17 OFFCURVE",
"8 -32 CURVE",
"-14 -27 OFFCURVE",
"-23 -8 OFFCURVE",
"-40 5 CURVE",
"-40 22 OFFCURVE",
"-39 31 OFFCURVE",
"-21 37 CURVE SMOOTH",
"42 57 OFFCURVE",
"242 247 OFFCURVE",
"297 301 CURVE SMOOTH",
"311 315 OFFCURVE",
"342 354 OFFCURVE",
"347 373 CURVE SMOOTH",
"350 385 OFFCURVE",
"357 395 OFFCURVE",
"370 396 CURVE",
"374 403 LINE",
"358 451 OFFCURVE",
"280 584 OFFCURVE",
"247 624 CURVE SMOOTH",
"229 646 OFFCURVE",
"216 647 OFFCURVE",
"206 674 CURVE"
);
}
);
width = 826;
}
);
leftKerningGroup = uni0416;
rightKerningGroup = uni0416;
},
{
color = 11;
glyphname = "Ze-cy.ss02";
lastChange = "2017-12-14 19:20:59 +0000";
layers = (
{
layerId = UUID0;
paths = (
{
closed = 1;
nodes = (
"190 322 OFFCURVE",
"165 350 OFFCURVE",
"177 374 CURVE",
"185 376 OFFCURVE",
"192 380 OFFCURVE",
"201 380 CURVE SMOOTH",
"217 380 OFFCURVE",
"232 388 OFFCURVE",
"247 394 CURVE SMOOTH",
"320 423 OFFCURVE",
"422 497 OFFCURVE",
"422 585 CURVE",
"369 628 OFFCURVE",
"282 602 OFFCURVE",
"227 578 CURVE",
"203 586 OFFCURVE",
"183 619 OFFCURVE",
"194 644 CURVE",
"217 660 OFFCURVE",
"245 663 OFFCURVE",
"271 669 CURVE SMOOTH",
"412 702 OFFCURVE",
"550 603 OFFCURVE",
"446 460 CURVE SMOOTH",
"425 431 OFFCURVE",
"399 409 OFFCURVE",
"370 387 CURVE SMOOTH",
"353 374 OFFCURVE",
"333 365 OFFCURVE",
"316 351 CURVE",
"357 305 OFFCURVE",
"371 295 OFFCURVE",
"389 234 CURVE SMOOTH",
"410 165 OFFCURVE",
"375 95 OFFCURVE",
"317 56 CURVE SMOOTH",
"297 43 OFFCURVE",
"279 28 OFFCURVE",
"256 21 CURVE SMOOTH",
"250 19 OFFCURVE",
"246 16 OFFCURVE",
"241 13 CURVE SMOOTH",
"224 2 OFFCURVE",
"168 -8 OFFCURVE",
"148 -6 CURVE",
"141 -11 OFFCURVE",
"134 -11 OFFCURVE",
"127 -6 CURVE",
"122 -8 OFFCURVE",
"94 -9 OFFCURVE",
"91 -6 CURVE",
"75 -11 OFFCURVE",
"68 2 OFFCURVE",
"55 7 CURVE SMOOTH",
"31 17 OFFCURVE",
"17 39 OFFCURVE",
"10 63 CURVE",
"18 79 OFFCURVE",
"25 93 OFFCURVE",
"45 94 CURVE",
"52 85 OFFCURVE",
"45 72 OFFCURVE",
"51 65 CURVE SMOOTH",
"64 49 OFFCURVE",
"98 54 OFFCURVE",
"116 53 CURVE SMOOTH",
"171 49 OFFCURVE",
"232 76 OFFCURVE",
"274 110 CURVE",
"278 114 OFFCURVE",
"282 118 OFFCURVE",
"287 121 CURVE SMOOTH",
"306 133 OFFCURVE",
"315 158 OFFCURVE",
"325 177 CURVE",
"327 180 OFFCURVE",
"329 183 OFFCURVE",
"330 187 CURVE",
"338 225 OFFCURVE",
"321 276 OFFCURVE",
"286 294 CURVE SMOOTH",
"278 298 OFFCURVE",
"267 299 OFFCURVE",
"258 301 CURVE",
"241 306 OFFCURVE",
"222 309 OFFCURVE",
"204 306 CURVE"
);
}
);
width = 545;
}
);
leftKerningGroup = uni0417;
rightKerningGroup = uni0417;
},
{
color = 11;
glyphname = "Ii-cy.ss02";
lastChange = "2017-12-14 19:20:59 +0000";
layers = (
{
layerId = UUID0;
paths = (
{
closed = 1;
nodes = (
"418 699 OFFCURVE",
"454 667 OFFCURVE",
"443 637 CURVE SMOOTH",
"413 557 OFFCURVE",
"375 479 OFFCURVE",
"343 400 CURVE SMOOTH",
"319 340 OFFCURVE",
"291 279 OFFCURVE",
"269 218 CURVE SMOOTH",
"264 204 OFFCURVE",
"255 191 OFFCURVE",
"248 178 CURVE",
"254 178 LINE",
"307 229 OFFCURVE",
"357 285 OFFCURVE",
"405 341 CURVE SMOOTH",
"480 428 OFFCURVE",
"567 513 OFFCURVE",
"656 586 CURVE SMOOTH",
"687 612 OFFCURVE",
"715 641 OFFCURVE",
"747 665 CURVE SMOOTH",
"760 675 OFFCURVE",
"779 705 OFFCURVE",
"795 704 CURVE SMOOTH",
"818 703 OFFCURVE",
"844 671 OFFCURVE",
"834 648 CURVE SMOOTH",
"786 533 OFFCURVE",
"728 422 OFFCURVE",
"683 306 CURVE SMOOTH",
"663 254 OFFCURVE",
"637 204 OFFCURVE",
"622 150 CURVE SMOOTH",
"609 104 OFFCURVE",
"599 55 OFFCURVE",
"582 10 CURVE SMOOTH",
"572 -17 OFFCURVE",
"534 13 OFFCURVE",
"526 29 CURVE SMOOTH",
"523 35 OFFCURVE",
"525 40 OFFCURVE",
"527 46 CURVE SMOOTH",
"543 94 OFFCURVE",
"557 144 OFFCURVE",
"574 192 CURVE SMOOTH",
"591 240 OFFCURVE",
"609 293 OFFCURVE",
"632 338 CURVE SMOOTH",
"646 365 OFFCURVE",
"654 395 OFFCURVE",
"668 422 CURVE SMOOTH",
"688 460 OFFCURVE",
"710 521 OFFCURVE",
"727 563 CURVE",
"722 565 LINE",
"703 549 OFFCURVE",
"683 534 OFFCURVE",
"664 518 CURVE SMOOTH",
"627 485 OFFCURVE",
"592 445 OFFCURVE",
"552 416 CURVE",
"536 391 OFFCURVE",
"481 345 OFFCURVE",
"457 317 CURVE SMOOTH",
"405 257 OFFCURVE",
"350 200 OFFCURVE",
"298 140 CURVE SMOOTH",
"268 106 OFFCURVE",
"236 75 OFFCURVE",
"207 41 CURVE SMOOTH",
"196 28 OFFCURVE",
"179 18 OFFCURVE",
"166 5 CURVE",
"149 -5 OFFCURVE",
"119 9 OFFCURVE",
"111 26 CURVE",
"109 39 OFFCURVE",
"110 53 OFFCURVE",
"116 65 CURVE SMOOTH",
"139 108 OFFCURVE",
"162 153 OFFCURVE",
"187 195 CURVE SMOOTH",
"236 279 OFFCURVE",
"271 372 OFFCURVE",
"306 463 CURVE SMOOTH",
"326 514 OFFCURVE",
"348 565 OFFCURVE",
"368 616 CURVE SMOOTH",
"378 641 OFFCURVE",
"382 665 OFFCURVE",
"389 691 CURVE"
);
}
);
width = 686;
}
);
leftKerningGroup = uni0418;
rightKerningGroup = uni0418;
},
{
color = 11;
glyphname = "Ka-cy.ss02";
lastChange = "2017-12-14 19:20:59 +0000";
layers = (
{
layerId = UUID0;
paths = (
{
closed = 1;
nodes = (
"521 38 OFFCURVE",
"551 64 OFFCURVE",
"526 76 CURVE",
"520 86 OFFCURVE",
"512 95 OFFCURVE",
"501 99 CURVE SMOOTH",
"448 118 OFFCURVE",
"392 187 OFFCURVE",
"358 230 CURVE SMOOTH",
"351 239 OFFCURVE",
"341 250 OFFCURVE",
"336 260 CURVE SMOOTH",
"329 274 OFFCURVE",
"323 289 OFFCURVE",
"316 303 CURVE",
"366 355 OFFCURVE",
"421 399 OFFCURVE",
"472 450 CURVE SMOOTH",
"497 475 OFFCURVE",
"530 488 OFFCURVE",
"554 514 CURVE SMOOTH",
"578 539 OFFCURVE",
"611 538 OFFCURVE",
"627 573 CURVE",
"650 585 OFFCURVE",
"607 620 OFFCURVE",
"592 621 CURVE",
"571 605 OFFCURVE",
"540 584 OFFCURVE",
"516 572 CURVE",
"509 557 OFFCURVE",
"485 539 OFFCURVE",
"470 533 CURVE",
"464 527 OFFCURVE",
"460 520 OFFCURVE",
"454 514 CURVE",
"444 503 OFFCURVE",
"429 494 OFFCURVE",
"417 484 CURVE",
"398 467 OFFCURVE",
"260 339 OFFCURVE",
"256 324 CURVE",
"246 325 OFFCURVE",
"236 314 OFFCURVE",
"236 304 CURVE SMOOTH",
"236 287 OFFCURVE",
"256 257 OFFCURVE",
"274 255 CURVE SMOOTH",
"284 254 OFFCURVE",
"297 218 OFFCURVE",
"302 209 CURVE SMOOTH",
"333 153 OFFCURVE",
"375 112 OFFCURVE",
"423 71 CURVE SMOOTH",
"431 64 OFFCURVE",
"494 21 OFFCURVE",
"501 36 CURVE"
);
},
{
closed = 1;
nodes = (
"191 208 OFFCURVE",
"195 216 OFFCURVE",
"197 225 CURVE",
"204 235 OFFCURVE",
"205 249 OFFCURVE",
"205 261 CURVE",
"236 327 OFFCURVE",
"260 396 OFFCURVE",
"286 464 CURVE SMOOTH",
"301 503 OFFCURVE",
"333 584 OFFCURVE",
"353 618 CURVE SMOOTH",
"367 643 OFFCURVE",
"340 668 OFFCURVE",
"315 666 CURVE SMOOTH",
"295 665 OFFCURVE",
"263 567 OFFCURVE",
"255 546 CURVE SMOOTH",
"239 503 OFFCURVE",
"216 462 OFFCURVE",
"202 419 CURVE SMOOTH",
"196 399 OFFCURVE",
"172 331 OFFCURVE",
"162 313 CURVE",
"159 281 OFFCURVE",
"115 152 OFFCURVE",
"100 122 CURVE",
"98 100 OFFCURVE",
"89 79 OFFCURVE",
"87 58 CURVE",
"81 54 OFFCURVE",
"80 31 OFFCURVE",
"75 22 CURVE",
"77 4 OFFCURVE",
"89 -17 OFFCURVE",
"108 -20 CURVE SMOOTH",
"132 -23 OFFCURVE",
"149 67 OFFCURVE",
"153 81 CURVE SMOOTH",
"161 109 OFFCURVE",
"186 174 OFFCURVE",
"187 200 CURVE"
);
}
);
width = 494;
}
);
},
{
color = 11;
glyphname = "El-cy.ss02";
lastChange = "2017-12-14 19:20:59 +0000";
layers = (
{
layerId = UUID0;
paths = (
{
closed = 1;
nodes = (
"593 612 OFFCURVE",
"594 607 OFFCURVE",
"597 604 CURVE",
"591 518 OFFCURVE",
"568 430 OFFCURVE",
"545 347 CURVE SMOOTH",
"540 328 OFFCURVE",
"536 287 OFFCURVE",
"530 273 CURVE SMOOTH",
"515 237 OFFCURVE",
"509 202 OFFCURVE",
"499 164 CURVE SMOOTH",
"488 124 OFFCURVE",
"459 46 OFFCURVE",
"441 9 CURVE",
"449 -21 OFFCURVE",
"479 -31 OFFCURVE",
"502 -9 CURVE SMOOTH",
"512 1 OFFCURVE",
"512 16 OFFCURVE",
"520 27 CURVE",
"544 115 OFFCURVE",
"584 197 OFFCURVE",
"599 287 CURVE SMOOTH",
"604 314 OFFCURVE",
"624 351 OFFCURVE",
"623 378 CURVE",
"625 397 OFFCURVE",
"632 416 OFFCURVE",
"635 435 CURVE",
"646 440 OFFCURVE",
"668 568 OFFCURVE",
"666 586 CURVE",
"664 599 OFFCURVE",
"661 612 OFFCURVE",
"658 625 CURVE",
"640 639 LINE",
"636 648 OFFCURVE",
"626 650 OFFCURVE",
"621 660 CURVE SMOOTH",
"614 674 OFFCURVE",
"571 678 OFFCURVE",
"557 678 CURVE",
"548 673 OFFCURVE",
"485 666 OFFCURVE",
"471 666 CURVE",
"441 654 OFFCURVE",
"410 645 OFFCURVE",
"379 637 CURVE",
"378 637 LINE",
"375 636 LINE",
"343 624 LINE SMOOTH",
"318 615 OFFCURVE",
"291 607 OFFCURVE",
"267 596 CURVE SMOOTH",
"242 584 OFFCURVE",
"242 555 OFFCURVE",
"253 533 CURVE",
"311 516 OFFCURVE",
"357 581 OFFCURVE",
"415 581 CURVE",
"396 540 OFFCURVE",
"366 489 OFFCURVE",
"359 445 CURVE",
"358 436 OFFCURVE",
"349 435 OFFCURVE",
"345 426 CURVE SMOOTH",
"328 391 OFFCURVE",
"315 356 OFFCURVE",
"296 321 CURVE",
"299 313 LINE",
"284 303 OFFCURVE",
"285 297 OFFCURVE",
"282 279 CURVE",
"263 266 OFFCURVE",
"230 197 OFFCURVE",
"213 172 CURVE",
"196 149 OFFCURVE",
"96 17 OFFCURVE",
"74 17 CURVE SMOOTH",
"62 17 OFFCURVE",
"52 10 OFFCURVE",
"48 -1 CURVE",
"50 -25 OFFCURVE",
"83 -46 OFFCURVE",
"106 -37 CURVE SMOOTH",
"128 -28 OFFCURVE",
"164 11 OFFCURVE",
"179 30 CURVE SMOOTH",
"263 133 OFFCURVE",
"323 228 OFFCURVE",
"373 353 CURVE SMOOTH",
"405 432 OFFCURVE",
"448 505 OFFCURVE",
"475 587 CURVE SMOOTH",
"479 598 OFFCURVE",
"483 601 OFFCURVE",
"494 604 CURVE",
"527 611 OFFCURVE",
"562 615 OFFCURVE",
"596 615 CURVE"
);
}
);
width = 605;
}
);
leftKerningGroup = uni041B;
rightKerningGroup = uni041B;
},
{
color = 11;
glyphname = "Em-cy.ss02";
lastChange = "2017-12-14 19:20:59 +0000";
layers = (
{
layerId = UUID0;
paths = (
{
closed = 1;
nodes = (
"690 -40 OFFCURVE",
"688 -12 OFFCURVE",
"687 -7 CURVE",
"682 47 OFFCURVE",
"678 103 OFFCURVE",
"686 157 CURVE SMOOTH",
"696 224 OFFCURVE",
"702 293 OFFCURVE",
"712 360 CURVE SMOOTH",
"723 433 OFFCURVE",
"741 506 OFFCURVE",
"754 579 CURVE",
"748 583 OFFCURVE",
"749 583 OFFCURVE",
"753 585 CURVE",
"772 592 OFFCURVE",
"742 626 OFFCURVE",
"735 632 CURVE SMOOTH",
"700 662 OFFCURVE",
"679 641 OFFCURVE",
"655 609 CURVE SMOOTH",
"647 598 OFFCURVE",
"586 517 OFFCURVE",
"593 505 CURVE",
"591 498 OFFCURVE",
"586 490 OFFCURVE",
"578 488 CURVE",
"556 469 OFFCURVE",
"540 441 OFFCURVE",
"524 417 CURVE SMOOTH",
"492 371 OFFCURVE",
"459 329 OFFCURVE",
"431 280 CURVE",
"426 272 OFFCURVE",
"402 229 OFFCURVE",
"391 228 CURVE",
"367 243 OFFCURVE",
"387 437 OFFCURVE",
"381 448 CURVE",
"385 458 LINE",
"392 458 OFFCURVE",
"392 465 OFFCURVE",
"392 470 CURVE SMOOTH",
"392 504 OFFCURVE",
"409 551 OFFCURVE",
"417 584 CURVE",
"419 591 OFFCURVE",
"418 625 OFFCURVE",
"424 624 CURVE",
"435 637 OFFCURVE",
"380 695 OFFCURVE",
"358 659 CURVE SMOOTH",
"345 638 OFFCURVE",
"332 611 OFFCURVE",
"325 588 CURVE",
"320 582 OFFCURVE",
"314 576 OFFCURVE",
"309 569 CURVE",
"308 562 OFFCURVE",
"306 556 OFFCURVE",
"307 548 CURVE",
"297 528 OFFCURVE",
"287 514 OFFCURVE",
"283 490 CURVE",
"280 485 OFFCURVE",
"281 480 OFFCURVE",
"276 478 CURVE",
"273 477 OFFCURVE",
"270 478 OFFCURVE",
"270 473 CURVE",
"268 451 OFFCURVE",
"238 410 OFFCURVE",
"238 391 CURVE",
"227 364 OFFCURVE",
"137 128 OFFCURVE",
"138 122 CURVE",
"86 23 LINE SMOOTH",
"71 -6 OFFCURVE",
"53 -22 OFFCURVE",
"86 -44 CURVE SMOOTH",
"117 -65 OFFCURVE",
"124 -57 OFFCURVE",
"140 -22 CURVE SMOOTH",
"147 -6 OFFCURVE",
"153 12 OFFCURVE",
"163 27 CURVE SMOOTH",
"176 48 OFFCURVE",
"182 76 OFFCURVE",
"192 99 CURVE SMOOTH",
"203 125 OFFCURVE",
"215 151 OFFCURVE",
"225 178 CURVE SMOOTH",
"234 203 OFFCURVE",
"241 229 OFFCURVE",
"250 255 CURVE SMOOTH",
"260 284 OFFCURVE",
"297 362 OFFCURVE",
"299 389 CURVE",
"306 398 OFFCURVE",
"314 408 OFFCURVE",
"322 417 CURVE",
"323 391 OFFCURVE",
"321 367 OFFCURVE",
"320 341 CURVE SMOOTH",
"319 315 OFFCURVE",
"329 283 OFFCURVE",
"333 257 CURVE SMOOTH",
"338 222 OFFCURVE",
"339 117 OFFCURVE",
"399 128 CURVE SMOOTH",
"424 133 OFFCURVE",
"430 148 OFFCURVE",
"441 168 CURVE SMOOTH",
"452 188 OFFCURVE",
"467 204 OFFCURVE",
"476 226 CURVE SMOOTH",
"499 284 OFFCURVE",
"629 466 OFFCURVE",
"674 519 CURVE",
"670 486 OFFCURVE",
"666 450 OFFCURVE",
"656 419 CURVE",
"665 393 OFFCURVE",
"653 376 OFFCURVE",
"649 351 CURVE SMOOTH",
"646 334 OFFCURVE",
"646 324 OFFCURVE",
"640 307 CURVE SMOOTH",
"637 298 OFFCURVE",
"638 277 OFFCURVE",
"638 267 CURVE",
"633 261 OFFCURVE",
"633 250 OFFCURVE",
"633 243 CURVE",
"640 230 OFFCURVE",
"634 211 OFFCURVE",
"632 198 CURVE SMOOTH",
"623 148 OFFCURVE",
"618 29 OFFCURVE",
"626 -22 CURVE SMOOTH",
"629 -43 OFFCURVE",
"630 -45 OFFCURVE",
"649 -52 CURVE SMOOTH",
"668 -59 OFFCURVE",
"674 -62 OFFCURVE",
"688 -45 CURVE"
);
}
);
width = 720;
}
);
},
{
color = 11;
glyphname = "En-cy.ss02";
lastChange = "2017-12-14 19:20:59 +0000";
layers = (
{
layerId = UUID0;
paths = (
{
closed = 1;
nodes = (
"646 661 OFFCURVE",
"636 637 OFFCURVE",
"630 610 CURVE SMOOTH",
"616 548 OFFCURVE",
"611 532 OFFCURVE",
"586 473 CURVE SMOOTH",
"571 438 OFFCURVE",
"554 339 OFFCURVE",
"535 314 CURVE SMOOTH",
"528 305 OFFCURVE",
"472 324 OFFCURVE",
"463 326 CURVE SMOOTH",
"431 333 OFFCURVE",
"394 337 OFFCURVE",
"361 339 CURVE SMOOTH",
"349 340 OFFCURVE",
"254 350 OFFCURVE",
"252 354 CURVE SMOOTH",
"249 360 OFFCURVE",
"285 437 OFFCURVE",
"291 447 CURVE SMOOTH",
"298 459 OFFCURVE",
"300 473 OFFCURVE",
"306 485 CURVE",
"315 505 OFFCURVE",
"330 522 OFFCURVE",
"339 541 CURVE SMOOTH",
"353 572 OFFCURVE",
"369 618 OFFCURVE",
"394 643 CURVE",
"404 666 OFFCURVE",
"374 692 OFFCURVE",
"354 696 CURVE SMOOTH",
"334 700 OFFCURVE",
"321 651 OFFCURVE",
"304 637 CURVE",
"243 495 OFFCURVE",
"186 363 OFFCURVE",
"146 214 CURVE",
"133 203 OFFCURVE",
"120 117 OFFCURVE",
"116 98 CURVE SMOOTH",
"111 74 OFFCURVE",
"105 51 OFFCURVE",
"99 27 CURVE SMOOTH",
"93 0 OFFCURVE",
"77 -45 OFFCURVE",
"108 -63 CURVE",
"111 -65 OFFCURVE",
"129 -76 OFFCURVE",
"132 -70 CURVE",
"143 -68 OFFCURVE",
"162 17 OFFCURVE",
"165 29 CURVE SMOOTH",
"170 48 OFFCURVE",
"171 70 OFFCURVE",
"176 90 CURVE",
"183 127 OFFCURVE",
"195 163 OFFCURVE",
"206 200 CURVE SMOOTH",
"232 283 LINE",
"233 285 OFFCURVE",
"239 304 OFFCURVE",
"242 304 CURVE",
"244 303 OFFCURVE",
"244 300 OFFCURVE",
"244 299 CURVE",
"248 290 OFFCURVE",
"263 292 OFFCURVE",
"271 292 CURVE SMOOTH",
"303 292 OFFCURVE",
"480 263 OFFCURVE",
"501 251 CURVE SMOOTH",
"512 245 OFFCURVE",
"502 206 OFFCURVE",
"500 197 CURVE SMOOTH",
"495 174 OFFCURVE",
"485 150 OFFCURVE",
"478 127 CURVE SMOOTH",
"463 72 OFFCURVE",
"449 17 OFFCURVE",
"436 -38 CURVE",
"442 -55 OFFCURVE",
"451 -71 OFFCURVE",
"469 -76 CURVE SMOOTH",
"489 -82 OFFCURVE",
"491 -70 OFFCURVE",
"496 -52 CURVE",
"498 -43 OFFCURVE",
"498 -30 OFFCURVE",
"499 -20 CURVE",
"504 9 OFFCURVE",
"510 37 OFFCURVE",
"517 66 CURVE SMOOTH",
"525 97 OFFCURVE",
"533 129 OFFCURVE",
"544 159 CURVE",
"548 172 OFFCURVE",
"555 185 OFFCURVE",
"558 197 CURVE SMOOTH",
"564 219 OFFCURVE",
"558 231 OFFCURVE",
"585 231 CURVE SMOOTH",
"617 232 OFFCURVE",
"611 246 OFFCURVE",
"600 267 CURVE SMOOTH",
"597 273 OFFCURVE",
"588 298 OFFCURVE",
"590 304 CURVE SMOOTH",
"602 340 OFFCURVE",
"622 374 OFFCURVE",
"633 411 CURVE SMOOTH",
"645 453 OFFCURVE",
"665 493 OFFCURVE",
"679 534 CURVE SMOOTH",
"688 559 OFFCURVE",
"719 642 OFFCURVE",
"701 666 CURVE SMOOTH",
"696 673 OFFCURVE",
"689 675 OFFCURVE",
"681 677 CURVE SMOOTH",
"674 679 OFFCURVE",
"667 681 OFFCURVE",
"661 684 CURVE"
);
}
);
width = 564;
}
);
},
{
color = 11;
glyphname = "O-cy.ss02";
lastChange = "2017-12-14 19:20:59 +0000";
layers = (
{
layerId = UUID0;
paths = (
{
closed = 1;
nodes = (
"511 635 OFFCURVE",
"452 647 OFFCURVE",
"441 647 CURVE SMOOTH",
"435 647 OFFCURVE",
"411 645 OFFCURVE",
"405 643 CURVE SMOOTH",
"332 616 OFFCURVE",
"246 479 OFFCURVE",
"213 414 CURVE SMOOTH",
"208 404 OFFCURVE",
"180 335 OFFCURVE",
"180 327 CURVE",
"177 323 OFFCURVE",
"174 320 OFFCURVE",
"169 323 CURVE",
"158 316 LINE",
"157 310 OFFCURVE",
"151 305 OFFCURVE",
"147 301 CURVE",
"146 292 OFFCURVE",
"151 261 OFFCURVE",
"139 262 CURVE",
"135 258 OFFCURVE",
"126 238 OFFCURVE",
"123 238 CURVE",
"116 229 LINE",
"116 152 OFFCURVE",
"71 138 OFFCURVE",
"119 50 CURVE SMOOTH",
"137 17 OFFCURVE",
"178 -6 OFFCURVE",
"214 -14 CURVE SMOOTH",
"246 -21 OFFCURVE",
"304 -16 OFFCURVE",
"334 -2 CURVE SMOOTH",
"342 2 OFFCURVE",
"411 60 OFFCURVE",
"411 64 CURVE SMOOTH",
"411 66 OFFCURVE",
"412 69 OFFCURVE",
"414 70 CURVE",
"488 88 OFFCURVE",
"576 353 OFFCURVE",
"585 435 CURVE SMOOTH",
"589 470 OFFCURVE",
"589 511 OFFCURVE",
"574 543 CURVE SMOOTH",
"567 558 OFFCURVE",
"540 618 OFFCURVE",
"522 620 CURVE",
"519 620 OFFCURVE",
"516 622 OFFCURVE",
"516 626 CURVE"
);
},
{
closed = 1;
nodes = (
"151 67 OFFCURVE",
"163 112 OFFCURVE",
"166 124 CURVE SMOOTH",
"191 224 OFFCURVE",
"230 331 OFFCURVE",
"283 420 CURVE SMOOTH",
"291 433 OFFCURVE",
"305 442 OFFCURVE",
"318 450 CURVE",
"320 467 OFFCURVE",
"343 476 OFFCURVE",
"352 506 CURVE",
"384 539 OFFCURVE",
"402 561 OFFCURVE",
"447 573 CURVE SMOOTH",
"468 579 OFFCURVE",
"493 584 OFFCURVE",
"507 561 CURVE SMOOTH",
"515 548 OFFCURVE",
"527 458 OFFCURVE",
"522 444 CURVE",
"510 443 OFFCURVE",
"520 435 OFFCURVE",
"522 433 CURVE SMOOTH",
"525 430 OFFCURVE",
"520 426 OFFCURVE",
"518 424 CURVE",
"515 420 OFFCURVE",
"514 402 OFFCURVE",
"514 398 CURVE SMOOTH",
"514 390 OFFCURVE",
"516 386 OFFCURVE",
"511 379 CURVE SMOOTH",
"499 363 LINE",
"498 345 OFFCURVE",
"478 262 OFFCURVE",
"467 250 CURVE",
"460 243 OFFCURVE",
"448 207 OFFCURVE",
"447 197 CURVE",
"433 186 OFFCURVE",
"416 178 OFFCURVE",
"414 159 CURVE",
"414 155 OFFCURVE",
"414 153 OFFCURVE",
"408 153 CURVE",
"401 144 OFFCURVE",
"397 133 OFFCURVE",
"391 124 CURVE SMOOTH",
"355 73 OFFCURVE",
"223 0 OFFCURVE",
"171 62 CURVE"
);
}
);
width = 496;
}
);
},
{
color = 11;
glyphname = "Pe-cy.ss02";
lastChange = "2017-12-14 19:20:59 +0000";
layers = (
{
layerId = UUID0;
paths = (
{
closed = 1;
nodes = (
"320 694 OFFCURVE",
"308 696 OFFCURVE",
"295 698 CURVE",
"268 701 OFFCURVE",
"286 738 OFFCURVE",
"296 750 CURVE SMOOTH",
"310 766 OFFCURVE",
"344 761 OFFCURVE",
"364 761 CURVE",
"370 776 OFFCURVE",
"379 780 OFFCURVE",
"393 774 CURVE SMOOTH",
"402 770 OFFCURVE",
"406 761 OFFCURVE",
"417 761 CURVE SMOOTH",
"455 760 OFFCURVE",
"544 765 OFFCURVE",
"575 756 CURVE",
"579 755 OFFCURVE",
"657 755 OFFCURVE",
"667 755 CURVE SMOOTH",
"701 755 OFFCURVE",
"741 752 OFFCURVE",
"775 744 CURVE SMOOTH",
"784 742 OFFCURVE",
"789 734 OFFCURVE",
"787 725 CURVE",
"776 684 OFFCURVE",
"733 626 OFFCURVE",
"715 579 CURVE SMOOTH",
"709 563 OFFCURVE",
"690 495 OFFCURVE",
"682 489 CURVE",
"670 465 OFFCURVE",
"662 446 OFFCURVE",
"656 420 CURVE SMOOTH",
"653 406 OFFCURVE",
"644 392 OFFCURVE",
"640 377 CURVE SMOOTH",
"626 326 OFFCURVE",
"611 275 OFFCURVE",
"593 225 CURVE SMOOTH",
"565 147 OFFCURVE",
"544 70 OFFCURVE",
"527 -11 CURVE",
"515 -7 OFFCURVE",
"481 3 OFFCURVE",
"478 17 CURVE SMOOTH",
"473 39 OFFCURVE",
"504 115 OFFCURVE",
"511 143 CURVE SMOOTH",
"528 211 OFFCURVE",
"543 282 OFFCURVE",
"570 347 CURVE SMOOTH",
"582 376 OFFCURVE",
"592 406 OFFCURVE",
"602 436 CURVE SMOOTH",
"619 486 OFFCURVE",
"637 536 OFFCURVE",
"651 587 CURVE SMOOTH",
"661 622 OFFCURVE",
"676 655 OFFCURVE",
"688 689 CURVE",
"686 690 LINE",
"658 692 OFFCURVE",
"630 699 OFFCURVE",
"601 698 CURVE SMOOTH",
"576 697 OFFCURVE",
"542 700 OFFCURVE",
"517 702 CURVE SMOOTH",
"507 703 OFFCURVE",
"496 702 OFFCURVE",
"486 700 CURVE SMOOTH",
"466 696 OFFCURVE",
"442 697 OFFCURVE",
"421 698 CURVE",
"412 698 OFFCURVE",
"408 696 OFFCURVE",
"403 688 CURVE",
"384 654 OFFCURVE",
"367 618 OFFCURVE",
"351 583 CURVE SMOOTH",
"329 536 OFFCURVE",
"317 484 OFFCURVE",
"297 436 CURVE SMOOTH",
"288 416 OFFCURVE",
"279 396 OFFCURVE",
"272 375 CURVE SMOOTH",
"250 309 OFFCURVE",
"224 243 OFFCURVE",
"205 176 CURVE SMOOTH",
"201 163 OFFCURVE",
"204 149 OFFCURVE",
"195 138 CURVE",
"193 118 OFFCURVE",
"160 -16 OFFCURVE",
"152 -33 CURVE SMOOTH",
"144 -51 OFFCURVE",
"91 -33 OFFCURVE",
"104 8 CURVE SMOOTH",
"107 17 OFFCURVE",
"109 24 OFFCURVE",
"109 33 CURVE SMOOTH",
"109 48 OFFCURVE",
"181 299 OFFCURVE",
"189 323 CURVE SMOOTH",
"191 329 OFFCURVE",
"200 349 OFFCURVE",
"200 352 CURVE SMOOTH",
"200 375 OFFCURVE",
"217 393 OFFCURVE",
"217 406 CURVE SMOOTH",
"217 429 OFFCURVE",
"268 535 OFFCURVE",
"278 565 CURVE SMOOTH",
"292 608 OFFCURVE",
"316 647 OFFCURVE",
"332 690 CURVE"
);
}
);
width = 608;
}
);
},
{
color = 11;
glyphname = "Er-cy.ss02";
lastChange = "2017-12-14 19:20:59 +0000";
layers = (
{
layerId = UUID0;
paths = (
{
closed = 1;
nodes = (
"250 239 OFFCURVE",
"291 231 OFFCURVE",
"305 242 CURVE",
"336 248 OFFCURVE",
"365 261 OFFCURVE",
"392 277 CURVE",
"395 279 OFFCURVE",
"419 302 OFFCURVE",
"418 287 CURVE",
"438 318 OFFCURVE",
"475 319 OFFCURVE",
"492 357 CURVE",
"503 360 OFFCURVE",
"521 379 OFFCURVE",
"528 388 CURVE",
"531 391 OFFCURVE",
"540 401 OFFCURVE",
"540 406 CURVE",
"541 407 OFFCURVE",
"540 407 OFFCURVE",
"539 407 CURVE",
"564 427 OFFCURVE",
"599 534 OFFCURVE",
"595 566 CURVE SMOOTH",
"591 603 OFFCURVE",
"552 645 OFFCURVE",
"518 658 CURVE SMOOTH",
"508 662 OFFCURVE",
"459 665 OFFCURVE",
"446 665 CURVE SMOOTH",
"430 665 OFFCURVE",
"337 649 OFFCURVE",
"330 637 CURVE",
"327 631 OFFCURVE",
"323 621 OFFCURVE",
"316 620 CURVE SMOOTH",
"299 617 OFFCURVE",
"293 611 OFFCURVE",
"300 593 CURVE",
"307 590 OFFCURVE",
"299 570 OFFCURVE",
"298 565 CURVE",
"290 559 OFFCURVE",
"287 548 OFFCURVE",
"287 539 CURVE",
"284 534 OFFCURVE",
"274 521 OFFCURVE",
"274 514 CURVE",
"267 512 OFFCURVE",
"237 438 OFFCURVE",
"237 427 CURVE",
"223 415 OFFCURVE",
"210 375 OFFCURVE",
"208 357 CURVE",
"203 351 OFFCURVE",
"193 323 OFFCURVE",
"192 315 CURVE",
"167 264 OFFCURVE",
"133 185 OFFCURVE",
"131 129 CURVE",
"120 110 OFFCURVE",
"120 67 OFFCURVE",
"108 75 CURVE",
"107 54 OFFCURVE",
"75 -18 OFFCURVE",
"83 -31 CURVE",
"84 -50 OFFCURVE",
"110 -50 OFFCURVE",
"122 -56 CURVE SMOOTH",
"142 -66 OFFCURVE",
"146 -31 OFFCURVE",
"149 -19 CURVE SMOOTH",
"162 33 OFFCURVE",
"195 132 OFFCURVE",
"214 184 CURVE SMOOTH",
"235 241 LINE"
);
},
{
closed = 1;
nodes = (
"252 321 OFFCURVE",
"365 576 OFFCURVE",
"389 589 CURVE SMOOTH",
"423 608 OFFCURVE",
"492 626 OFFCURVE",
"519 586 CURVE SMOOTH",
"538 558 OFFCURVE",
"510 477 OFFCURVE",
"493 452 CURVE SMOOTH",
"471 420 OFFCURVE",
"443 387 OFFCURVE",
"415 360 CURVE SMOOTH",
"369 315 OFFCURVE",
"323 293 OFFCURVE",
"258 294 CURVE"
);
}
);
width = 472;
}
);
},
{
color = 11;
glyphname = "Es-cy.ss02";
lastChange = "2017-12-14 19:20:59 +0000";
layers = (
{
layerId = UUID0;
paths = (
{
closed = 1;
nodes = (
"462 93 OFFCURVE",
"378 50 OFFCURVE",
"352 35 CURVE",
"344 35 OFFCURVE",
"329 32 OFFCURVE",
"322 28 CURVE",
"289 11 OFFCURVE",
"252 4 OFFCURVE",
"215 4 CURVE SMOOTH",
"204 4 OFFCURVE",
"194 2 OFFCURVE",
"185 10 CURVE SMOOTH",
"172 21 OFFCURVE",
"156 51 OFFCURVE",
"154 68 CURVE",
"161 70 OFFCURVE",
"155 94 OFFCURVE",
"155 98 CURVE",
"153 126 OFFCURVE",
"196 268 OFFCURVE",
"207 297 CURVE SMOOTH",
"239 382 OFFCURVE",
"294 459 OFFCURVE",
"351 529 CURVE SMOOTH",
"371 554 OFFCURVE",
"445 630 OFFCURVE",
"482 623 CURVE SMOOTH",
"525 614 OFFCURVE",
"515 535 OFFCURVE",
"506 507 CURVE",
"502 496 OFFCURVE",
"500 485 OFFCURVE",
"499 473 CURVE",
"515 465 OFFCURVE",
"528 446 OFFCURVE",
"548 449 CURVE SMOOTH",
"569 452 OFFCURVE",
"569 460 OFFCURVE",
"576 479 CURVE SMOOTH",
"589 511 OFFCURVE",
"578 591 OFFCURVE",
"560 620 CURVE SMOOTH",
"542 649 OFFCURVE",
"502 672 OFFCURVE",
"469 678 CURVE SMOOTH",
"449 681 OFFCURVE",
"439 682 OFFCURVE",
"420 674 CURVE SMOOTH",
"343 643 OFFCURVE",
"216 465 OFFCURVE",
"181 390 CURVE SMOOTH",
"154 333 OFFCURVE",
"83 175 OFFCURVE",
"92 113 CURVE",
"94 102 OFFCURVE",
"92 100 OFFCURVE",
"88 90 CURVE",
"85 81 OFFCURVE",
"115 7 OFFCURVE",
"122 -1 CURVE SMOOTH",
"154 -37 OFFCURVE",
"217 -55 OFFCURVE",
"262 -48 CURVE SMOOTH",
"306 -42 OFFCURVE",
"340 -30 OFFCURVE",
"378 -7 CURVE SMOOTH",
"392 1 OFFCURVE",
"404 7 OFFCURVE",
"419 12 CURVE",
"427 15 OFFCURVE",
"476 59 OFFCURVE",
"480 66 CURVE",
"483 72 OFFCURVE",
"484 80 OFFCURVE",
"489 86 CURVE"
);
}
);
width = 482;
}
);
},
{
color = 11;
glyphname = "Te-cy.ss02";
lastChange = "2017-12-14 19:20:59 +0000";
layers = (
{
layerId = UUID0;
paths = (
{
closed = 1;
nodes = (
"397 424 LINE",
"398 440 OFFCURVE",
"434 540 OFFCURVE",
"446 546 CURVE",
"450 551 OFFCURVE",
"459 558 OFFCURVE",
"459 566 CURVE SMOOTH",
"459 582 OFFCURVE",
"524 582 OFFCURVE",
"534 583 CURVE",
"551 584 OFFCURVE",
"703 585 OFFCURVE",
"690 627 CURVE SMOOTH",
"677 670 OFFCURVE",
"616 659 OFFCURVE",
"584 652 CURVE SMOOTH",
"559 647 OFFCURVE",
"533 640 OFFCURVE",
"507 640 CURVE SMOOTH",
"445 640 LINE SMOOTH",
"429 640 OFFCURVE",
"413 635 OFFCURVE",
"396 635 CURVE SMOOTH",
"376 635 OFFCURVE",
"357 627 OFFCURVE",
"338 627 CURVE SMOOTH",
"319 627 OFFCURVE",
"297 623 OFFCURVE",
"277 622 CURVE SMOOTH",
"246 620 OFFCURVE",
"196 621 OFFCURVE",
"170 603 CURVE SMOOTH",
"154 592 OFFCURVE",
"160 559 OFFCURVE",
"175 554 CURVE",
"180 552 OFFCURVE",
"195 557 OFFCURVE",
"200 558 CURVE SMOOTH",
"241 567 OFFCURVE",
"289 567 OFFCURVE",
"331 568 CURVE SMOOTH",
"342 568 OFFCURVE",
"353 568 OFFCURVE",
"364 567 CURVE",
"364 567 OFFCURVE",
"371 567 OFFCURVE",
"371 566 CURVE SMOOTH",
"371 559 OFFCURVE",
"350 510 OFFCURVE",
"346 503 CURVE",
"332 475 OFFCURVE",
"314 439 OFFCURVE",
"310 407 CURVE SMOOTH",
"308 386 OFFCURVE",
"285 355 OFFCURVE",
"285 343 CURVE SMOOTH",
"285 334 OFFCURVE",
"283 326 OFFCURVE",
"280 318 CURVE",
"274 304 OFFCURVE",
"266 290 OFFCURVE",
"260 276 CURVE SMOOTH",
"239 223 OFFCURVE",
"223 170 OFFCURVE",
"204 117 CURVE SMOOTH",
"194 89 OFFCURVE",
"159 -5 OFFCURVE",
"203 -23 CURVE",
"209 -26 OFFCURVE",
"222 -26 OFFCURVE",
"229 -24 CURVE",
"231 -23 OFFCURVE",
"234 -13 OFFCURVE",
"235 -11 CURVE",
"241 3 OFFCURVE",
"275 108 OFFCURVE",
"275 117 CURVE SMOOTH",
"275 128 OFFCURVE",
"282 129 OFFCURVE",
"287 137 CURVE SMOOTH",
"300 158 OFFCURVE",
"311 210 OFFCURVE",
"319 236 CURVE SMOOTH",
"332 277 OFFCURVE",
"351 321 OFFCURVE",
"368 361 CURVE SMOOTH",
"375 377 OFFCURVE",
"384 391 OFFCURVE",
"390 407 CURVE SMOOTH"
);
}
);
width = 458;
}
);
},
{
color = 11;
glyphname = "U-cy.ss02";
lastChange = "2017-12-14 19:20:59 +0000";
layers = (
{
anchors = (
{
name = topUC;
position = "{388, 769}";
}
);
layerId = UUID0;
paths = (
{
closed = 1;
nodes = (
"273 199 OFFCURVE",
"272 209 OFFCURVE",
"277 217 CURVE SMOOTH",
"292 242 OFFCURVE",
"311 263 OFFCURVE",
"325 289 CURVE SMOOTH",
"339 313 OFFCURVE",
"353 337 OFFCURVE",
"366 362 CURVE SMOOTH",
"417 457 OFFCURVE",
"463 590 OFFCURVE",
"495 693 CURVE",
"514 699 LINE",
"531 694 OFFCURVE",
"562 671 OFFCURVE",
"555 651 CURVE SMOOTH",
"545 622 OFFCURVE",
"503 513 OFFCURVE",
"501 491 CURVE",
"484 467 OFFCURVE",
"476 433 OFFCURVE",
"465 406 CURVE SMOOTH",
"456 384 OFFCURVE",
"445 362 OFFCURVE",
"433 341 CURVE SMOOTH",
"403 289 OFFCURVE",
"374 232 OFFCURVE",
"338 184 CURVE",
"329 171 OFFCURVE",
"319 157 OFFCURVE",
"311 144 CURVE SMOOTH",
"299 124 OFFCURVE",
"279 110 OFFCURVE",
"268 88 CURVE",
"266 85 OFFCURVE",
"264 82 OFFCURVE",
"261 80 CURVE",
"223 52 OFFCURVE",
"186 23 OFFCURVE",
"150 -8 CURVE SMOOTH",
"126 -28 OFFCURVE",
"113 -25 OFFCURVE",
"105 -30 CURVE",
"87 -23 OFFCURVE",
"68 -17 OFFCURVE",
"62 4 CURVE",
"63 13 OFFCURVE",
"76 28 OFFCURVE",
"84 32 CURVE",
"98 31 OFFCURVE",
"108 40 OFFCURVE",
"118 48 CURVE",
"128 55 OFFCURVE",
"174 91 OFFCURVE",
"177 98 CURVE",
"180 104 OFFCURVE",
"201 116 OFFCURVE",
"208 123 CURVE SMOOTH",
"218 133 OFFCURVE",
"226 145 OFFCURVE",
"236 156 CURVE",
"226 161 OFFCURVE",
"212 168 OFFCURVE",
"205 176 CURVE",
"173 208 OFFCURVE",
"176 269 OFFCURVE",
"157 307 CURVE SMOOTH",
"151 319 OFFCURVE",
"154 334 OFFCURVE",
"146 346 CURVE",
"141 376 OFFCURVE",
"130 416 OFFCURVE",
"122 446 CURVE SMOOTH",
"111 490 OFFCURVE",
"109 519 OFFCURVE",
"102 563 CURVE SMOOTH",
"100 576 OFFCURVE",
"96 590 OFFCURVE",
"101 602 CURVE",
"95 614 OFFCURVE",
"99 628 OFFCURVE",
"98 641 CURVE SMOOTH",
"97 657 OFFCURVE",
"98 672 OFFCURVE",
"98 688 CURVE SMOOTH",
"98 721 OFFCURVE",
"152 690 OFFCURVE",
"163 677 CURVE SMOOTH",
"171 667 LINE",
"160 638 OFFCURVE",
"170 563 OFFCURVE",
"174 530 CURVE",
"175 524 OFFCURVE",
"176 517 OFFCURVE",
"175 511 CURVE",
"174 507 OFFCURVE",
"172 507 OFFCURVE",
"174 503 CURVE",
"180 489 OFFCURVE",
"179 477 OFFCURVE",
"182 463 CURVE SMOOTH",
"194 409 OFFCURVE",
"214 357 OFFCURVE",
"226 303 CURVE SMOOTH",
"232 275 OFFCURVE",
"238 245 OFFCURVE",
"248 218 CURVE SMOOTH",
"251 210 OFFCURVE",
"255 202 OFFCURVE",
"262 196 CURVE"
);
}
);
width = 512;
}
);
leftKerningGroup = uni0423;
rightKerningGroup = uni0423;
},
{
color = 11;
glyphname = "Ef-cy.ss02";
lastChange = "2017-12-14 19:20:59 +0000";
layers = (
{
layerId = UUID0;
paths = (
{
closed = 1;
nodes = (
"496 446 OFFCURVE",
"491 451 OFFCURVE",
"482 448 CURVE SMOOTH",
"466 443 OFFCURVE",
"464 448 OFFCURVE",
"449 451 CURVE",
"334 422 OFFCURVE",
"249 374 OFFCURVE",
"220 252 CURVE SMOOTH",
"215 232 OFFCURVE",
"219 212 OFFCURVE",
"223 192 CURVE SMOOTH",
"232 150 OFFCURVE",
"266 112 OFFCURVE",
"306 97 CURVE SMOOTH",
"330 88 OFFCURVE",
"354 77 OFFCURVE",
"380 75 CURVE",
"387 84 OFFCURVE",
"384 91 OFFCURVE",
"386 102 CURVE SMOOTH",
"390 128 OFFCURVE",
"438 278 OFFCURVE",
"450 296 CURVE",
"458 307 OFFCURVE",
"495 420 OFFCURVE",
"504 443 CURVE"
);
},
{
closed = 1;
nodes = (
"749 390 OFFCURVE",
"728 404 OFFCURVE",
"702 417 CURVE SMOOTH",
"675 431 OFFCURVE",
"623 442 OFFCURVE",
"592 446 CURVE",
"580 448 OFFCURVE",
"576 445 OFFCURVE",
"573 433 CURVE SMOOTH",
"571 425 OFFCURVE",
"569 419 OFFCURVE",
"566 412 CURVE SMOOTH",
"549 373 OFFCURVE",
"540 330 OFFCURVE",
"523 291 CURVE SMOOTH",
"515 272 OFFCURVE",
"507 252 OFFCURVE",
"500 233 CURVE SMOOTH",
"485 194 OFFCURVE",
"457 125 OFFCURVE",
"453 85 CURVE",
"452 79 OFFCURVE",
"452 75 OFFCURVE",
"450 69 CURVE",
"450 65 OFFCURVE",
"454 61 OFFCURVE",
"458 61 CURVE SMOOTH",
"464 61 OFFCURVE",
"470 66 OFFCURVE",
"477 65 CURVE",
"502 60 OFFCURVE",
"602 81 OFFCURVE",
"627 93 CURVE SMOOTH",
"707 132 OFFCURVE",
"799 228 OFFCURVE",
"781 325 CURVE SMOOTH",
"778 340 OFFCURVE",
"774 354 OFFCURVE",
"770 369 CURVE"
);
},
{
closed = 1;
nodes = (
"433 -35 OFFCURVE",
"428 -71 OFFCURVE",
"424 -107 CURVE",
"397 -122 LINE",
"390 -119 OFFCURVE",
"383 -116 OFFCURVE",
"376 -114 CURVE",
"365 -112 OFFCURVE",
"359 -106 OFFCURVE",
"354 -97 CURVE SMOOTH",
"336 -64 OFFCURVE",
"368 -67 OFFCURVE",
"370 -38 CURVE",
"359 -14 OFFCURVE",
"366 -11 OFFCURVE",
"370 13 CURVE",
"369 17 LINE",
"337 27 OFFCURVE",
"260 53 OFFCURVE",
"238 77 CURVE",
"218 85 OFFCURVE",
"209 100 OFFCURVE",
"198 117 CURVE SMOOTH",
"158 175 OFFCURVE",
"140 229 OFFCURVE",
"160 298 CURVE",
"164 310 OFFCURVE",
"166 323 OFFCURVE",
"170 335 CURVE SMOOTH",
"192 408 OFFCURVE",
"312 486 OFFCURVE",
"384 499 CURVE SMOOTH",
"401 502 OFFCURVE",
"417 508 OFFCURVE",
"434 512 CURVE",
"444 515 OFFCURVE",
"454 514 OFFCURVE",
"463 516 CURVE",
"482 521 OFFCURVE",
"507 516 OFFCURVE",
"527 516 CURVE",
"541 535 OFFCURVE",
"544 566 OFFCURVE",
"553 588 CURVE",
"574 594 LINE",
"588 586 OFFCURVE",
"599 575 OFFCURVE",
"610 563 CURVE",
"616 534 OFFCURVE",
"599 523 OFFCURVE",
"600 500 CURVE",
"674 491 OFFCURVE",
"753 460 OFFCURVE",
"803 404 CURVE SMOOTH",
"828 376 OFFCURVE",
"828 366 OFFCURVE",
"839 331 CURVE SMOOTH",
"853 286 OFFCURVE",
"852 246 OFFCURVE",
"831 203 CURVE SMOOTH",
"806 153 OFFCURVE",
"772 101 OFFCURVE",
"725 69 CURVE SMOOTH",
"697 50 OFFCURVE",
"667 32 OFFCURVE",
"633 25 CURVE SMOOTH",
"611 21 OFFCURVE",
"585 20 OFFCURVE",
"564 12 CURVE SMOOTH",
"541 3 OFFCURVE",
"515 12 OFFCURVE",
"492 4 CURVE SMOOTH",
"477 -1 OFFCURVE",
"452 8 OFFCURVE",
"439 1 CURVE"
);
}
);
width = 802;
}
);
},
{
color = 11;
glyphname = "Ha-cy.ss02";
lastChange = "2017-12-14 19:20:59 +0000";
layers = (
{
layerId = UUID0;
paths = (
{
closed = 1;
nodes = (
"401 361 OFFCURVE",
"559 513 OFFCURVE",
"583 521 CURVE SMOOTH",
"603 528 OFFCURVE",
"619 539 OFFCURVE",
"635 552 CURVE",
"644 555 OFFCURVE",
"653 561 OFFCURVE",
"658 569 CURVE",
"658 583 OFFCURVE",
"640 615 OFFCURVE",
"625 616 CURVE",
"574 591 OFFCURVE",
"476 521 OFFCURVE",
"437 481 CURVE SMOOTH",
"411 453 OFFCURVE",
"384 426 OFFCURVE",
"358 398 CURVE",
"344 433 OFFCURVE",
"327 466 OFFCURVE",
"317 503 CURVE SMOOTH",
"309 533 OFFCURVE",
"267 659 OFFCURVE",
"218 638 CURVE",
"201 615 OFFCURVE",
"198 601 OFFCURVE",
"212 575 CURVE SMOOTH",
"252 504 OFFCURVE",
"279 433 OFFCURVE",
"302 355 CURVE",
"278 331 OFFCURVE",
"256 311 OFFCURVE",
"235 284 CURVE",
"229 277 OFFCURVE",
"213 255 OFFCURVE",
"204 255 CURVE",
"189 233 OFFCURVE",
"95 122 OFFCURVE",
"74 113 CURVE",
"66 99 OFFCURVE",
"57 85 OFFCURVE",
"45 73 CURVE SMOOTH",
"24 52 OFFCURVE",
"33 52 OFFCURVE",
"49 31 CURVE SMOOTH",
"56 22 OFFCURVE",
"66 4 OFFCURVE",
"79 17 CURVE",
"92 17 OFFCURVE",
"193 130 OFFCURVE",
"195 144 CURVE",
"206 150 OFFCURVE",
"230 174 OFFCURVE",
"231 188 CURVE",
"256 201 OFFCURVE",
"311 285 OFFCURVE",
"330 271 CURVE",
"341 244 OFFCURVE",
"355 218 OFFCURVE",
"366 191 CURVE SMOOTH",
"405 96 OFFCURVE",
"414 91 OFFCURVE",
"473 10 CURVE",
"484 -4 OFFCURVE",
"505 -34 OFFCURVE",
"525 -38 CURVE",
"533 -40 OFFCURVE",
"543 -46 OFFCURVE",
"551 -46 CURVE SMOOTH",
"585 -46 OFFCURVE",
"587 -23 OFFCURVE",
"589 6 CURVE",
"589 11 OFFCURVE",
"589 43 OFFCURVE",
"586 47 CURVE SMOOTH",
"574 63 OFFCURVE",
"554 37 OFFCURVE",
"546 29 CURVE SMOOTH",
"530 14 OFFCURVE",
"496 71 OFFCURVE",
"490 80 CURVE",
"450 145 OFFCURVE",
"420 217 OFFCURVE",
"389 287 CURVE SMOOTH",
"369 332 LINE"
);
}
);
width = 524;
}
);
},
{
color = 11;
glyphname = "Che-cy.ss02";
lastChange = "2017-12-14 19:20:59 +0000";
layers = (
{
layerId = UUID0;
paths = (
{
closed = 1;
nodes = (
"308 101 OFFCURVE",
"326 178 OFFCURVE",
"353 249 CURVE SMOOTH",
"357 260 OFFCURVE",
"383 316 OFFCURVE",
"377 324 CURVE",
"354 297 OFFCURVE",
"247 178 OFFCURVE",
"207 198 CURVE",
"199 198 LINE",
"192 193 OFFCURVE",
"184 197 OFFCURVE",
"177 200 CURVE SMOOTH",
"166 205 OFFCURVE",
"155 212 OFFCURVE",
"145 219 CURVE SMOOTH",
"138 224 OFFCURVE",
"137 232 OFFCURVE",
"132 238 CURVE SMOOTH",
"126 245 OFFCURVE",
"126 248 OFFCURVE",
"125 257 CURVE SMOOTH",
"124 267 OFFCURVE",
"119 277 OFFCURVE",
"120 287 CURVE SMOOTH",
"121 300 OFFCURVE",
"126 312 OFFCURVE",
"125 326 CURVE SMOOTH",
"124 339 OFFCURVE",
"167 472 OFFCURVE",
"175 478 CURVE",
"177 483 LINE",
"185 509 OFFCURVE",
"198 532 OFFCURVE",
"207 558 CURVE SMOOTH",
"212 571 OFFCURVE",
"220 582 OFFCURVE",
"227 594 CURVE SMOOTH",
"237 612 OFFCURVE",
"243 631 OFFCURVE",
"252 649 CURVE",
"251 661 OFFCURVE",
"257 667 OFFCURVE",
"266 673 CURVE",
"280 665 OFFCURVE",
"315 653 OFFCURVE",
"310 633 CURVE SMOOTH",
"301 595 OFFCURVE",
"280 553 OFFCURVE",
"262 518 CURVE SMOOTH",
"249 493 OFFCURVE",
"243 466 OFFCURVE",
"232 440 CURVE SMOOTH",
"220 409 OFFCURVE",
"212 377 OFFCURVE",
"202 346 CURVE SMOOTH",
"197 330 OFFCURVE",
"197 312 OFFCURVE",
"190 296 CURVE",
"191 291 OFFCURVE",
"195 258 OFFCURVE",
"196 255 CURVE",
"206 241 OFFCURVE",
"271 300 OFFCURVE",
"282 310 CURVE SMOOTH",
"319 343 OFFCURVE",
"350 383 OFFCURVE",
"381 421 CURVE SMOOTH",
"392 435 OFFCURVE",
"399 452 OFFCURVE",
"411 467 CURVE SMOOTH",
"415 472 OFFCURVE",
"415 478 OFFCURVE",
"418 483 CURVE SMOOTH",
"432 506 OFFCURVE",
"448 528 OFFCURVE",
"463 550 CURVE SMOOTH",
"475 567 OFFCURVE",
"490 589 OFFCURVE",
"495 610 CURVE SMOOTH",
"497 619 OFFCURVE",
"502 620 OFFCURVE",
"508 626 CURVE",
"518 626 OFFCURVE",
"526 616 OFFCURVE",
"537 619 CURVE",
"554 613 OFFCURVE",
"563 601 OFFCURVE",
"558 583 CURVE SMOOTH",
"545 533 OFFCURVE",
"517 486 OFFCURVE",
"497 439 CURVE",
"498 424 OFFCURVE",
"482 413 OFFCURVE",
"484 398 CURVE",
"472 379 OFFCURVE",
"390 143 OFFCURVE",
"393 137 CURVE",
"389 133 OFFCURVE",
"384 128 OFFCURVE",
"388 122 CURVE",
"380 103 OFFCURVE",
"377 84 OFFCURVE",
"366 67 CURVE",
"364 65 OFFCURVE",
"365 62 OFFCURVE",
"367 60 CURVE",
"357 40 OFFCURVE",
"363 -5 OFFCURVE",
"335 -7 CURVE SMOOTH",
"314 -8 OFFCURVE",
"299 8 OFFCURVE",
"292 26 CURVE"
);
}
);
width = 524;
}
);
leftKerningGroup = uni0427;
rightKerningGroup = uni0427;
},
{
color = 11;
glyphname = "Tse-cy.ss02";
lastChange = "2017-12-14 19:20:59 +0000";
layers = (
{
layerId = UUID0;
paths = (
{
closed = 1;
nodes = (
"24 201 OFFCURVE",
"166 544 OFFCURVE",
"162 559 CURVE",
"171 567 OFFCURVE",
"205 660 OFFCURVE",
"210 677 CURVE SMOOTH",
"213 688 OFFCURVE",
"217 698 OFFCURVE",
"227 704 CURVE",
"253 695 OFFCURVE",
"283 688 OFFCURVE",
"272 653 CURVE SMOOTH",
"269 643 OFFCURVE",
"265 633 OFFCURVE",
"260 624 CURVE",
"237 578 OFFCURVE",
"218 531 OFFCURVE",
"204 482 CURVE SMOOTH",
"194 447 OFFCURVE",
"180 414 OFFCURVE",
"168 380 CURVE SMOOTH",
"128 265 OFFCURVE",
"85 148 OFFCURVE",
"85 25 CURVE SMOOTH",
"85 7 OFFCURVE",
"142 13 OFFCURVE",
"153 18 CURVE",
"173 18 OFFCURVE",
"192 24 OFFCURVE",
"211 30 CURVE SMOOTH",
"272 48 OFFCURVE",
"336 65 OFFCURVE",
"399 72 CURVE",
"403 79 OFFCURVE",
"399 88 OFFCURVE",
"402 95 CURVE SMOOTH",
"404 100 OFFCURVE",
"413 145 OFFCURVE",
"413 148 CURVE",
"427 177 OFFCURVE",
"431 210 OFFCURVE",
"441 240 CURVE SMOOTH",
"467 319 OFFCURVE",
"496 397 OFFCURVE",
"523 476 CURVE SMOOTH",
"535 512 OFFCURVE",
"550 549 OFFCURVE",
"565 584 CURVE SMOOTH",
"568 591 OFFCURVE",
"570 597 OFFCURVE",
"567 604 CURVE SMOOTH",
"563 614 OFFCURVE",
"565 618 OFFCURVE",
"575 624 CURVE",
"590 632 OFFCURVE",
"593 659 OFFCURVE",
"596 675 CURVE SMOOTH",
"600 694 OFFCURVE",
"607 691 OFFCURVE",
"620 699 CURVE",
"642 692 OFFCURVE",
"644 689 OFFCURVE",
"660 673 CURVE",
"666 644 OFFCURVE",
"621 554 OFFCURVE",
"609 521 CURVE SMOOTH",
"576 431 OFFCURVE",
"539 341 OFFCURVE",
"512 249 CURVE SMOOTH",
"499 205 OFFCURVE",
"483 162 OFFCURVE",
"475 117 CURVE SMOOTH",
"473 105 OFFCURVE",
"469 94 OFFCURVE",
"465 82 CURVE",
"466 74 LINE",
"486 63 OFFCURVE",
"531 72 OFFCURVE",
"549 57 CURVE",
"555 42 OFFCURVE",
"563 39 OFFCURVE",
"562 20 CURVE SMOOTH",
"561 -22 OFFCURVE",
"560 -20 OFFCURVE",
"553 -60 CURVE SMOOTH",
"547 -95 OFFCURVE",
"525 -125 OFFCURVE",
"521 -160 CURVE SMOOTH",
"518 -185 OFFCURVE",
"507 -194 OFFCURVE",
"482 -188 CURVE SMOOTH",
"463 -184 OFFCURVE",
"448 -162 OFFCURVE",
"455 -143 CURVE SMOOTH",
"465 -114 OFFCURVE",
"510 -3 OFFCURVE",
"495 19 CURVE",
"435 19 OFFCURVE",
"398 19 OFFCURVE",
"339 5 CURVE SMOOTH",
"315 -1 OFFCURVE",
"263 -15 OFFCURVE",
"243 -25 CURVE SMOOTH",
"235 -29 OFFCURVE",
"220 -29 OFFCURVE",
"210 -32 CURVE SMOOTH",
"183 -41 OFFCURVE",
"151 -33 OFFCURVE",
"125 -43 CURVE SMOOTH",
"117 -46 OFFCURVE",
"78 -35 OFFCURVE",
"67 -32 CURVE",
"44 -27 OFFCURVE",
"19 3 OFFCURVE",
"20 27 CURVE SMOOTH",
"22 54 OFFCURVE",
"17 91 OFFCURVE",
"26 117 CURVE"
);
}
);
width = 650;
}
);
},
{
color = 11;
glyphname = "Shcha-cy.ss02";
lastChange = "2017-12-14 19:20:59 +0000";
layers = (
{
layerId = UUID0;
paths = (
{
closed = 1;
nodes = (
"324 697 OFFCURVE",
"335 686 OFFCURVE",
"349 680 CURVE",
"362 665 OFFCURVE",
"362 647 OFFCURVE",
"355 629 CURVE SMOOTH",
"344 601 OFFCURVE",
"289 472 OFFCURVE",
"289 451 CURVE",
"276 427 OFFCURVE",
"273 400 OFFCURVE",
"261 376 CURVE SMOOTH",
"249 351 OFFCURVE",
"241 320 OFFCURVE",
"237 292 CURVE SMOOTH",
"232 251 OFFCURVE",
"215 207 OFFCURVE",
"205 166 CURVE SMOOTH",
"197 135 OFFCURVE",
"204 106 OFFCURVE",
"222 80 CURVE",
"233 73 OFFCURVE",
"257 61 OFFCURVE",
"270 60 CURVE SMOOTH",
"286 59 OFFCURVE",
"302 53 OFFCURVE",
"318 54 CURVE SMOOTH",
"350 55 OFFCURVE",
"387 48 OFFCURVE",
"417 59 CURVE",
"442 56 OFFCURVE",
"466 65 OFFCURVE",
"491 65 CURVE SMOOTH",
"501 65 OFFCURVE",
"510 70 OFFCURVE",
"519 70 CURVE SMOOTH",
"557 69 OFFCURVE",
"602 82 OFFCURVE",
"640 89 CURVE SMOOTH",
"666 94 OFFCURVE",
"692 96 OFFCURVE",
"718 101 CURVE SMOOTH",
"723 102 OFFCURVE",
"764 106 OFFCURVE",
"758 110 CURVE",
"753 113 LINE",
"750 121 OFFCURVE",
"741 124 OFFCURVE",
"737 132 CURVE",
"734 140 OFFCURVE",
"739 148 OFFCURVE",
"738 156 CURVE SMOOTH",
"736 176 OFFCURVE",
"780 322 OFFCURVE",
"792 347 CURVE SMOOTH",
"797 357 OFFCURVE",
"800 366 OFFCURVE",
"802 377 CURVE SMOOTH",
"808 407 OFFCURVE",
"824 435 OFFCURVE",
"831 465 CURVE SMOOTH",
"836 485 OFFCURVE",
"855 525 OFFCURVE",
"862 553 CURVE SMOOTH",
"868 576 OFFCURVE",
"892 622 OFFCURVE",
"889 642 CURVE",
"916 665 OFFCURVE",
"963 641 OFFCURVE",
"957 612 CURVE",
"955 600 OFFCURVE",
"927 532 OFFCURVE",
"920 514 CURVE SMOOTH",
"899 458 OFFCURVE",
"875 402 OFFCURVE",
"858 344 CURVE SMOOTH",
"849 311 OFFCURVE",
"832 281 OFFCURVE",
"826 247 CURVE SMOOTH",
"823 230 OFFCURVE",
"813 215 OFFCURVE",
"813 197 CURVE",
"806 187 OFFCURVE",
"802 128 OFFCURVE",
"799 113 CURVE",
"806 110 OFFCURVE",
"814 112 OFFCURVE",
"821 112 CURVE",
"833 122 OFFCURVE",
"846 112 OFFCURVE",
"859 115 CURVE",
"877 110 OFFCURVE",
"895 102 OFFCURVE",
"904 84 CURVE",
"900 60 OFFCURVE",
"900 34 OFFCURVE",
"893 11 CURVE SMOOTH",
"877 -41 OFFCURVE",
"862 -94 OFFCURVE",
"848 -147 CURVE SMOOTH",
"843 -166 OFFCURVE",
"821 -160 OFFCURVE",
"805 -160 CURVE",
"791 -145 LINE",
"788 -87 OFFCURVE",
"805 -62 OFFCURVE",
"816 -9 CURVE SMOOTH",
"819 5 OFFCURVE",
"825 18 OFFCURVE",
"825 32 CURVE SMOOTH",
"825 39 OFFCURVE",
"831 43 OFFCURVE",
"830 56 CURVE",
"815 71 OFFCURVE",
"667 30 OFFCURVE",
"648 34 CURVE",
"644 31 OFFCURVE",
"563 21 OFFCURVE",
"555 22 CURVE SMOOTH",
"539 24 OFFCURVE",
"486 9 OFFCURVE",
"461 8 CURVE SMOOTH",
"444 7 OFFCURVE",
"431 6 OFFCURVE",
"415 3 CURVE",
"398 -1 OFFCURVE",
"373 1 OFFCURVE",
"355 1 CURVE SMOOTH",
"308 0 OFFCURVE",
"268 6 OFFCURVE",
"224 21 CURVE SMOOTH",
"193 31 OFFCURVE",
"171 59 OFFCURVE",
"153 85 CURVE SMOOTH",
"122 129 OFFCURVE",
"150 225 OFFCURVE",
"166 272 CURVE SMOOTH",
"169 280 OFFCURVE",
"159 290 OFFCURVE",
"170 295 CURVE",
"173 303 OFFCURVE",
"176 311 OFFCURVE",
"177 320 CURVE SMOOTH",
"181 348 OFFCURVE",
"192 375 OFFCURVE",
"200 402 CURVE SMOOTH",
"211 441 OFFCURVE",
"228 478 OFFCURVE",
"239 517 CURVE SMOOTH",
"253 567 OFFCURVE",
"285 615 OFFCURVE",
"295 666 CURVE SMOOTH",
"298 681 OFFCURVE",
"297 680 OFFCURVE",
"308 692 CURVE"
);
},
{
closed = 1;
nodes = (
"663 618 OFFCURVE",
"668 608 OFFCURVE",
"667 600 CURVE SMOOTH",
"665 583 OFFCURVE",
"627 501 OFFCURVE",
"618 479 CURVE SMOOTH",
"591 412 OFFCURVE",
"567 345 OFFCURVE",
"546 276 CURVE SMOOTH",
"531 226 OFFCURVE",
"522 175 OFFCURVE",
"512 124 CURVE SMOOTH",
"510 115 OFFCURVE",
"505 105 OFFCURVE",
"498 99 CURVE",
"492 93 OFFCURVE",
"482 92 OFFCURVE",
"475 96 CURVE SMOOTH",
"466 101 OFFCURVE",
"447 110 OFFCURVE",
"443 120 CURVE SMOOTH",
"438 133 OFFCURVE",
"482 296 OFFCURVE",
"493 311 CURVE",
"494 322 OFFCURVE",
"534 440 OFFCURVE",
"540 450 CURVE",
"540 456 OFFCURVE",
"597 606 OFFCURVE",
"604 626 CURVE SMOOTH",
"615 657 OFFCURVE",
"641 636 OFFCURVE",
"660 626 CURVE"
);
}
);
width = 980;
}
);
},
{
color = 11;
glyphname = "Softsign-cy.ss02";
lastChange = "2017-12-14 19:20:59 +0000";
layers = (
{
layerId = UUID0;
paths = (
{
closed = 1;
nodes = (
"208 444 OFFCURVE",
"198 452 OFFCURVE",
"186 462 CURVE",
"177 436 OFFCURVE",
"118 270 OFFCURVE",
"118 259 CURVE SMOOTH",
"118 247 OFFCURVE",
"111 238 OFFCURVE",
"108 227 CURVE SMOOTH",
"99 192 OFFCURVE",
"91 155 OFFCURVE",
"84 119 CURVE SMOOTH",
"80 97 OFFCURVE",
"80 76 OFFCURVE",
"80 54 CURVE",
"104 48 OFFCURVE",
"138 61 OFFCURVE",
"161 72 CURVE",
"164 72 LINE",
"232 83 OFFCURVE",
"315 163 OFFCURVE",
"344 224 CURVE SMOOTH",
"365 267 OFFCURVE",
"362 317 OFFCURVE",
"337 357 CURVE SMOOTH",
"322 380 OFFCURVE",
"283 420 OFFCURVE",
"256 427 CURVE SMOOTH",
"245 430 OFFCURVE",
"229 430 OFFCURVE",
"217 431 CURVE"
);
},
{
closed = 1;
nodes = (
"205 504 OFFCURVE",
"213 505 OFFCURVE",
"218 504 CURVE SMOOTH",
"223 503 OFFCURVE",
"228 497 OFFCURVE",
"232 495 CURVE",
"296 459 OFFCURVE",
"336 443 OFFCURVE",
"382 379 CURVE SMOOTH",
"396 359 OFFCURVE",
"411 323 OFFCURVE",
"416 299 CURVE SMOOTH",
"418 290 OFFCURVE",
"415 283 OFFCURVE",
"418 274 CURVE SMOOTH",
"423 259 OFFCURVE",
"417 236 OFFCURVE",
"412 222 CURVE SMOOTH",
"400 186 OFFCURVE",
"391 163 OFFCURVE",
"366 134 CURVE SMOOTH",
"293 49 OFFCURVE",
"235 31 OFFCURVE",
"133 -4 CURVE SMOOTH",
"115 -10 OFFCURVE",
"95 -11 OFFCURVE",
"76 -10 CURVE SMOOTH",
"62 -9 OFFCURVE",
"52 0 OFFCURVE",
"41 7 CURVE SMOOTH",
"25 17 OFFCURVE",
"15 28 OFFCURVE",
"13 48 CURVE SMOOTH",
"6 110 OFFCURVE",
"29 190 OFFCURVE",
"47 250 CURVE SMOOTH",
"52 267 OFFCURVE",
"56 285 OFFCURVE",
"61 302 CURVE SMOOTH",
"75 345 OFFCURVE",
"94 387 OFFCURVE",
"102 432 CURVE SMOOTH",
"103 437 OFFCURVE",
"104 439 OFFCURVE",
"106 443 CURVE SMOOTH",
"134 498 OFFCURVE",
"151 599 OFFCURVE",
"186 647 CURVE",
"187 664 OFFCURVE",
"194 680 OFFCURVE",
"197 697 CURVE SMOOTH",
"206 741 OFFCURVE",
"277 708 OFFCURVE",
"264 671 CURVE SMOOTH",
"252 639 OFFCURVE",
"242 602 OFFCURVE",
"224 573 CURVE",
"219 549 OFFCURVE",
"208 527 OFFCURVE",
"200 504 CURVE"
);
}
);
width = 446;
}
);
rightKerningGroup = uni042C;
},
{
color = 11;
glyphname = "Iu-cy.ss02";
lastChange = "2017-12-14 19:20:59 +0000";
layers = (
{
layerId = UUID0;
paths = (
{
closed = 1;
nodes = (
"729 582 OFFCURVE",
"707 548 OFFCURVE",
"687 522 CURVE SMOOTH",
"660 488 OFFCURVE",
"588 332 OFFCURVE",
"588 290 CURVE",
"576 262 OFFCURVE",
"560 199 OFFCURVE",
"561 169 CURVE SMOOTH",
"562 142 OFFCURVE",
"553 116 OFFCURVE",
"554 89 CURVE",
"550 84 OFFCURVE",
"554 46 OFFCURVE",
"557 40 CURVE",
"592 33 OFFCURVE",
"635 65 OFFCURVE",
"661 86 CURVE SMOOTH",
"672 95 OFFCURVE",
"680 108 OFFCURVE",
"691 117 CURVE",
"692 136 OFFCURVE",
"717 147 OFFCURVE",
"720 158 CURVE SMOOTH",
"721 162 OFFCURVE",
"752 213 OFFCURVE",
"757 221 CURVE SMOOTH",
"786 266 OFFCURVE",
"813 344 OFFCURVE",
"820 396 CURVE",
"825 405 OFFCURVE",
"824 414 OFFCURVE",
"825 424 CURVE SMOOTH",
"826 434 OFFCURVE",
"830 442 OFFCURVE",
"830 452 CURVE",
"832 503 OFFCURVE",
"834 669 OFFCURVE",
"741 612 CURVE"
);
},
{
closed = 1;
nodes = (
"222 304 OFFCURVE",
"255 423 OFFCURVE",
"259 428 CURVE",
"258 446 OFFCURVE",
"330 653 OFFCURVE",
"341 688 CURVE",
"344 699 OFFCURVE",
"348 701 OFFCURVE",
"359 702 CURVE SMOOTH",
"372 703 OFFCURVE",
"403 696 OFFCURVE",
"405 681 CURVE SMOOTH",
"407 666 OFFCURVE",
"405 647 OFFCURVE",
"397 634 CURVE SMOOTH",
"381 607 OFFCURVE",
"306 371 OFFCURVE",
"306 354 CURVE",
"311 348 OFFCURVE",
"349 371 OFFCURVE",
"360 374 CURVE",
"369 377 OFFCURVE",
"377 383 OFFCURVE",
"386 387 CURVE",
"433 412 OFFCURVE",
"507 434 OFFCURVE",
"560 437 CURVE",
"564 444 OFFCURVE",
"568 451 OFFCURVE",
"571 458 CURVE SMOOTH",
"590 501 OFFCURVE",
"615 542 OFFCURVE",
"640 582 CURVE",
"647 586 OFFCURVE",
"642 594 OFFCURVE",
"645 600 CURVE SMOOTH",
"649 608 OFFCURVE",
"672 642 OFFCURVE",
"678 646 CURVE",
"694 659 OFFCURVE",
"731 674 OFFCURVE",
"751 682 CURVE SMOOTH",
"763 687 OFFCURVE",
"771 676 OFFCURVE",
"782 678 CURVE",
"833 664 OFFCURVE",
"863 638 OFFCURVE",
"877 586 CURVE SMOOTH",
"883 564 OFFCURVE",
"890 542 OFFCURVE",
"889 519 CURVE",
"897 499 OFFCURVE",
"897 443 OFFCURVE",
"890 423 CURVE SMOOTH",
"889 420 OFFCURVE",
"889 416 OFFCURVE",
"889 412 CURVE SMOOTH",
"889 375 OFFCURVE",
"864 288 OFFCURVE",
"848 253 CURVE SMOOTH",
"816 179 OFFCURVE",
"790 146 OFFCURVE",
"749 80 CURVE SMOOTH",
"722 37 OFFCURVE",
"631 -19 OFFCURVE",
"580 -19 CURVE SMOOTH",
"561 -19 OFFCURVE",
"545 -21 OFFCURVE",
"527 -14 CURVE SMOOTH",
"482 3 OFFCURVE",
"476 57 OFFCURVE",
"481 99 CURVE",
"491 114 OFFCURVE",
"485 192 OFFCURVE",
"496 211 CURVE",
"493 249 OFFCURVE",
"523 333 OFFCURVE",
"535 372 CURVE",
"502 374 OFFCURVE",
"385 320 OFFCURVE",
"351 303 CURVE SMOOTH",
"326 291 OFFCURVE",
"304 273 OFFCURVE",
"282 256 CURVE SMOOTH",
"273 249 OFFCURVE",
"253 160 OFFCURVE",
"253 145 CURVE",
"245 132 OFFCURVE",
"253 116 OFFCURVE",
"244 103 CURVE",
"244 68 OFFCURVE",
"247 11 OFFCURVE",
"216 -13 CURVE",
"180 -9 OFFCURVE",
"172 -12 OFFCURVE",
"159 26 CURVE",
"165 32 OFFCURVE",
"159 38 OFFCURVE",
"157 44 CURVE SMOOTH",
"144 85 OFFCURVE",
"135 151 OFFCURVE",
"140 193 CURVE SMOOTH",
"143 218 OFFCURVE",
"194 273 OFFCURVE",
"216 286 CURVE"
);
}
);
width = 796;
}
);
},
{
color = 11;
glyphname = "Ia-cy.ss02";
lastChange = "2017-12-14 19:20:59 +0000";
layers = (
{
layerId = UUID0;
paths = (
{
closed = 1;
nodes = (
"496 614 OFFCURVE",
"480 622 OFFCURVE",
"466 615 CURVE",
"461 619 OFFCURVE",
"385 606 OFFCURVE",
"371 606 CURVE",
"357 597 OFFCURVE",
"341 596 OFFCURVE",
"326 589 CURVE SMOOTH",
"299 577 OFFCURVE",
"277 560 OFFCURVE",
"262 534 CURVE SMOOTH",
"236 490 OFFCURVE",
"226 462 OFFCURVE",
"228 410 CURVE SMOOTH",
"229 394 OFFCURVE",
"236 377 OFFCURVE",
"245 363 CURVE SMOOTH",
"284 302 OFFCURVE",
"328 302 OFFCURVE",
"383 344 CURVE SMOOTH",
"397 355 OFFCURVE",
"401 340 OFFCURVE",
"411 345 CURVE",
"438 426 OFFCURVE",
"468 539 OFFCURVE",
"510 611 CURVE"
);
},
{
closed = 1;
nodes = (
"373 255 OFFCURVE",
"340 240 OFFCURVE",
"330 233 CURVE SMOOTH",
"320 226 OFFCURVE",
"312 216 OFFCURVE",
"300 211 CURVE SMOOTH",
"295 209 OFFCURVE",
"290 205 OFFCURVE",
"286 201 CURVE SMOOTH",
"267 181 OFFCURVE",
"244 166 OFFCURVE",
"225 146 CURVE SMOOTH",
"173 94 OFFCURVE",
"116 36 OFFCURVE",
"87 -32 CURVE SMOOTH",
"84 -39 OFFCURVE",
"85 -46 OFFCURVE",
"83 -53 CURVE",
"78 -55 OFFCURVE",
"74 -58 OFFCURVE",
"69 -60 CURVE",
"49 -57 OFFCURVE",
"27 -47 OFFCURVE",
"21 -25 CURVE SMOOTH",
"13 6 OFFCURVE",
"60 62 OFFCURVE",
"81 83 CURVE SMOOTH",
"99 101 OFFCURVE",
"112 125 OFFCURVE",
"130 143 CURVE SMOOTH",
"169 183 OFFCURVE",
"222 241 OFFCURVE",
"270 269 CURVE",
"273 274 LINE",
"264 285 OFFCURVE",
"242 290 OFFCURVE",
"231 301 CURVE SMOOTH",
"221 311 OFFCURVE",
"210 320 OFFCURVE",
"201 331 CURVE SMOOTH",
"151 390 OFFCURVE",
"155 473 OFFCURVE",
"186 541 CURVE SMOOTH",
"196 562 OFFCURVE",
"214 579 OFFCURVE",
"225 600 CURVE",
"258 628 OFFCURVE",
"281 644 OFFCURVE",
"324 655 CURVE SMOOTH",
"339 659 OFFCURVE",
"357 660 OFFCURVE",
"371 665 CURVE SMOOTH",
"379 668 OFFCURVE",
"387 667 OFFCURVE",
"395 669 CURVE SMOOTH",
"414 674 OFFCURVE",
"433 670 OFFCURVE",
"452 675 CURVE",
"475 667 OFFCURVE",
"505 676 OFFCURVE",
"525 666 CURVE",
"544 681 OFFCURVE",
"542 679 OFFCURVE",
"562 668 CURVE SMOOTH",
"571 663 OFFCURVE",
"567 677 OFFCURVE",
"589 652 CURVE",
"591 644 OFFCURVE",
"592 635 OFFCURVE",
"594 627 CURVE",
"535 513 OFFCURVE",
"498 411 OFFCURVE",
"461 289 CURVE SMOOTH",
"446 238 OFFCURVE",
"440 185 OFFCURVE",
"425 135 CURVE",
"427 121 OFFCURVE",
"402 -12 OFFCURVE",
"395 -17 CURVE SMOOTH",
"392 -19 OFFCURVE",
"390 -20 OFFCURVE",
"388 -17 CURVE",
"365 -17 OFFCURVE",
"341 -15 OFFCURVE",
"334 11 CURVE",
"345 44 OFFCURVE",
"350 81 OFFCURVE",
"356 115 CURVE SMOOTH",
"358 126 OFFCURVE",
"358 140 OFFCURVE",
"361 151 CURVE SMOOTH",
"362 155 OFFCURVE",
"365 158 OFFCURVE",
"366 162 CURVE",
"376 193 OFFCURVE",
"381 231 OFFCURVE",
"387 263 CURVE"
);
}
);
width = 548;
}
);
},
{
color = 10;
glyphname = "a-cy.ss01";
lastChange = "2017-12-14 19:20:52 +0000";
layers = (
{
layerId = UUID0;
paths = (
{
closed = 1;
nodes = (
"330 125 OFFCURVE",
"352 41 OFFCURVE",
"382 41 CURVE SMOOTH",
"406 41 OFFCURVE",
"453 68 OFFCURVE",
"453 95 CURVE SMOOTH",
"453 123 OFFCURVE",
"425 122 OFFCURVE",
"406 114 CURVE SMOOTH",
"382 104 OFFCURVE",
"381 123 OFFCURVE",
"382 142 CURVE SMOOTH",
"384 185 OFFCURVE",
"406 273 OFFCURVE",
"394 307 CURVE SMOOTH",
"387 326 OFFCURVE",
"358 363 OFFCURVE",
"340 373 CURVE SMOOTH",
"313 388 OFFCURVE",
"292 385 OFFCURVE",
"268 367 CURVE SMOOTH",
"198 315 OFFCURVE",
"126 222 OFFCURVE",
"109 136 CURVE SMOOTH",
"104 109 OFFCURVE",
"92 79 OFFCURVE",
"109 53 CURVE",
"115 50 OFFCURVE",
"122 46 OFFCURVE",
"127 41 CURVE",
"132 42 OFFCURVE",
"132 40 OFFCURVE",
"132 36 CURVE SMOOTH",
"132 26 OFFCURVE",
"178 27 OFFCURVE",
"185 29 CURVE SMOOTH",
"204 35 OFFCURVE",
"228 48 OFFCURVE",
"240 65 CURVE SMOOTH",
"257 90 OFFCURVE",
"303 128 OFFCURVE",
"324 148 CURVE"
);
},
{
closed = 1;
nodes = (
"338 255 OFFCURVE",
"323 228 OFFCURVE",
"305 204 CURVE SMOOTH",
"294 189 OFFCURVE",
"152 18 OFFCURVE",
"152 102 CURVE SMOOTH",
"152 144 OFFCURVE",
"272 329 OFFCURVE",
"315 322 CURVE SMOOTH",
"326 320 OFFCURVE",
"341 295 OFFCURVE",
"344 285 CURVE"
);
}
);
width = 401;
}
);
},
{
color = 10;
glyphname = "be-cy.ss01";
lastChange = "2017-12-14 19:20:52 +0000";
layers = (
{
layerId = UUID0;
paths = (
{
closed = 1;
nodes = (
"288 340 OFFCURVE",
"269 311 OFFCURVE",
"259 301 CURVE SMOOTH",
"225 267 OFFCURVE",
"192 174 OFFCURVE",
"186 126 CURVE SMOOTH",
"183 101 OFFCURVE",
"183 98 OFFCURVE",
"189 73 CURVE",
"194 72 LINE",
"232 119 OFFCURVE",
"235 140 OFFCURVE",
"264 186 CURVE",
"266 196 OFFCURVE",
"270 209 OFFCURVE",
"274 218 CURVE SMOOTH",
"290 252 OFFCURVE",
"300 317 OFFCURVE",
"290 353 CURVE"
);
},
{
closed = 1;
nodes = (
"456 548 OFFCURVE",
"454 538 OFFCURVE",
"445 532 CURVE",
"439 533 OFFCURVE",
"432 532 OFFCURVE",
"426 535 CURVE SMOOTH",
"406 545 OFFCURVE",
"342 540 OFFCURVE",
"322 530 CURVE SMOOTH",
"312 525 OFFCURVE",
"293 526 OFFCURVE",
"286 519 CURVE",
"297 497 OFFCURVE",
"312 475 OFFCURVE",
"324 453 CURVE",
"326 448 OFFCURVE",
"323 442 OFFCURVE",
"328 438 CURVE",
"335 419 OFFCURVE",
"343 399 OFFCURVE",
"343 378 CURVE",
"349 364 OFFCURVE",
"359 315 OFFCURVE",
"353 302 CURVE",
"359 283 OFFCURVE",
"350 273 OFFCURVE",
"347 256 CURVE",
"346 248 LINE",
"346 221 OFFCURVE",
"343 210 OFFCURVE",
"332 185 CURVE",
"311 122 LINE",
"305 123 LINE",
"295 95 OFFCURVE",
"240 -13 OFFCURVE",
"202 2 CURVE",
"184 0 OFFCURVE",
"169 8 OFFCURVE",
"154 17 CURVE SMOOTH",
"51 78 OFFCURVE",
"164 342 OFFCURVE",
"247 391 CURVE",
"262 393 OFFCURVE",
"271 393 OFFCURVE",
"286 390 CURVE",
"293 413 OFFCURVE",
"254 483 OFFCURVE",
"240 502 CURVE SMOOTH",
"231 514 OFFCURVE",
"219 525 OFFCURVE",
"211 537 CURVE",
"205 547 OFFCURVE",
"206 562 OFFCURVE",
"219 566 CURVE",
"238 573 OFFCURVE",
"255 582 OFFCURVE",
"274 589 CURVE SMOOTH",
"285 593 OFFCURVE",
"343 605 OFFCURVE",
"355 606 CURVE",
"371 608 OFFCURVE",
"387 606 OFFCURVE",
"403 605 CURVE SMOOTH",
"432 603 OFFCURVE",
"444 579 OFFCURVE",
"459 558 CURVE"
);
}
);
width = 322;
}
);
},
{
color = 10;
glyphname = "ve-cy.ss01";
lastChange = "2017-12-14 19:20:52 +0000";
layers = (
{
layerId = UUID0;
paths = (
{
closed = 1;
nodes = (
"270 369 LINE",
"321 411 LINE",
"327 414 OFFCURVE",
"358 456 OFFCURVE",
"361 464 CURVE",
"385 483 OFFCURVE",
"420 580 OFFCURVE",
"416 611 CURVE",
"409 607 LINE",
"395 589 OFFCURVE",
"381 572 OFFCURVE",
"365 555 CURVE SMOOTH",
"319 504 OFFCURVE",
"286 433 OFFCURVE",
"265 368 CURVE"
);
},
{
closed = 1;
nodes = (
"236 75 LINE",
"283 122 OFFCURVE",
"277 172 OFFCURVE",
"277 233 CURVE SMOOTH",
"277 239 OFFCURVE",
"273 246 OFFCURVE",
"276 252 CURVE",
"272 265 OFFCURVE",
"268 283 OFFCURVE",
"259 294 CURVE",
"247 282 OFFCURVE",
"241 292 OFFCURVE",
"232 268 CURVE SMOOTH",
"218 232 OFFCURVE",
"202 106 OFFCURVE",
"227 75 CURVE"
);
},
{
closed = 1;
nodes = (
"176 46 OFFCURVE",
"156 65 OFFCURVE",
"154 85 CURVE SMOOTH",
"153 94 OFFCURVE",
"156 104 OFFCURVE",
"149 112 CURVE",
"158 119 OFFCURVE",
"144 129 OFFCURVE",
"152 137 CURVE",
"153 144 LINE",
"141 161 OFFCURVE",
"172 258 OFFCURVE",
"168 280 CURVE",
"162 286 OFFCURVE",
"155 291 OFFCURVE",
"149 297 CURVE",
"151 313 OFFCURVE",
"152 325 OFFCURVE",
"168 333 CURVE",
"175 330 LINE",
"179 331 OFFCURVE",
"183 334 OFFCURVE",
"187 335 CURVE",
"200 360 OFFCURVE",
"211 390 OFFCURVE",
"219 417 CURVE SMOOTH",
"226 440 OFFCURVE",
"241 474 OFFCURVE",
"255 493 CURVE",
"263 503 OFFCURVE",
"267 514 OFFCURVE",
"273 525 CURVE",
"291 561 OFFCURVE",
"338 616 OFFCURVE",
"372 637 CURVE SMOOTH",
"395 651 OFFCURVE",
"407 651 OFFCURVE",
"433 652 CURVE",
"447 644 OFFCURVE",
"473 622 OFFCURVE",
"473 605 CURVE SMOOTH",
"473 592 OFFCURVE",
"475 575 OFFCURVE",
"468 563 CURVE",
"470 545 OFFCURVE",
"459 530 OFFCURVE",
"457 513 CURVE",
"406 405 OFFCURVE",
"379 384 OFFCURVE",
"289 310 CURVE",
"312 302 OFFCURVE",
"332 288 OFFCURVE",
"333 261 CURVE",
"333 253 OFFCURVE",
"331 245 OFFCURVE",
"333 237 CURVE SMOOTH",
"337 220 OFFCURVE",
"336 205 OFFCURVE",
"338 188 CURVE SMOOTH",
"340 172 OFFCURVE",
"337 145 OFFCURVE",
"333 129 CURVE",
"332 124 OFFCURVE",
"329 125 OFFCURVE",
"329 119 CURVE SMOOTH",
"329 96 OFFCURVE",
"317 83 OFFCURVE",
"307 63 CURVE",
"303 56 OFFCURVE",
"295 51 OFFCURVE",
"290 45 CURVE SMOOTH",
"267 17 OFFCURVE",
"244 21 OFFCURVE",
"213 13 CURVE",
"211 11 LINE",
"194 25 OFFCURVE",
"202 21 OFFCURVE",
"180 27 CURVE"
);
}
);
width = 354;
}
);
},
{
color = 10;
glyphname = "ge-cy.ss01";
lastChange = "2017-12-14 19:20:52 +0000";
layers = (
{
layerId = UUID0;
paths = (
{
closed = 1;
nodes = (
"159 352 OFFCURVE",
"194 373 OFFCURVE",
"220 367 CURVE",
"225 373 OFFCURVE",
"253 366 OFFCURVE",
"260 373 CURVE",
"272 369 OFFCURVE",
"325 372 OFFCURVE",
"342 371 CURVE",
"361 360 OFFCURVE",
"362 358 OFFCURVE",
"374 340 CURVE",
"373 325 OFFCURVE",
"365 318 OFFCURVE",
"351 316 CURVE SMOOTH",
"338 314 OFFCURVE",
"329 316 OFFCURVE",
"316 316 CURVE SMOOTH",
"285 317 OFFCURVE",
"249 311 OFFCURVE",
"218 306 CURVE",
"218 291 OFFCURVE",
"217 276 OFFCURVE",
"212 261 CURVE SMOOTH",
"205 240 OFFCURVE",
"197 201 OFFCURVE",
"186 183 CURVE",
"180 174 OFFCURVE",
"176 162 OFFCURVE",
"172 152 CURVE",
"161 121 OFFCURVE",
"136 21 OFFCURVE",
"124 3 CURVE",
"108 -2 OFFCURVE",
"95 -1 OFFCURVE",
"82 11 CURVE",
"76 16 OFFCURVE",
"66 20 OFFCURVE",
"64 28 CURVE",
"63 30 OFFCURVE",
"74 78 OFFCURVE",
"76 81 CURVE",
"96 126 OFFCURVE",
"108 172 OFFCURVE",
"115 220 CURVE",
"116 225 LINE SMOOTH",
"119 239 OFFCURVE",
"131 316 OFFCURVE",
"132 317 CURVE",
"135 324 OFFCURVE",
"137 330 OFFCURVE",
"139 337 CURVE"
);
}
);
width = 287;
}
);
leftKerningGroup = uni0433;
rightKerningGroup = uni0433;
},
{
color = 10;
glyphname = "de-cy.ss01";
lastChange = "2017-12-14 19:20:52 +0000";
layers = (
{
layerId = UUID0;
paths = (
{
closed = 1;
nodes = (
"264 296 OFFCURVE",
"225 261 OFFCURVE",
"189 198 CURVE",
"185 170 OFFCURVE",
"168 147 OFFCURVE",
"165 119 CURVE",
"157 104 OFFCURVE",
"159 88 OFFCURVE",
"164 73 CURVE",
"170 68 OFFCURVE",
"176 63 OFFCURVE",
"183 58 CURVE",
"191 65 OFFCURVE",
"203 64 OFFCURVE",
"208 74 CURVE",
"237 95 OFFCURVE",
"280 162 OFFCURVE",
"295 195 CURVE SMOOTH",
"301 209 OFFCURVE",
"305 224 OFFCURVE",
"313 237 CURVE SMOOTH",
"322 251 OFFCURVE",
"339 302 OFFCURVE",
"335 317 CURVE"
);
},
{
closed = 1;
nodes = (
"153 21 OFFCURVE",
"117 42 OFFCURVE",
"106 77 CURVE SMOOTH",
"104 84 OFFCURVE",
"105 112 OFFCURVE",
"100 116 CURVE",
"103 143 OFFCURVE",
"105 171 OFFCURVE",
"114 197 CURVE SMOOTH",
"121 216 OFFCURVE",
"145 269 OFFCURVE",
"159 282 CURVE SMOOTH",
"168 290 OFFCURVE",
"174 302 OFFCURVE",
"184 309 CURVE",
"192 314 OFFCURVE",
"192 323 OFFCURVE",
"200 328 CURVE SMOOTH",
"229 347 OFFCURVE",
"237 360 OFFCURVE",
"274 369 CURVE SMOOTH",
"310 378 OFFCURVE",
"308 385 OFFCURVE",
"347 373 CURVE",
"347 379 OFFCURVE",
"344 404 OFFCURVE",
"345 407 CURVE",
"352 423 OFFCURVE",
"340 429 OFFCURVE",
"345 440 CURVE",
"336 450 OFFCURVE",
"341 466 OFFCURVE",
"332 477 CURVE",
"337 517 OFFCURVE",
"276 554 OFFCURVE",
"240 551 CURVE SMOOTH",
"225 550 OFFCURVE",
"209 550 OFFCURVE",
"197 540 CURVE",
"182 538 OFFCURVE",
"169 536 OFFCURVE",
"156 545 CURVE",
"123 595 OFFCURVE",
"146 592 OFFCURVE",
"184 618 CURVE",
"198 614 OFFCURVE",
"204 625 OFFCURVE",
"219 620 CURVE",
"226 625 OFFCURVE",
"260 621 OFFCURVE",
"268 616 CURVE SMOOTH",
"271 614 OFFCURVE",
"275 614 OFFCURVE",
"279 613 CURVE SMOOTH",
"326 601 OFFCURVE",
"367 565 OFFCURVE",
"388 521 CURVE SMOOTH",
"396 504 OFFCURVE",
"403 486 OFFCURVE",
"411 469 CURVE",
"411 468 OFFCURVE",
"412 468 OFFCURVE",
"412 467 CURVE",
"421 389 LINE",
"423 376 OFFCURVE",
"422 364 OFFCURVE",
"420 351 CURVE SMOOTH",
"406 244 OFFCURVE",
"368 163 OFFCURVE",
"310 73 CURVE SMOOTH",
"298 55 OFFCURVE",
"277 38 OFFCURVE",
"260 24 CURVE SMOOTH",
"236 5 OFFCURVE",
"210 0 OFFCURVE",
"180 0 CURVE"
);
}
);
width = 353;
}
);
},
{
color = 10;
glyphname = "ie-cy.ss01";
lastChange = "2017-12-14 19:20:52 +0000";
layers = (
{
layerId = UUID0;
paths = (
{
closed = 1;
nodes = (
"277 21 OFFCURVE",
"283 22 OFFCURVE",
"291 33 CURVE",
"290 33 LINE",
"295 36 OFFCURVE",
"300 39 OFFCURVE",
"305 41 CURVE SMOOTH",
"315 45 OFFCURVE",
"347 75 OFFCURVE",
"347 86 CURVE SMOOTH",
"347 100 OFFCURVE",
"326 112 OFFCURVE",
"314 107 CURVE",
"312 104 OFFCURVE",
"310 101 OFFCURVE",
"306 102 CURVE",
"296 95 OFFCURVE",
"286 89 OFFCURVE",
"275 84 CURVE",
"276 84 LINE",
"258 77 OFFCURVE",
"244 62 OFFCURVE",
"223 54 CURVE SMOOTH",
"213 50 OFFCURVE",
"204 50 OFFCURVE",
"194 50 CURVE SMOOTH",
"118 50 OFFCURVE",
"159 163 OFFCURVE",
"174 203 CURVE",
"181 195 LINE SMOOTH",
"199 174 OFFCURVE",
"221 165 OFFCURVE",
"249 165 CURVE SMOOTH",
"338 165 OFFCURVE",
"434 336 OFFCURVE",
"331 380 CURVE SMOOTH",
"318 386 OFFCURVE",
"303 391 OFFCURVE",
"288 391 CURVE SMOOTH",
"179 391 OFFCURVE",
"101 204 OFFCURVE",
"97 114 CURVE SMOOTH",
"95 54 OFFCURVE",
"132 -3 OFFCURVE",
"196 -3 CURVE SMOOTH",
"211 -3 OFFCURVE",
"257 6 OFFCURVE",
"265 21 CURVE"
);
},
{
closed = 1;
nodes = (
"208 250 OFFCURVE",
"200 250 OFFCURVE",
"192 247 CURVE",
"207 271 OFFCURVE",
"278 363 OFFCURVE",
"313 339 CURVE SMOOTH",
"335 323 OFFCURVE",
"307 266 OFFCURVE",
"296 251 CURVE SMOOTH",
"277 225 OFFCURVE",
"216 190 OFFCURVE",
"216 249 CURVE"
);
}
);
width = 325;
}
);
},
{
color = 10;
glyphname = "zhe-cy.ss01";
lastChange = "2017-12-14 19:20:52 +0000";
layers = (
{
layerId = UUID0;
paths = (
{
closed = 1;
nodes = (
"312 130 OFFCURVE",
"298 97 OFFCURVE",
"293 64 CURVE SMOOTH",
"290 44 OFFCURVE",
"277 33 OFFCURVE",
"259 26 CURVE",
"247 34 OFFCURVE",
"234 42 OFFCURVE",
"224 51 CURVE SMOOTH",
"208 66 OFFCURVE",
"264 168 OFFCURVE",
"255 183 CURVE",
"236 164 OFFCURVE",
"146 77 OFFCURVE",
"130 68 CURVE",
"116 48 OFFCURVE",
"82 13 OFFCURVE",
"63 -2 CURVE",
"59 -1 OFFCURVE",
"54 -1 OFFCURVE",
"50 -1 CURVE",
"44 11 OFFCURVE",
"30 17 OFFCURVE",
"24 28 CURVE SMOOTH",
"11 50 OFFCURVE",
"42 59 OFFCURVE",
"50 79 CURVE",
"71 88 OFFCURVE",
"188 213 OFFCURVE",
"208 238 CURVE",
"203 242 LINE",
"191 272 OFFCURVE",
"163 296 OFFCURVE",
"147 324 CURVE SMOOTH",
"139 338 OFFCURVE",
"136 352 OFFCURVE",
"129 365 CURVE",
"132 370 OFFCURVE",
"135 375 OFFCURVE",
"137 381 CURVE",
"163 382 OFFCURVE",
"176 372 OFFCURVE",
"196 356 CURVE SMOOTH",
"206 348 OFFCURVE",
"251 250 OFFCURVE",
"277 243 CURVE",
"290 279 OFFCURVE",
"297 318 OFFCURVE",
"301 356 CURVE",
"306 362 OFFCURVE",
"311 367 OFFCURVE",
"316 372 CURVE",
"334 367 OFFCURVE",
"347 355 OFFCURVE",
"363 346 CURVE",
"363 293 OFFCURVE",
"350 264 OFFCURVE",
"339 214 CURVE",
"340 209 LINE",
"385 230 OFFCURVE",
"437 278 OFFCURVE",
"478 308 CURVE",
"491 328 OFFCURVE",
"514 343 OFFCURVE",
"528 363 CURVE",
"545 363 LINE",
"557 351 OFFCURVE",
"570 341 OFFCURVE",
"579 327 CURVE",
"578 317 OFFCURVE",
"576 310 OFFCURVE",
"569 303 CURVE SMOOTH",
"536 271 OFFCURVE",
"500 241 OFFCURVE",
"462 214 CURVE SMOOTH",
"439 198 OFFCURVE",
"415 184 OFFCURVE",
"395 164 CURVE",
"431 139 OFFCURVE",
"483 106 OFFCURVE",
"509 71 CURVE SMOOTH",
"536 35 OFFCURVE",
"480 11 OFFCURVE",
"460 32 CURVE SMOOTH",
"445 47 OFFCURVE",
"433 64 OFFCURVE",
"418 79 CURVE SMOOTH",
"390 107 OFFCURVE",
"359 132 OFFCURVE",
"329 157 CURVE",
"327 159 OFFCURVE",
"325 160 OFFCURVE",
"323 161 CURVE"
);
}
);
width = 490;
}
);
leftKerningGroup = uni0436;
rightKerningGroup = uni0436;
},
{
color = 10;
glyphname = "ze-cy.ss01";
lastChange = "2017-12-14 19:20:52 +0000";
layers = (
{
layerId = UUID0;
paths = (
{
closed = 1;
nodes = (
"139 6 OFFCURVE",
"135 38 OFFCURVE",
"135 41 CURVE",
"127 54 OFFCURVE",
"123 69 OFFCURVE",
"112 81 CURVE",
"112 107 LINE",
"116 110 OFFCURVE",
"118 114 OFFCURVE",
"123 116 CURVE",
"182 137 OFFCURVE",
"239 180 OFFCURVE",
"258 242 CURVE SMOOTH",
"262 256 OFFCURVE",
"265 271 OFFCURVE",
"261 286 CURVE",
"256 290 OFFCURVE",
"250 291 OFFCURVE",
"244 289 CURVE",
"168 269 OFFCURVE",
"164 223 OFFCURVE",
"119 180 CURVE",
"104 193 OFFCURVE",
"94 175 OFFCURVE",
"78 216 CURVE",
"90 228 OFFCURVE",
"91 247 OFFCURVE",
"102 259 CURVE SMOOTH",
"124 283 OFFCURVE",
"138 304 OFFCURVE",
"167 323 CURVE SMOOTH",
"211 352 OFFCURVE",
"273 363 OFFCURVE",
"309 315 CURVE",
"311 312 OFFCURVE",
"313 309 OFFCURVE",
"314 305 CURVE SMOOTH",
"330 246 OFFCURVE",
"323 202 OFFCURVE",
"284 154 CURVE SMOOTH",
"256 119 OFFCURVE",
"222 103 OFFCURVE",
"187 77 CURVE",
"196 41 OFFCURVE",
"208 4 OFFCURVE",
"204 -34 CURVE SMOOTH",
"195 -128 OFFCURVE",
"155 -268 OFFCURVE",
"77 -326 CURVE SMOOTH",
"52 -344 OFFCURVE",
"23 -341 OFFCURVE",
"10 -349 CURVE",
"5 -349 LINE",
"-6 -343 OFFCURVE",
"-20 -345 OFFCURVE",
"-31 -339 CURVE SMOOTH",
"-49 -329 OFFCURVE",
"-77 -311 OFFCURVE",
"-84 -290 CURVE SMOOTH",
"-85 -287 OFFCURVE",
"-85 -284 OFFCURVE",
"-86 -282 CURVE SMOOTH",
"-88 -278 OFFCURVE",
"-93 -275 OFFCURVE",
"-94 -271 CURVE",
"-98 -259 OFFCURVE",
"-94 -246 OFFCURVE",
"-100 -234 CURVE",
"-95 -225 OFFCURVE",
"-91 -215 OFFCURVE",
"-86 -206 CURVE",
"-71 -206 LINE",
"-51 -226 OFFCURVE",
"-69 -295 OFFCURVE",
"-23 -298 CURVE SMOOTH",
"36 -302 OFFCURVE",
"75 -243 OFFCURVE",
"94 -194 CURVE SMOOTH",
"104 -168 OFFCURVE",
"124 -140 OFFCURVE",
"124 -111 CURVE SMOOTH",
"124 -99 OFFCURVE",
"133 -84 OFFCURVE",
"134 -70 CURVE SMOOTH",
"135 -46 OFFCURVE",
"147 -18 OFFCURVE",
"139 6 CURVE"
);
}
);
width = 273;
}
);
leftKerningGroup = uni0437;
rightKerningGroup = uni0437;
},
{
color = 10;
glyphname = "ii-cy.ss01";
lastChange = "2017-12-14 19:20:52 +0000";
layers = (
{
layerId = UUID0;
paths = (
{
closed = 1;
nodes = (
"390 348 OFFCURVE",
"400 340 OFFCURVE",
"409 331 CURVE",
"424 280 OFFCURVE",
"325 143 OFFCURVE",
"387 71 CURVE",
"429 89 OFFCURVE",
"435 105 OFFCURVE",
"470 126 CURVE",
"483 118 OFFCURVE",
"490 88 OFFCURVE",
"490 73 CURVE",
"485 69 OFFCURVE",
"480 66 OFFCURVE",
"477 61 CURVE",
"464 35 OFFCURVE",
"409 2 OFFCURVE",
"380 12 CURVE SMOOTH",
"336 28 OFFCURVE",
"312 80 OFFCURVE",
"306 123 CURVE",
"298 125 OFFCURVE",
"220 20 OFFCURVE",
"169 25 CURVE",
"158 32 OFFCURVE",
"146 41 OFFCURVE",
"136 50 CURVE",
"131 55 OFFCURVE",
"127 60 OFFCURVE",
"125 67 CURVE",
"103 127 OFFCURVE",
"115 161 OFFCURVE",
"134 220 CURVE",
"137 228 OFFCURVE",
"175 361 OFFCURVE",
"187 371 CURVE",
"191 371 OFFCURVE",
"196 372 OFFCURVE",
"200 372 CURVE SMOOTH",
"207 372 OFFCURVE",
"211 371 OFFCURVE",
"215 365 CURVE SMOOTH",
"220 357 OFFCURVE",
"231 355 OFFCURVE",
"235 348 CURVE SMOOTH",
"249 323 OFFCURVE",
"157 163 OFFCURVE",
"179 95 CURVE",
"188 95 OFFCURVE",
"208 118 OFFCURVE",
"218 125 CURVE",
"237 137 OFFCURVE",
"286 193 OFFCURVE",
"299 213 CURVE SMOOTH",
"310 230 OFFCURVE",
"348 312 OFFCURVE",
"346 332 CURVE SMOOTH",
"345 345 OFFCURVE",
"349 351 OFFCURVE",
"360 358 CURVE",
"367 358 OFFCURVE",
"375 358 OFFCURVE",
"382 357 CURVE"
);
}
);
width = 450;
}
);
leftKerningGroup = uni0438;
rightKerningGroup = uni0438;
},
{
color = 10;
glyphname = "ka-cy.ss01";
lastChange = "2017-12-14 19:20:52 +0000";
layers = (
{
layerId = UUID0;
paths = (
{
closed = 1;
nodes = (
"206 168 OFFCURVE",
"214 158 OFFCURVE",
"214 152 CURVE",
"220 143 OFFCURVE",
"240 109 OFFCURVE",
"241 99 CURVE",
"257 78 OFFCURVE",
"310 4 OFFCURVE",
"341 6 CURVE",
"371 -10 OFFCURVE",
"438 25 OFFCURVE",
"426 54 CURVE SMOOTH",
"407 100 OFFCURVE",
"338 10 OFFCURVE",
"304 112 CURVE SMOOTH",
"295 140 OFFCURVE",
"267 174 OFFCURVE",
"253 202 CURVE",
"261 211 OFFCURVE",
"363 271 OFFCURVE",
"381 282 CURVE SMOOTH",
"399 293 OFFCURVE",
"428 306 OFFCURVE",
"410 330 CURVE SMOOTH",
"397 347 OFFCURVE",
"386 351 OFFCURVE",
"367 340 CURVE SMOOTH",
"316 312 OFFCURVE",
"265 267 OFFCURVE",
"212 245 CURVE",
"205 253 OFFCURVE",
"261 356 OFFCURVE",
"261 383 CURVE SMOOTH",
"261 404 OFFCURVE",
"239 440 OFFCURVE",
"215 419 CURVE",
"206 418 OFFCURVE",
"204 407 OFFCURVE",
"203 400 CURVE SMOOTH",
"197 363 OFFCURVE",
"144 261 OFFCURVE",
"128 219 CURVE SMOOTH",
"108 168 OFFCURVE",
"94 114 OFFCURVE",
"74 64 CURVE",
"74 19 OFFCURVE",
"140 -26 OFFCURVE",
"138 32 CURVE SMOOTH",
"137 59 OFFCURVE",
"162 185 OFFCURVE",
"203 173 CURVE"
);
}
);
width = 365;
}
);
},
{
color = 10;
glyphname = "em-cy.ss01";
lastChange = "2017-12-14 19:20:52 +0000";
layers = (
{
layerId = UUID0;
paths = (
{
closed = 1;
nodes = (
"330 283 LINE",
"299 236 OFFCURVE",
"261 192 OFFCURVE",
"227 147 CURVE SMOOTH",
"204 117 OFFCURVE",
"186 71 OFFCURVE",
"158 46 CURVE SMOOTH",
"147 36 OFFCURVE",
"140 22 OFFCURVE",
"127 14 CURVE",
"116 -23 OFFCURVE",
"35 16 OFFCURVE",
"62 49 CURVE",
"65 56 LINE",
"106 72 OFFCURVE",
"149 144 OFFCURVE",
"181 178 CURVE SMOOTH",
"200 198 OFFCURVE",
"209 225 OFFCURVE",
"226 246 CURVE SMOOTH",
"257 286 OFFCURVE",
"290 341 OFFCURVE",
"324 375 CURVE",
"334 369 OFFCURVE",
"345 364 OFFCURVE",
"357 364 CURVE",
"364 356 OFFCURVE",
"370 348 OFFCURVE",
"378 341 CURVE SMOOTH",
"426 301 OFFCURVE",
"394 180 OFFCURVE",
"387 126 CURVE",
"388 123 LINE",
"419 150 OFFCURVE",
"441 189 OFFCURVE",
"468 220 CURVE SMOOTH",
"481 235 OFFCURVE",
"496 252 OFFCURVE",
"506 269 CURVE SMOOTH",
"527 304 OFFCURVE",
"589 351 OFFCURVE",
"619 381 CURVE",
"651 381 LINE",
"662 374 OFFCURVE",
"665 371 OFFCURVE",
"678 368 CURVE",
"679 361 OFFCURVE",
"685 343 OFFCURVE",
"683 337 CURVE SMOOTH",
"680 327 OFFCURVE",
"682 316 OFFCURVE",
"676 307 CURVE SMOOTH",
"659 280 OFFCURVE",
"645 190 OFFCURVE",
"639 156 CURVE",
"637 147 OFFCURVE",
"630 141 OFFCURVE",
"628 132 CURVE",
"625 121 OFFCURVE",
"629 109 OFFCURVE",
"624 98 CURVE",
"623 95 OFFCURVE",
"622 96 OFFCURVE",
"622 96 CURVE",
"622 82 OFFCURVE",
"624 66 OFFCURVE",
"617 54 CURVE",
"621 43 OFFCURVE",
"616 32 OFFCURVE",
"620 21 CURVE",
"615 15 OFFCURVE",
"610 9 OFFCURVE",
"606 3 CURVE",
"590 0 OFFCURVE",
"574 1 OFFCURVE",
"560 11 CURVE",
"555 22 OFFCURVE",
"543 38 OFFCURVE",
"548 50 CURVE",
"556 67 OFFCURVE",
"553 104 OFFCURVE",
"562 125 CURVE",
"563 127 OFFCURVE",
"564 130 OFFCURVE",
"564 133 CURVE",
"565 147 OFFCURVE",
"569 156 OFFCURVE",
"573 169 CURVE SMOOTH",
"578 185 OFFCURVE",
"587 242 OFFCURVE",
"587 258 CURVE SMOOTH",
"587 265 OFFCURVE",
"595 269 OFFCURVE",
"590 277 CURVE",
"555 244 OFFCURVE",
"484 159 OFFCURVE",
"461 118 CURVE SMOOTH",
"458 113 OFFCURVE",
"454 108 OFFCURVE",
"451 104 CURVE SMOOTH",
"444 95 OFFCURVE",
"435 90 OFFCURVE",
"431 79 CURVE",
"406 54 OFFCURVE",
"387 24 OFFCURVE",
"360 2 CURVE",
"342 -2 OFFCURVE",
"329 9 OFFCURVE",
"313 14 CURVE",
"302 36 LINE",
"308 84 OFFCURVE",
"338 191 OFFCURVE",
"335 230 CURVE",
"334 237 OFFCURVE",
"333 244 OFFCURVE",
"337 250 CURVE",
"338 258 LINE",
"331 264 OFFCURVE",
"340 272 OFFCURVE",
"336 279 CURVE"
);
}
);
width = 618;
}
);
leftKerningGroup = uni043C;
},
{
color = 10;
glyphname = "en-cy.ss01";
lastChange = "2017-12-14 19:20:52 +0000";
layers = (
{
layerId = UUID0;
paths = (
{
closed = 1;
nodes = (
"323 27 OFFCURVE",
"312 31 OFFCURVE",
"300 34 CURVE",
"276 72 OFFCURVE",
"326 136 OFFCURVE",
"333 177 CURVE",
"331 182 OFFCURVE",
"328 178 OFFCURVE",
"327 176 CURVE",
"317 165 OFFCURVE",
"296 162 OFFCURVE",
"282 160 CURVE SMOOTH",
"256 157 OFFCURVE",
"231 151 OFFCURVE",
"206 144 CURVE",
"194 154 LINE",
"175 154 OFFCURVE",
"156 49 OFFCURVE",
"145 31 CURVE",
"123 28 OFFCURVE",
"121 29 OFFCURVE",
"100 36 CURVE",
"90 51 OFFCURVE",
"92 63 OFFCURVE",
"97 79 CURVE SMOOTH",
"106 109 OFFCURVE",
"116 143 OFFCURVE",
"129 172 CURVE SMOOTH",
"136 187 OFFCURVE",
"145 200 OFFCURVE",
"146 217 CURVE",
"157 230 OFFCURVE",
"159 248 OFFCURVE",
"168 263 CURVE SMOOTH",
"180 282 OFFCURVE",
"189 302 OFFCURVE",
"193 325 CURVE SMOOTH",
"199 358 OFFCURVE",
"263 325 OFFCURVE",
"246 290 CURVE SMOOTH",
"236 268 OFFCURVE",
"228 245 OFFCURVE",
"217 224 CURVE",
"214 219 OFFCURVE",
"209 217 OFFCURVE",
"209 210 CURVE",
"217 203 OFFCURVE",
"247 207 OFFCURVE",
"256 212 CURVE",
"315 212 LINE",
"325 206 OFFCURVE",
"332 196 OFFCURVE",
"336 185 CURVE",
"352 222 OFFCURVE",
"395 312 OFFCURVE",
"402 345 CURVE",
"405 357 OFFCURVE",
"415 366 OFFCURVE",
"425 372 CURVE",
"444 363 OFFCURVE",
"464 362 OFFCURVE",
"468 337 CURVE",
"466 325 OFFCURVE",
"460 314 OFFCURVE",
"455 303 CURVE SMOOTH",
"427 246 OFFCURVE",
"392 177 OFFCURVE",
"374 116 CURVE SMOOTH",
"372 110 OFFCURVE",
"351 47 OFFCURVE",
"350 46 CURVE",
"350 36 OFFCURVE",
"343 29 OFFCURVE",
"335 24 CURVE"
);
}
);
width = 381;
}
);
leftKerningGroup = uni043D;
rightKerningGroup = uni043D;
},
{
color = 10;
glyphname = "o-cy.ss01";
lastChange = "2017-12-14 19:20:52 +0000";
layers = (
{
layerId = UUID0;
paths = (
{
closed = 1;
nodes = (
"305 321 OFFCURVE",
"343 310 OFFCURVE",
"321 352 CURVE SMOOTH",
"308 377 OFFCURVE",
"279 374 OFFCURVE",
"257 365 CURVE SMOOTH",
"183 336 OFFCURVE",
"125 188 OFFCURVE",
"117 115 CURVE SMOOTH",
"113 83 OFFCURVE",
"139 63 OFFCURVE",
"162 47 CURVE SMOOTH",
"183 32 OFFCURVE",
"177 33 OFFCURVE",
"205 38 CURVE SMOOTH",
"281 51 OFFCURVE",
"408 152 OFFCURVE",
"382 238 CURVE SMOOTH",
"377 255 OFFCURVE",
"395 260 OFFCURVE",
"407 268 CURVE",
"411 271 OFFCURVE",
"448 295 OFFCURVE",
"437 299 CURVE",
"420 304 OFFCURVE",
"436 315 OFFCURVE",
"410 322 CURVE SMOOTH",
"384 329 OFFCURVE",
"333 294 OFFCURVE",
"303 306 CURVE"
);
},
{
closed = 1;
nodes = (
"272 272 OFFCURVE",
"293 248 OFFCURVE",
"315 248 CURVE",
"320 246 OFFCURVE",
"330 243 OFFCURVE",
"332 238 CURVE",
"342 209 OFFCURVE",
"260 110 OFFCURVE",
"239 110 CURVE",
"224 103 OFFCURVE",
"207 82 OFFCURVE",
"188 82 CURVE SMOOTH",
"125 83 OFFCURVE",
"224 250 OFFCURVE",
"244 271 CURVE SMOOTH",
"261 288 LINE"
);
}
);
width = 353;
}
);
},
{
color = 10;
glyphname = "pe-cy.ss01";
lastChange = "2017-12-14 19:20:52 +0000";
layers = (
{
layerId = UUID0;
paths = (
{
closed = 1;
nodes = (
"91 14 OFFCURVE",
"81 26 OFFCURVE",
"70 40 CURVE",
"81 89 OFFCURVE",
"94 139 OFFCURVE",
"111 185 CURVE SMOOTH",
"119 207 OFFCURVE",
"122 231 OFFCURVE",
"131 253 CURVE",
"130 267 OFFCURVE",
"137 280 OFFCURVE",
"142 293 CURVE SMOOTH",
"151 317 OFFCURVE",
"150 344 OFFCURVE",
"156 369 CURVE",
"171 379 OFFCURVE",
"174 379 OFFCURVE",
"192 381 CURVE",
"196 394 LINE",
"217 409 OFFCURVE",
"267 403 OFFCURVE",
"290 393 CURVE SMOOTH",
"295 391 OFFCURVE",
"296 392 OFFCURVE",
"301 391 CURVE",
"321 389 OFFCURVE",
"366 363 OFFCURVE",
"381 349 CURVE SMOOTH",
"451 287 OFFCURVE",
"389 161 OFFCURVE",
"369 89 CURVE SMOOTH",
"365 75 OFFCURVE",
"373 63 OFFCURVE",
"379 51 CURVE",
"377 44 OFFCURVE",
"374 11 OFFCURVE",
"363 11 CURVE SMOOTH",
"353 11 OFFCURVE",
"349 3 OFFCURVE",
"340 0 CURVE",
"314 5 OFFCURVE",
"285 39 OFFCURVE",
"294 66 CURVE SMOOTH",
"301 88 OFFCURVE",
"305 109 OFFCURVE",
"310 132 CURVE SMOOTH",
"318 168 OFFCURVE",
"376 290 OFFCURVE",
"337 314 CURVE SMOOTH",
"312 330 OFFCURVE",
"286 330 OFFCURVE",
"258 336 CURVE",
"255 337 OFFCURVE",
"236 334 OFFCURVE",
"225 336 CURVE",
"221 321 OFFCURVE",
"217 307 OFFCURVE",
"214 292 CURVE",
"209 272 OFFCURVE",
"201 253 OFFCURVE",
"196 233 CURVE SMOOTH",
"184 183 OFFCURVE",
"167 135 OFFCURVE",
"152 86 CURVE SMOOTH",
"148 73 OFFCURVE",
"147 61 OFFCURVE",
"140 49 CURVE",
"137 43 OFFCURVE",
"138 42 OFFCURVE",
"138 35 CURVE SMOOTH",
"138 26 OFFCURVE",
"133 18 OFFCURVE",
"126 13 CURVE SMOOTH",
"120 9 OFFCURVE",
"112 7 OFFCURVE",
"105 3 CURVE"
);
}
);
width = 450;
}
);
},
{
color = 10;
glyphname = "er-cy.ss01";
lastChange = "2017-12-14 19:20:52 +0000";
layers = (
{
layerId = UUID0;
paths = (
{
closed = 1;
nodes = (
"178 41 OFFCURVE",
"195 93 OFFCURVE",
"198 100 CURVE",
"201 90 OFFCURVE",
"209 72 OFFCURVE",
"218 66 CURVE SMOOTH",
"229 59 OFFCURVE",
"259 73 OFFCURVE",
"268 79 CURVE",
"316 108 OFFCURVE",
"354 134 OFFCURVE",
"385 181 CURVE SMOOTH",
"414 225 OFFCURVE",
"448 288 OFFCURVE",
"405 334 CURVE SMOOTH",
"388 352 OFFCURVE",
"347 358 OFFCURVE",
"324 349 CURVE",
"320 345 OFFCURVE",
"314 342 OFFCURVE",
"309 340 CURVE",
"301 331 OFFCURVE",
"270 316 OFFCURVE",
"258 310 CURVE",
"253 309 OFFCURVE",
"254 312 OFFCURVE",
"256 315 CURVE",
"256 324 OFFCURVE",
"245 343 OFFCURVE",
"239 351 CURVE",
"238 352 OFFCURVE",
"231 363 OFFCURVE",
"229 360 CURVE",
"229 360 OFFCURVE",
"210 384 OFFCURVE",
"179 371 CURVE SMOOTH",
"163 364 OFFCURVE",
"157 342 OFFCURVE",
"175 333 CURVE SMOOTH",
"201 320 OFFCURVE",
"188 266 OFFCURVE",
"180 245 CURVE SMOOTH",
"168 214 OFFCURVE",
"155 181 OFFCURVE",
"149 148 CURVE",
"143 145 OFFCURVE",
"141 126 OFFCURVE",
"140 120 CURVE",
"135 112 OFFCURVE",
"114 65 OFFCURVE",
"112 56 CURVE SMOOTH",
"109 40 OFFCURVE",
"109 28 OFFCURVE",
"101 13 CURVE SMOOTH",
"80 -24 OFFCURVE",
"74 -68 OFFCURVE",
"62 -109 CURVE SMOOTH",
"54 -135 OFFCURVE",
"70 -196 OFFCURVE",
"104 -175 CURVE SMOOTH",
"116 -168 OFFCURVE",
"127 -106 OFFCURVE",
"129 -92 CURVE SMOOTH",
"133 -67 OFFCURVE",
"176 36 OFFCURVE",
"176 39 CURVE"
);
},
{
closed = 1;
nodes = (
"195 110 OFFCURVE",
"220 184 OFFCURVE",
"225 194 CURVE",
"231 209 OFFCURVE",
"239 223 OFFCURVE",
"249 235 CURVE SMOOTH",
"267 258 OFFCURVE",
"328 301 OFFCURVE",
"359 299 CURVE",
"368 290 OFFCURVE",
"366 279 OFFCURVE",
"362 268 CURVE SMOOTH",
"351 239 OFFCURVE",
"343 212 OFFCURVE",
"322 188 CURVE SMOOTH",
"309 173 OFFCURVE",
"241 119 OFFCURVE",
"223 110 CURVE"
);
}
);
width = 378;
}
);
},
{
color = 10;
glyphname = "es-cy.ss01";
lastChange = "2017-12-14 19:20:52 +0000";
layers = (
{
layerId = UUID0;
paths = (
{
closed = 1;
nodes = (
"272 45 OFFCURVE",
"283 48 OFFCURVE",
"286 50 CURVE",
"303 50 OFFCURVE",
"318 75 OFFCURVE",
"327 73 CURVE",
"343 85 OFFCURVE",
"375 111 OFFCURVE",
"376 132 CURVE",
"371 137 OFFCURVE",
"372 140 OFFCURVE",
"372 147 CURVE SMOOTH",
"372 160 OFFCURVE",
"344 141 OFFCURVE",
"341 138 CURVE SMOOTH",
"339 136 OFFCURVE",
"331 131 OFFCURVE",
"331 138 CURVE SMOOTH",
"331 140 OFFCURVE",
"329 139 OFFCURVE",
"328 139 CURVE",
"321 135 OFFCURVE",
"314 129 OFFCURVE",
"307 125 CURVE",
"271 102 OFFCURVE",
"231 52 OFFCURVE",
"183 79 CURVE SMOOTH",
"174 84 OFFCURVE",
"169 87 OFFCURVE",
"169 98 CURVE SMOOTH",
"169 103 OFFCURVE",
"165 108 OFFCURVE",
"164 113 CURVE",
"164 114 OFFCURVE",
"187 182 OFFCURVE",
"188 186 CURVE",
"201 221 OFFCURVE",
"269 324 OFFCURVE",
"312 324 CURVE SMOOTH",
"339 324 OFFCURVE",
"316 263 OFFCURVE",
"325 250 CURVE SMOOTH",
"360 199 OFFCURVE",
"410 288 OFFCURVE",
"360 346 CURVE SMOOTH",
"345 363 OFFCURVE",
"335 373 OFFCURVE",
"311 373 CURVE SMOOTH",
"277 373 OFFCURVE",
"239 357 OFFCURVE",
"215 333 CURVE SMOOTH",
"180 298 OFFCURVE",
"158 259 OFFCURVE",
"139 215 CURVE SMOOTH",
"124 181 OFFCURVE",
"110 108 OFFCURVE",
"121 72 CURVE",
"128 64 OFFCURVE",
"136 51 OFFCURVE",
"141 42 CURVE",
"162 22 OFFCURVE",
"176 23 OFFCURVE",
"205 23 CURVE SMOOTH",
"228 23 OFFCURVE",
"254 22 OFFCURVE",
"272 40 CURVE"
);
}
);
width = 351;
}
);
},
{
color = 10;
glyphname = "te-cy.ss01";
lastChange = "2017-12-14 19:20:52 +0000";
layers = (
{
layerId = UUID0;
paths = (
{
closed = 1;
nodes = (
"498 206 OFFCURVE",
"496 174 OFFCURVE",
"494 162 CURVE SMOOTH",
"486 115 OFFCURVE",
"491 37 OFFCURVE",
"557 46 CURVE SMOOTH",
"564 47 OFFCURVE",
"572 51 OFFCURVE",
"579 51 CURVE SMOOTH",
"595 51 OFFCURVE",
"670 123 OFFCURVE",
"664 142 CURVE SMOOTH",
"653 179 OFFCURVE",
"590 104 OFFCURVE",
"548 102 CURVE",
"536 101 OFFCURVE",
"539 116 OFFCURVE",
"539 124 CURVE SMOOTH",
"539 170 OFFCURVE",
"567 229 OFFCURVE",
"544 272 CURVE SMOOTH",
"531 296 OFFCURVE",
"516 306 OFFCURVE",
"489 295 CURVE",
"485 289 OFFCURVE",
"476 285 OFFCURVE",
"470 280 CURVE",
"470 273 OFFCURVE",
"460 280 OFFCURVE",
"456 267 CURVE",
"433 247 OFFCURVE",
"415 222 OFFCURVE",
"396 199 CURVE",
"417 253 LINE",
"417 285 OFFCURVE",
"406 332 OFFCURVE",
"365 325 CURVE SMOOTH",
"341 321 OFFCURVE",
"313 286 OFFCURVE",
"302 285 CURVE",
"292 276 LINE",
"292 274 OFFCURVE",
"291 267 OFFCURVE",
"287 267 CURVE SMOOTH",
"284 267 OFFCURVE",
"240 224 OFFCURVE",
"256 250 CURVE SMOOTH",
"279 288 OFFCURVE",
"290 312 OFFCURVE",
"266 353 CURVE SMOOTH",
"241 395 OFFCURVE",
"201 383 OFFCURVE",
"165 362 CURVE SMOOTH",
"156 357 OFFCURVE",
"147 354 OFFCURVE",
"139 347 CURVE SMOOTH",
"129 338 OFFCURVE",
"129 332 OFFCURVE",
"134 320 CURVE SMOOTH",
"148 284 OFFCURVE",
"155 291 OFFCURVE",
"183 309 CURVE SMOOTH",
"191 314 OFFCURVE",
"200 315 OFFCURVE",
"208 319 CURVE",
"213 321 OFFCURVE",
"217 322 OFFCURVE",
"222 318 CURVE",
"226 290 OFFCURVE",
"206 265 OFFCURVE",
"194 243 CURVE",
"199 242 OFFCURVE",
"190 231 OFFCURVE",
"188 229 CURVE",
"176 210 OFFCURVE",
"106 77 OFFCURVE",
"115 65 CURVE",
"119 65 OFFCURVE",
"123 43 OFFCURVE",
"128 37 CURVE",
"150 8 OFFCURVE",
"180 67 OFFCURVE",
"191 82 CURVE SMOOTH",
"226 131 OFFCURVE",
"271 183 OFFCURVE",
"315 224 CURVE SMOOTH",
"326 234 OFFCURVE",
"339 245 OFFCURVE",
"352 254 CURVE",
"353 255 OFFCURVE",
"364 263 OFFCURVE",
"365 260 CURVE",
"365 258 OFFCURVE",
"339 177 OFFCURVE",
"337 171 CURVE SMOOTH",
"330 151 OFFCURVE",
"306 95 OFFCURVE",
"318 74 CURVE SMOOTH",
"324 63 OFFCURVE",
"339 44 OFFCURVE",
"352 57 CURVE SMOOTH",
"358 63 OFFCURVE",
"371 92 OFFCURVE",
"378 102 CURVE SMOOTH",
"391 120 OFFCURVE",
"484 242 OFFCURVE",
"500 242 CURVE SMOOTH",
"504 242 OFFCURVE",
"503 220 OFFCURVE",
"503 216 CURVE"
);
}
);
width = 612;
}
);
},
{
color = 10;
glyphname = "u-cy.ss01";
lastChange = "2017-12-14 19:20:52 +0000";
layers = (
{
layerId = UUID0;
paths = (
{
closed = 1;
nodes = (
"-20 -197 OFFCURVE",
"24 -248 OFFCURVE",
"84 -241 CURVE SMOOTH",
"185 -229 OFFCURVE",
"240 -156 OFFCURVE",
"282 -70 CURVE SMOOTH",
"297 -40 OFFCURVE",
"317 15 OFFCURVE",
"325 48 CURVE SMOOTH",
"340 109 OFFCURVE",
"348 234 OFFCURVE",
"379 282 CURVE SMOOTH",
"393 304 OFFCURVE",
"402 347 OFFCURVE",
"387 371 CURVE SMOOTH",
"373 393 OFFCURVE",
"344 392 OFFCURVE",
"336 366 CURVE SMOOTH",
"331 350 OFFCURVE",
"329 332 OFFCURVE",
"326 315 CURVE",
"314 263 OFFCURVE",
"299 210 OFFCURVE",
"293 156 CURVE SMOOTH",
"286 88 OFFCURVE",
"250 -27 OFFCURVE",
"214 -85 CURVE SMOOTH",
"192 -120 OFFCURVE",
"154 -169 OFFCURVE",
"113 -183 CURVE SMOOTH",
"89 -191 OFFCURVE",
"60 -210 OFFCURVE",
"34 -197 CURVE"
);
},
{
closed = 1;
nodes = (
"304 207 LINE",
"275 168 OFFCURVE",
"225 113 OFFCURVE",
"172 113 CURVE SMOOTH",
"167 113 OFFCURVE",
"170 138 OFFCURVE",
"170 142 CURVE",
"172 157 OFFCURVE",
"182 222 OFFCURVE",
"192 232 CURVE",
"198 234 OFFCURVE",
"204 269 OFFCURVE",
"207 277 CURVE",
"210 313 OFFCURVE",
"258 344 OFFCURVE",
"232 380 CURVE SMOOTH",
"220 396 OFFCURVE",
"203 403 OFFCURVE",
"189 385 CURVE SMOOTH",
"171 362 OFFCURVE",
"113 188 OFFCURVE",
"105 153 CURVE SMOOTH",
"98 120 OFFCURVE",
"108 107 OFFCURVE",
"122 80 CURVE SMOOTH",
"128 68 OFFCURVE",
"146 49 OFFCURVE",
"160 49 CURVE SMOOTH",
"168 49 OFFCURVE",
"219 65 OFFCURVE",
"219 70 CURVE SMOOTH",
"219 73 OFFCURVE",
"221 75 OFFCURVE",
"224 75 CURVE SMOOTH",
"240 75 OFFCURVE",
"299 125 OFFCURVE",
"321 136 CURVE"
);
}
);
width = 341;
}
);
},
{
color = 10;
glyphname = "ef-cy.ss01";
lastChange = "2017-12-14 19:20:52 +0000";
layers = (
{
layerId = UUID0;
paths = (
{
closed = 1;
nodes = (
"296 252 OFFCURVE",
"289 241 OFFCURVE",
"284 244 CURVE SMOOTH",
"277 248 OFFCURVE",
"277 258 OFFCURVE",
"266 250 CURVE",
"262 255 OFFCURVE",
"259 265 OFFCURVE",
"251 265 CURVE SMOOTH",
"238 265 OFFCURVE",
"214 250 OFFCURVE",
"202 244 CURVE",
"180 232 OFFCURVE",
"162 199 OFFCURVE",
"154 176 CURVE SMOOTH",
"146 153 OFFCURVE",
"154 152 OFFCURVE",
"154 131 CURVE",
"169 111 OFFCURVE",
"210 83 OFFCURVE",
"236 87 CURVE",
"246 93 OFFCURVE",
"248 103 OFFCURVE",
"251 113 CURVE SMOOTH",
"263 150 OFFCURVE",
"296 213 OFFCURVE",
"302 244 CURVE"
);
},
{
closed = 1;
nodes = (
"355 209 OFFCURVE",
"330 146 OFFCURVE",
"304 82 CURVE",
"358 80 OFFCURVE",
"503 150 OFFCURVE",
"488 217 CURVE SMOOTH",
"475 274 OFFCURVE",
"430 271 OFFCURVE",
"384 271 CURVE"
);
},
{
closed = 1;
nodes = (
"276 3 OFFCURVE",
"267 -9 OFFCURVE",
"268 -24 CURVE",
"254 -52 OFFCURVE",
"250 -83 OFFCURVE",
"240 -112 CURVE",
"238 -119 OFFCURVE",
"240 -123 OFFCURVE",
"238 -130 CURVE",
"228 -159 OFFCURVE",
"221 -223 OFFCURVE",
"195 -240 CURVE",
"174 -237 OFFCURVE",
"157 -231 OFFCURVE",
"151 -208 CURVE",
"174 -131 OFFCURVE",
"194 -52 OFFCURVE",
"216 26 CURVE",
"189 45 OFFCURVE",
"147 51 OFFCURVE",
"126 79 CURVE SMOOTH",
"112 97 LINE SMOOTH",
"84 133 OFFCURVE",
"86 169 OFFCURVE",
"101 209 CURVE SMOOTH",
"110 234 OFFCURVE",
"116 251 OFFCURVE",
"136 270 CURVE SMOOTH",
"193 324 OFFCURVE",
"255 339 OFFCURVE",
"330 313 CURVE",
"341 325 OFFCURVE",
"345 341 OFFCURVE",
"349 356 CURVE SMOOTH",
"356 383 OFFCURVE",
"372 406 OFFCURVE",
"378 435 CURVE SMOOTH",
"380 445 OFFCURVE",
"385 454 OFFCURVE",
"393 461 CURVE",
"401 461 OFFCURVE",
"409 462 OFFCURVE",
"417 462 CURVE",
"434 455 OFFCURVE",
"437 438 OFFCURVE",
"451 429 CURVE",
"440 393 OFFCURVE",
"418 362 OFFCURVE",
"409 325 CURVE",
"423 319 OFFCURVE",
"438 318 OFFCURVE",
"452 312 CURVE SMOOTH",
"482 298 OFFCURVE",
"538 243 OFFCURVE",
"534 208 CURVE",
"554 176 OFFCURVE",
"520 121 OFFCURVE",
"496 100 CURVE",
"479 94 OFFCURVE",
"468 79 OFFCURVE",
"453 71 CURVE",
"410 50 LINE SMOOTH",
"386 39 OFFCURVE",
"350 23 OFFCURVE",
"324 23 CURVE SMOOTH",
"309 23 OFFCURVE",
"296 21 OFFCURVE",
"282 16 CURVE"
);
}
);
width = 543;
}
);
},
{
color = 10;
glyphname = "ha-cy.ss01";
lastChange = "2017-12-14 19:20:52 +0000";
layers = (
{
layerId = UUID0;
paths = (
{
closed = 1;
nodes = (
"268 210 OFFCURVE",
"441 321 OFFCURVE",
"402 365 CURVE SMOOTH",
"374 397 OFFCURVE",
"322 333 OFFCURVE",
"306 315 CURVE SMOOTH",
"287 294 OFFCURVE",
"268 272 OFFCURVE",
"248 251 CURVE SMOOTH",
"234 236 OFFCURVE",
"217 222 OFFCURVE",
"203 207 CURVE SMOOTH",
"186 188 OFFCURVE",
"170 168 OFFCURVE",
"153 148 CURVE SMOOTH",
"128 119 OFFCURVE",
"101 91 OFFCURVE",
"77 62 CURVE SMOOTH",
"64 46 OFFCURVE",
"48 5 OFFCURVE",
"85 7 CURVE SMOOTH",
"106 8 OFFCURVE",
"149 56 OFFCURVE",
"162 71 CURVE SMOOTH",
"196 111 OFFCURVE",
"234 148 OFFCURVE",
"269 187 CURVE"
);
},
{
closed = 1;
nodes = (
"310 69 LINE",
"305 82 OFFCURVE",
"294 94 OFFCURVE",
"291 107 CURVE SMOOTH",
"289 116 OFFCURVE",
"268 179 OFFCURVE",
"271 187 CURVE",
"263 217 OFFCURVE",
"255 249 OFFCURVE",
"244 278 CURVE",
"244 277 LINE",
"237 298 OFFCURVE",
"216 350 OFFCURVE",
"199 363 CURVE",
"183 367 OFFCURVE",
"174 360 OFFCURVE",
"164 348 CURVE",
"162 347 LINE",
"154 333 OFFCURVE",
"156 331 OFFCURVE",
"164 317 CURVE SMOOTH",
"184 281 OFFCURVE",
"192 235 OFFCURVE",
"204 196 CURVE SMOOTH",
"214 161 OFFCURVE",
"243 93 OFFCURVE",
"260 58 CURVE",
"260 59 LINE",
"275 30 LINE SMOOTH",
"282 16 OFFCURVE",
"320 -27 OFFCURVE",
"337 -25 CURVE SMOOTH",
"353 -23 OFFCURVE",
"354 -12 OFFCURVE",
"348 1 CURVE SMOOTH",
"343 12 OFFCURVE",
"334 18 OFFCURVE",
"328 28 CURVE",
"321 41 OFFCURVE",
"315 56 OFFCURVE",
"310 70 CURVE"
);
}
);
width = 343;
}
);
},
{
color = 10;
glyphname = "che-cy.ss01";
lastChange = "2017-12-14 19:20:52 +0000";
layers = (
{
layerId = UUID0;
paths = (
{
closed = 1;
nodes = (
"429 271 OFFCURVE",
"339 136 OFFCURVE",
"358 70 CURVE",
"367 75 OFFCURVE",
"376 82 OFFCURVE",
"385 86 CURVE SMOOTH",
"409 97 OFFCURVE",
"401 67 OFFCURVE",
"400 56 CURVE",
"399 51 OFFCURVE",
"401 44 OFFCURVE",
"399 39 CURVE",
"391 14 OFFCURVE",
"345 -14 OFFCURVE",
"323 10 CURVE",
"256 40 OFFCURVE",
"302 172 OFFCURVE",
"325 221 CURVE",
"324 223 LINE",
"319 223 LINE",
"275 175 OFFCURVE",
"242 149 OFFCURVE",
"186 116 CURVE",
"166 116 LINE SMOOTH",
"150 116 OFFCURVE",
"142 118 OFFCURVE",
"130 130 CURVE SMOOTH",
"64 196 OFFCURVE",
"152 333 OFFCURVE",
"183 402 CURVE",
"211 414 OFFCURVE",
"230 379 OFFCURVE",
"238 359 CURVE",
"230 334 OFFCURVE",
"211 314 OFFCURVE",
"202 288 CURVE SMOOTH",
"190 251 OFFCURVE",
"169 217 OFFCURVE",
"171 177 CURVE",
"197 174 OFFCURVE",
"360 300 OFFCURVE",
"385 329 CURVE SMOOTH",
"393 338 OFFCURVE",
"400 350 OFFCURVE",
"408 358 CURVE SMOOTH",
"439 389 OFFCURVE",
"471 348 OFFCURVE",
"469 316 CURVE"
);
}
);
width = 406;
}
);
leftKerningGroup = uni0447;
rightKerningGroup = uni0447;
},
{
color = 10;
glyphname = "tse-cy.ss01";
lastChange = "2017-12-14 19:20:52 +0000";
layers = (
{
layerId = UUID0;
paths = (
{
closed = 1;
nodes = (
"136 78 OFFCURVE",
"222 97 OFFCURVE",
"239 106 CURVE",
"246 141 OFFCURVE",
"276 214 OFFCURVE",
"276 242 CURVE SMOOTH",
"276 252 OFFCURVE",
"298 298 OFFCURVE",
"299 315 CURVE SMOOTH",
"300 333 OFFCURVE",
"303 349 OFFCURVE",
"306 367 CURVE",
"311 371 OFFCURVE",
"316 375 OFFCURVE",
"320 379 CURVE",
"342 373 OFFCURVE",
"358 360 OFFCURVE",
"368 340 CURVE",
"370 301 OFFCURVE",
"327 148 OFFCURVE",
"305 116 CURVE",
"334 113 OFFCURVE",
"360 127 OFFCURVE",
"388 131 CURVE",
"395 125 OFFCURVE",
"403 118 OFFCURVE",
"409 110 CURVE SMOOTH",
"440 67 OFFCURVE",
"378 -19 OFFCURVE",
"383 -41 CURVE SMOOTH",
"384 -46 OFFCURVE",
"337 -129 OFFCURVE",
"330 -140 CURVE SMOOTH",
"315 -163 OFFCURVE",
"292 -138 OFFCURVE",
"278 -126 CURVE",
"272 -108 OFFCURVE",
"278 -97 OFFCURVE",
"286 -81 CURVE SMOOTH",
"294 -65 OFFCURVE",
"335 43 OFFCURVE",
"333 54 CURVE",
"297 52 OFFCURVE",
"225 37 OFFCURVE",
"190 28 CURVE SMOOTH",
"179 25 OFFCURVE",
"166 27 OFFCURVE",
"155 25 CURVE SMOOTH",
"123 19 OFFCURVE",
"106 20 OFFCURVE",
"76 35 CURVE",
"58 63 OFFCURVE",
"44 77 OFFCURVE",
"54 110 CURVE SMOOTH",
"77 187 OFFCURVE",
"131 289 OFFCURVE",
"137 363 CURVE SMOOTH",
"138 375 OFFCURVE",
"147 382 OFFCURVE",
"159 378 CURVE SMOOTH",
"177 372 OFFCURVE",
"183 356 OFFCURVE",
"194 342 CURVE",
"194 326 OFFCURVE",
"186 286 OFFCURVE",
"179 272 CURVE",
"177 225 OFFCURVE",
"124 146 OFFCURVE",
"118 81 CURVE"
);
}
);
width = 415;
}
);
},
{
color = 10;
glyphname = "sha-cy.ss01";
lastChange = "2017-12-14 19:20:52 +0000";
layers = (
{
layerId = UUID0;
paths = (
{
closed = 1;
nodes = (
"526 298 OFFCURVE",
"534 300 OFFCURVE",
"541 303 CURVE",
"555 295 OFFCURVE",
"566 284 OFFCURVE",
"574 270 CURVE",
"574 245 LINE",
"562 227 OFFCURVE",
"552 208 OFFCURVE",
"545 187 CURVE SMOOTH",
"532 149 OFFCURVE",
"494 80 OFFCURVE",
"475 40 CURVE SMOOTH",
"473 36 OFFCURVE",
"472 32 OFFCURVE",
"469 28 CURVE SMOOTH",
"466 24 OFFCURVE",
"462 18 OFFCURVE",
"456 17 CURVE",
"443 14 OFFCURVE",
"431 24 OFFCURVE",
"421 31 CURVE",
"417 32 OFFCURVE",
"403 25 OFFCURVE",
"399 23 CURVE",
"378 26 OFFCURVE",
"378 21 OFFCURVE",
"362 21 CURVE SMOOTH",
"307 21 OFFCURVE",
"180 -8 OFFCURVE",
"142 3 CURVE SMOOTH",
"119 10 OFFCURVE",
"100 34 OFFCURVE",
"96 57 CURVE",
"95 66 OFFCURVE",
"89 73 OFFCURVE",
"91 82 CURVE",
"105 134 OFFCURVE",
"120 192 OFFCURVE",
"153 236 CURVE",
"159 246 LINE",
"169 269 OFFCURVE",
"181 288 OFFCURVE",
"196 309 CURVE SMOOTH",
"203 319 OFFCURVE",
"215 345 OFFCURVE",
"221 350 CURVE SMOOTH",
"250 375 OFFCURVE",
"268 315 OFFCURVE",
"270 296 CURVE",
"225 248 OFFCURVE",
"167 135 OFFCURVE",
"150 68 CURVE",
"160 57 OFFCURVE",
"189 60 OFFCURVE",
"202 65 CURVE",
"225 66 OFFCURVE",
"250 75 OFFCURVE",
"272 73 CURVE",
"277 83 OFFCURVE",
"272 96 OFFCURVE",
"278 106 CURVE SMOOTH",
"289 125 OFFCURVE",
"296 140 OFFCURVE",
"303 161 CURVE SMOOTH",
"309 179 OFFCURVE",
"339 262 OFFCURVE",
"347 272 CURVE",
"352 275 OFFCURVE",
"358 276 OFFCURVE",
"364 278 CURVE",
"387 267 OFFCURVE",
"387 268 OFFCURVE",
"401 246 CURVE",
"401 236 OFFCURVE",
"403 224 OFFCURVE",
"399 214 CURVE",
"393 210 OFFCURVE",
"372 159 OFFCURVE",
"371 150 CURVE",
"358 131 OFFCURVE",
"353 108 OFFCURVE",
"341 89 CURVE",
"339 80 LINE",
"364 83 OFFCURVE",
"389 91 OFFCURVE",
"414 90 CURVE",
"427 100 OFFCURVE",
"440 112 OFFCURVE",
"442 129 CURVE",
"448 137 OFFCURVE",
"494 233 OFFCURVE",
"495 242 CURVE",
"508 257 OFFCURVE",
"512 277 OFFCURVE",
"519 295 CURVE"
);
}
);
width = 589;
}
);
},
{
color = 10;
glyphname = "shcha-cy.ss01";
lastChange = "2017-12-14 19:20:52 +0000";
layers = (
{
layerId = UUID0;
paths = (
{
closed = 1;
nodes = (
"626 -14 OFFCURVE",
"617 25 OFFCURVE",
"576 -48 CURVE",
"575 -61 OFFCURVE",
"564 -69 OFFCURVE",
"555 -78 CURVE",
"548 -81 OFFCURVE",
"540 -80 OFFCURVE",
"532 -80 CURVE",
"478 -34 OFFCURVE",
"535 -9 OFFCURVE",
"541 33 CURVE",
"550 42 OFFCURVE",
"554 54 OFFCURVE",
"559 65 CURVE",
"562 73 LINE",
"552 75 OFFCURVE",
"543 78 OFFCURVE",
"534 81 CURVE",
"529 81 OFFCURVE",
"479 73 OFFCURVE",
"476 72 CURVE",
"463 65 OFFCURVE",
"449 63 OFFCURVE",
"435 60 CURVE SMOOTH",
"415 55 OFFCURVE",
"395 47 OFFCURVE",
"376 40 CURVE",
"372 38 OFFCURVE",
"366 36 OFFCURVE",
"362 36 CURVE SMOOTH",
"331 36 OFFCURVE",
"298 16 OFFCURVE",
"266 12 CURVE",
"261 11 LINE",
"211 -1 OFFCURVE",
"153 -11 OFFCURVE",
"111 29 CURVE SMOOTH",
"98 42 OFFCURVE",
"89 58 OFFCURVE",
"84 76 CURVE SMOOTH",
"68 129 OFFCURVE",
"115 242 OFFCURVE",
"140 291 CURVE SMOOTH",
"148 307 OFFCURVE",
"160 346 OFFCURVE",
"178 350 CURVE",
"204 345 LINE",
"210 339 OFFCURVE",
"216 334 OFFCURVE",
"221 328 CURVE",
"227 308 OFFCURVE",
"221 292 OFFCURVE",
"209 276 CURVE SMOOTH",
"189 250 OFFCURVE",
"100 59 OFFCURVE",
"167 59 CURVE SMOOTH",
"184 59 OFFCURVE",
"205 57 OFFCURVE",
"221 64 CURVE",
"243 64 OFFCURVE",
"264 72 OFFCURVE",
"285 78 CURVE",
"270 95 OFFCURVE",
"272 112 OFFCURVE",
"278 132 CURVE SMOOTH",
"287 163 OFFCURVE",
"338 301 OFFCURVE",
"334 321 CURVE",
"338 326 OFFCURVE",
"337 331 OFFCURVE",
"343 335 CURVE",
"347 338 OFFCURVE",
"353 343 OFFCURVE",
"357 345 CURVE",
"371 351 OFFCURVE",
"382 339 OFFCURVE",
"393 333 CURVE",
"404 328 OFFCURVE",
"403 319 OFFCURVE",
"407 309 CURVE",
"397 283 OFFCURVE",
"375 237 OFFCURVE",
"372 211 CURVE SMOOTH",
"370 188 OFFCURVE",
"350 140 OFFCURVE",
"341 117 CURVE SMOOTH",
"338 110 OFFCURVE",
"337 102 OFFCURVE",
"340 95 CURVE",
"363 95 OFFCURVE",
"423 116 OFFCURVE",
"444 126 CURVE",
"448 137 OFFCURVE",
"449 149 OFFCURVE",
"453 160 CURVE SMOOTH",
"460 180 OFFCURVE",
"468 198 OFFCURVE",
"475 218 CURVE SMOOTH",
"485 248 OFFCURVE",
"492 290 OFFCURVE",
"504 316 CURVE SMOOTH",
"508 325 OFFCURVE",
"512 328 OFFCURVE",
"520 334 CURVE",
"541 334 LINE",
"555 327 OFFCURVE",
"557 312 OFFCURVE",
"568 303 CURVE",
"573 275 OFFCURVE",
"531 171 OFFCURVE",
"517 143 CURVE",
"523 138 OFFCURVE",
"564 129 OFFCURVE",
"573 131 CURVE",
"605 124 OFFCURVE",
"609 114 OFFCURVE",
"626 89 CURVE"
);
}
);
width = 619;
}
);
},
{
color = 10;
glyphname = "softsign-cy.ss01";
lastChange = "2017-12-14 19:20:52 +0000";
layers = (
{
layerId = UUID0;
paths = (
{
closed = 1;
nodes = (
"233 224 OFFCURVE",
"190 215 OFFCURVE",
"199 247 CURVE",
"210 260 OFFCURVE",
"225 256 OFFCURVE",
"240 255 CURVE",
"245 250 OFFCURVE",
"252 253 OFFCURVE",
"258 250 CURVE SMOOTH",
"268 245 OFFCURVE",
"280 235 OFFCURVE",
"288 228 CURVE",
"293 213 OFFCURVE",
"302 200 OFFCURVE",
"302 184 CURVE SMOOTH",
"302 109 OFFCURVE",
"265 72 OFFCURVE",
"201 38 CURVE SMOOTH",
"192 33 OFFCURVE",
"181 32 OFFCURVE",
"173 26 CURVE",
"171 27 OFFCURVE",
"141 21 OFFCURVE",
"138 19 CURVE",
"122 24 OFFCURVE",
"111 23 OFFCURVE",
"98 36 CURVE SMOOTH",
"81 53 OFFCURVE",
"70 78 OFFCURVE",
"76 102 CURVE SMOOTH",
"80 116 OFFCURVE",
"77 131 OFFCURVE",
"84 144 CURVE",
"85 158 OFFCURVE",
"92 171 OFFCURVE",
"97 184 CURVE SMOOTH",
"105 207 OFFCURVE",
"112 229 OFFCURVE",
"123 251 CURVE SMOOTH",
"143 292 OFFCURVE",
"168 330 OFFCURVE",
"187 371 CURVE SMOOTH",
"197 392 OFFCURVE",
"214 382 OFFCURVE",
"228 376 CURVE",
"232 364 OFFCURVE",
"244 359 OFFCURVE",
"241 344 CURVE",
"212 304 OFFCURVE",
"190 263 OFFCURVE",
"168 220 CURVE SMOOTH",
"158 200 OFFCURVE",
"155 176 OFFCURVE",
"146 156 CURVE SMOOTH",
"136 134 OFFCURVE",
"135 111 OFFCURVE",
"128 88 CURVE SMOOTH",
"126 81 OFFCURVE",
"128 75 OFFCURVE",
"135 72 CURVE",
"153 78 OFFCURVE",
"173 82 OFFCURVE",
"188 94 CURVE SMOOTH",
"233 129 OFFCURVE",
"253 130 OFFCURVE",
"260 195 CURVE SMOOTH",
"261 203 OFFCURVE",
"258 210 OFFCURVE",
"253 216 CURVE"
);
}
);
width = 354;
}
);
rightKerningGroup = uni044C;
},
{
color = 10;
glyphname = "iu-cy.ss01";
lastChange = "2017-12-14 19:20:52 +0000";
layers = (
{
layerId = UUID0;
paths = (
{
closed = 1;
nodes = (
"454 305 OFFCURVE",
"448 312 OFFCURVE",
"431 306 CURVE SMOOTH",
"365 285 OFFCURVE",
"297 152 OFFCURVE",
"288 87 CURVE SMOOTH",
"287 78 OFFCURVE",
"291 69 OFFCURVE",
"296 61 CURVE SMOOTH",
"300 55 OFFCURVE",
"308 54 OFFCURVE",
"314 52 CURVE",
"368 37 OFFCURVE",
"507 213 OFFCURVE",
"469 300 CURVE"
);
},
{
closed = 1;
nodes = (
"233 156 LINE",
"186 156 LINE",
"177 124 OFFCURVE",
"148 31 OFFCURVE",
"148 3 CURVE SMOOTH",
"148 -6 OFFCURVE",
"139 -10 OFFCURVE",
"132 -9 CURVE",
"121 -8 OFFCURVE",
"112 -2 OFFCURVE",
"101 -2 CURVE",
"91 4 OFFCURVE",
"91 10 OFFCURVE",
"86 19 CURVE",
"98 48 OFFCURVE",
"102 93 OFFCURVE",
"110 127 CURVE SMOOTH",
"125 189 OFFCURVE",
"142 250 OFFCURVE",
"171 307 CURVE SMOOTH",
"176 317 OFFCURVE",
"183 326 OFFCURVE",
"184 338 CURVE",
"197 350 OFFCURVE",
"203 404 OFFCURVE",
"232 383 CURVE SMOOTH",
"244 374 OFFCURVE",
"256 364 OFFCURVE",
"262 350 CURVE",
"249 323 OFFCURVE",
"210 255 OFFCURVE",
"208 224 CURVE",
"213 221 LINE",
"265 221 LINE",
"308 288 OFFCURVE",
"365 372 OFFCURVE",
"455 372 CURVE SMOOTH",
"474 372 OFFCURVE",
"487 357 OFFCURVE",
"503 349 CURVE SMOOTH",
"542 329 OFFCURVE",
"526 301 OFFCURVE",
"540 273 CURVE",
"540 262 LINE",
"533 250 OFFCURVE",
"537 235 OFFCURVE",
"533 222 CURVE SMOOTH",
"505 122 OFFCURVE",
"440 47 OFFCURVE",
"345 6 CURVE SMOOTH",
"334 1 OFFCURVE",
"321 -2 OFFCURVE",
"309 -3 CURVE",
"270 -8 OFFCURVE",
"220 62 OFFCURVE",
"232 99 CURVE SMOOTH",
"239 120 OFFCURVE",
"220 109 OFFCURVE",
"239 137 CURVE"
);
}
);
width = 497;
}
);
},
{
color = 10;
glyphname = "ia-cy.ss01";
lastChange = "2017-12-14 19:20:52 +0000";
layers = (
{
layerId = UUID0;
paths = (
{
closed = 1;
nodes = (
"262 340 OFFCURVE",
"238 344 OFFCURVE",
"223 337 CURVE SMOOTH",
"187 320 OFFCURVE",
"152 263 OFFCURVE",
"195 233 CURVE SMOOTH",
"215 219 OFFCURVE",
"238 211 OFFCURVE",
"256 196 CURVE",
"268 223 OFFCURVE",
"266 248 OFFCURVE",
"277 272 CURVE SMOOTH",
"281 281 OFFCURVE",
"280 329 OFFCURVE",
"278 340 CURVE"
);
},
{
closed = 1;
nodes = (
"223 21 LINE",
"220 65 OFFCURVE",
"234 103 OFFCURVE",
"244 145 CURVE",
"240 157 OFFCURVE",
"188 122 OFFCURVE",
"180 116 CURVE",
"167 107 OFFCURVE",
"69 43 OFFCURVE",
"63 43 CURVE",
"39 44 OFFCURVE",
"24 67 OFFCURVE",
"20 88 CURVE",
"29 101 OFFCURVE",
"40 109 OFFCURVE",
"55 113 CURVE SMOOTH",
"80 120 OFFCURVE",
"129 164 OFFCURVE",
"155 179 CURVE",
"158 183 LINE",
"158 188 LINE",
"139 213 OFFCURVE",
"126 222 OFFCURVE",
"116 254 CURVE",
"112 269 OFFCURVE",
"111 281 OFFCURVE",
"116 296 CURVE SMOOTH",
"136 351 OFFCURVE",
"126 351 OFFCURVE",
"181 382 CURVE",
"184 384 OFFCURVE",
"186 386 OFFCURVE",
"189 386 CURVE",
"212 388 OFFCURVE",
"240 395 OFFCURVE",
"263 393 CURVE SMOOTH",
"280 392 OFFCURVE",
"296 392 OFFCURVE",
"313 392 CURVE",
"335 381 OFFCURVE",
"355 369 OFFCURVE",
"355 342 CURVE SMOOTH",
"355 290 OFFCURVE",
"310 113 OFFCURVE",
"292 66 CURVE",
"294 54 OFFCURVE",
"287 41 OFFCURVE",
"286 29 CURVE SMOOTH",
"284 9 OFFCURVE",
"270 7 OFFCURVE",
"255 0 CURVE"
);
}
);
width = 363;
}
);
},
{
color = 11;
glyphname = "a-cy.ss02";
lastChange = "2017-12-14 19:20:59 +0000";
layers = (
{
layerId = UUID0;
paths = (
{
closed = 1;
nodes = (
"226 57 LINE SMOOTH",
"233 57 OFFCURVE",
"272 97 OFFCURVE",
"280 102 CURVE",
"289 109 OFFCURVE",
"299 115 OFFCURVE",
"309 121 CURVE",
"324 94 OFFCURVE",
"330 68 OFFCURVE",
"358 48 CURVE SMOOTH",
"378 34 OFFCURVE",
"426 32 OFFCURVE",
"446 48 CURVE SMOOTH",
"451 52 OFFCURVE",
"456 57 OFFCURVE",
"461 62 CURVE",
"461 64 OFFCURVE",
"499 111 OFFCURVE",
"476 111 CURVE SMOOTH",
"472 111 OFFCURVE",
"468 113 OFFCURVE",
"466 116 CURVE",
"467 128 OFFCURVE",
"437 105 OFFCURVE",
"435 103 CURVE",
"411 84 OFFCURVE",
"375 72 OFFCURVE",
"363 111 CURVE SMOOTH",
"352 146 OFFCURVE",
"378 194 OFFCURVE",
"378 209 CURVE",
"371 206 OFFCURVE",
"379 215 OFFCURVE",
"382 219 CURVE",
"393 232 OFFCURVE",
"386 248 OFFCURVE",
"382 263 CURVE SMOOTH",
"371 308 OFFCURVE",
"372 337 OFFCURVE",
"324 356 CURVE SMOOTH",
"291 369 OFFCURVE",
"304 372 OFFCURVE",
"270 356 CURVE SMOOTH",
"199 322 OFFCURVE",
"84 157 OFFCURVE",
"98 77 CURVE SMOOTH",
"103 51 OFFCURVE",
"137 31 OFFCURVE",
"162 33 CURVE SMOOTH",
"173 34 OFFCURVE",
"215 43 OFFCURVE",
"216 57 CURVE"
);
},
{
closed = 1;
nodes = (
"124 114 OFFCURVE",
"256 292 OFFCURVE",
"289 307 CURVE SMOOTH",
"306 315 OFFCURVE",
"316 320 OFFCURVE",
"324 302 CURVE SMOOTH",
"347 250 OFFCURVE",
"297 199 OFFCURVE",
"265 165 CURVE SMOOTH",
"249 148 OFFCURVE",
"172 88 OFFCURVE",
"152 87 CURVE"
);
}
);
width = 410;
}
);
},
{
color = 11;
glyphname = "be-cy.ss02";
lastChange = "2017-12-14 19:20:59 +0000";
layers = (
{
layerId = UUID0;
paths = (
{
closed = 1;
nodes = (
"229 229 OFFCURVE",
"169 147 OFFCURVE",
"154 80 CURVE SMOOTH",
"143 30 OFFCURVE",
"218 87 OFFCURVE",
"226 105 CURVE",
"272 151 OFFCURVE",
"275 207 OFFCURVE",
"286 267 CURVE"
);
},
{
closed = 1;
nodes = (
"493 494 OFFCURVE",
"486 482 OFFCURVE",
"474 486 CURVE SMOOTH",
"439 498 OFFCURVE",
"464 514 OFFCURVE",
"433 519 CURVE SMOOTH",
"405 523 OFFCURVE",
"368 506 OFFCURVE",
"340 503 CURVE SMOOTH",
"313 500 OFFCURVE",
"293 489 OFFCURVE",
"270 476 CURVE",
"269 468 OFFCURVE",
"275 464 OFFCURVE",
"280 459 CURVE SMOOTH",
"308 431 OFFCURVE",
"329 405 OFFCURVE",
"338 366 CURVE SMOOTH",
"340 358 OFFCURVE",
"342 350 OFFCURVE",
"346 342 CURVE",
"354 324 OFFCURVE",
"343 319 OFFCURVE",
"345 309 CURVE SMOOTH",
"350 281 OFFCURVE",
"348 258 OFFCURVE",
"349 230 CURVE",
"346 222 OFFCURVE",
"337 163 OFFCURVE",
"337 154 CURVE SMOOTH",
"337 133 OFFCURVE",
"296 81 OFFCURVE",
"283 64 CURVE SMOOTH",
"265 40 OFFCURVE",
"252 30 OFFCURVE",
"228 11 CURVE SMOOTH",
"216 1 OFFCURVE",
"199 -5 OFFCURVE",
"184 -9 CURVE SMOOTH",
"174 -12 OFFCURVE",
"164 -6 OFFCURVE",
"154 -8 CURVE",
"115 6 OFFCURVE",
"105 22 OFFCURVE",
"85 56 CURVE",
"76 113 OFFCURVE",
"105 141 OFFCURVE",
"121 185 CURVE",
"130 192 OFFCURVE",
"130 205 OFFCURVE",
"138 214 CURVE SMOOTH",
"146 223 OFFCURVE",
"152 232 OFFCURVE",
"158 242 CURVE SMOOTH",
"181 278 OFFCURVE",
"218 306 OFFCURVE",
"256 323 CURVE",
"286 314 LINE",
"286 409 OFFCURVE",
"264 399 OFFCURVE",
"210 465 CURVE SMOOTH",
"203 474 OFFCURVE",
"199 489 OFFCURVE",
"195 499 CURVE",
"207 535 OFFCURVE",
"273 561 OFFCURVE",
"307 569 CURVE",
"309 568 OFFCURVE",
"386 584 OFFCURVE",
"395 586 CURVE",
"406 589 OFFCURVE",
"409 589 OFFCURVE",
"420 585 CURVE SMOOTH",
"425 583 OFFCURVE",
"428 587 OFFCURVE",
"433 587 CURVE SMOOTH",
"449 587 OFFCURVE",
"477 576 OFFCURVE",
"487 564 CURVE SMOOTH",
"518 529 OFFCURVE",
"514 548 OFFCURVE",
"503 499 CURVE"
);
}
);
width = 395;
}
);
},
{
color = 11;
glyphname = "ve-cy.ss02";
lastChange = "2017-12-14 19:20:59 +0000";
layers = (
{
layerId = UUID0;
paths = (
{
closed = 1;
nodes = (
"208 346 OFFCURVE",
"270 398 OFFCURVE",
"293 424 CURVE SMOOTH",
"306 439 OFFCURVE",
"317 455 OFFCURVE",
"330 470 CURVE SMOOTH",
"351 493 OFFCURVE",
"374 535 OFFCURVE",
"374 566 CURVE SMOOTH",
"374 574 OFFCURVE",
"365 581 OFFCURVE",
"358 578 CURVE",
"347 574 OFFCURVE",
"336 568 OFFCURVE",
"328 560 CURVE SMOOTH",
"310 543 OFFCURVE",
"287 527 OFFCURVE",
"270 508 CURVE",
"269 507 OFFCURVE",
"268 504 OFFCURVE",
"267 502 CURVE SMOOTH",
"255 479 OFFCURVE",
"240 458 OFFCURVE",
"226 436 CURVE SMOOTH",
"206 404 OFFCURVE",
"195 368 OFFCURVE",
"176 336 CURVE"
);
},
{
closed = 1;
nodes = (
"206 274 OFFCURVE",
"211 275 OFFCURVE",
"215 276 CURVE",
"228 275 OFFCURVE",
"241 271 OFFCURVE",
"254 268 CURVE",
"261 256 OFFCURVE",
"273 241 OFFCURVE",
"277 228 CURVE",
"284 198 LINE",
"281 191 OFFCURVE",
"286 165 OFFCURVE",
"280 148 CURVE SMOOTH",
"272 123 OFFCURVE",
"268 95 OFFCURVE",
"253 73 CURVE SMOOTH",
"243 58 OFFCURVE",
"221 28 OFFCURVE",
"206 19 CURVE SMOOTH",
"197 14 OFFCURVE",
"186 13 OFFCURVE",
"176 8 CURVE SMOOTH",
"158 -1 OFFCURVE",
"138 19 OFFCURVE",
"122 19 CURVE SMOOTH",
"104 19 OFFCURVE",
"73 70 OFFCURVE",
"77 96 CURVE SMOOTH",
"78 103 OFFCURVE",
"73 107 OFFCURVE",
"73 114 CURVE",
"72 153 OFFCURVE",
"76 224 OFFCURVE",
"92 259 CURVE",
"81 266 OFFCURVE",
"76 277 OFFCURVE",
"70 288 CURVE",
"73 294 OFFCURVE",
"75 301 OFFCURVE",
"77 307 CURVE",
"86 308 OFFCURVE",
"95 309 OFFCURVE",
"104 312 CURVE",
"137 415 OFFCURVE",
"196 537 OFFCURVE",
"291 597 CURVE SMOOTH",
"307 607 OFFCURVE",
"333 625 OFFCURVE",
"353 621 CURVE",
"357 622 OFFCURVE",
"362 619 OFFCURVE",
"365 622 CURVE",
"368 621 OFFCURVE",
"370 620 OFFCURVE",
"373 618 CURVE",
"380 608 OFFCURVE",
"411 593 OFFCURVE",
"428 565 CURVE SMOOTH",
"441 544 OFFCURVE",
"421 510 OFFCURVE",
"413 488 CURVE SMOOTH",
"406 469 OFFCURVE",
"391 455 OFFCURVE",
"383 437 CURVE",
"380 429 OFFCURVE",
"371 426 OFFCURVE",
"369 417 CURVE",
"357 412 OFFCURVE",
"355 399 OFFCURVE",
"346 392 CURVE",
"337 384 OFFCURVE",
"330 378 OFFCURVE",
"322 369 CURVE",
"309 353 OFFCURVE",
"288 344 OFFCURVE",
"274 328 CURVE",
"253 317 OFFCURVE",
"232 296 OFFCURVE",
"210 289 CURVE SMOOTH",
"197 285 OFFCURVE",
"181 278 OFFCURVE",
"168 272 CURVE SMOOTH",
"145 262 OFFCURVE",
"138 167 OFFCURVE",
"135 142 CURVE SMOOTH",
"133 126 OFFCURVE",
"138 85 OFFCURVE",
"145 70 CURVE SMOOTH",
"148 64 OFFCURVE",
"159 57 OFFCURVE",
"165 62 CURVE SMOOTH",
"171 67 OFFCURVE",
"196 98 OFFCURVE",
"200 106 CURVE SMOOTH",
"208 122 OFFCURVE",
"217 143 OFFCURVE",
"222 161 CURVE SMOOTH",
"238 219 OFFCURVE",
"199 244 OFFCURVE",
"202 274 CURVE"
);
}
);
width = 291;
}
);
},
{
color = 11;
glyphname = "ge-cy.ss02";
lastChange = "2017-12-14 19:20:59 +0000";
layers = (
{
layerId = UUID0;
paths = (
{
closed = 1;
nodes = (
"165 333 OFFCURVE",
"173 334 OFFCURVE",
"182 331 CURVE",
"188 332 LINE",
"216 349 OFFCURVE",
"301 358 OFFCURVE",
"331 342 CURVE SMOOTH",
"351 331 OFFCURVE",
"354 317 OFFCURVE",
"357 296 CURVE",
"344 286 LINE",
"336 290 OFFCURVE",
"327 285 OFFCURVE",
"318 286 CURVE",
"295 290 OFFCURVE",
"226 277 OFFCURVE",
"208 262 CURVE",
"206 252 OFFCURVE",
"184 170 OFFCURVE",
"182 164 CURVE",
"162 113 OFFCURVE",
"154 55 OFFCURVE",
"143 2 CURVE",
"132 -1 OFFCURVE",
"123 -1 OFFCURVE",
"112 3 CURVE SMOOTH",
"58 22 OFFCURVE",
"100 78 OFFCURVE",
"94 114 CURVE",
"102 154 OFFCURVE",
"129 219 OFFCURVE",
"131 257 CURVE SMOOTH",
"132 275 OFFCURVE",
"114 285 OFFCURVE",
"131 304 CURVE SMOOTH",
"139 313 OFFCURVE",
"148 321 OFFCURVE",
"156 330 CURVE"
);
}
);
width = 281;
}
);
leftKerningGroup = uni0433;
rightKerningGroup = uni0433;
},
